<svg xmlns="http://www.w3.org/2000/svg" width="347.497" height="396.692" viewBox="0 0 347.497 396.692"><path d="M262.971,396.692a19.675,19.675,0,0,1,10.586-20.216l-4.761-88.4-63.062,25.454-41.514,70.444a26.04,26.04,0,0,1,6.282,12.72H119.708c.021-.113.041-.227.064-.34a25.771,25.771,0,0,1,30.24-20.394,22.891,22.891,0,0,1,4.411,1.164l42.755-72.057-94.689-45.608c4.4,21.875,10.218,41.243,17.732,55.065a20.7,20.7,0,0,1,11.006-.949,19.723,19.723,0,1,1-23.126,15.6,17.789,17.789,0,0,1,2.523-6.62c-6.009-10.44-11.079-24.1-15.208-39.429L62.2,304.481a19.727,19.727,0,0,1-.024,6.489,16.688,16.688,0,1,1-13.2-19.567,18.034,18.034,0,0,1,6.562,2.819l36.708-23.463c-1.341-5.828-2.679-11.65-3.666-17.714l-51.43-24.836a19.305,19.305,0,0,1-21.193,10.409,19.725,19.725,0,1,1,23.029-23.035l47.2,22.775c-8.511-54.825-10.03-115.4-10.294-142.65a19.883,19.883,0,1,1,12.139-.424c.445,27.908,2.172,93.775,11.459,149.368L211.184,298.2,309.1,258.814l-4.939-.031c-.035-6.193-11.222-50.408-24.773-101.57l-55.11,32.253,12.755,25.044a19.575,19.575,0,0,1,6.131.264A20.206,20.206,0,0,1,259,238.257a19.723,19.723,0,1,1-38.72-7.528,19.288,19.288,0,0,1,5.776-10.624l-12.272-24.335-37.969,21.99a16.111,16.111,0,0,1-.452,3.93,19.593,19.593,0,1,1-3.719-15.872L275.875,145.09l.664,1.366c-6.861-25.138-13.846-51.225-20.582-75.406L151.235,107.263l-.288,1.488a20.078,20.078,0,1,1-2.336-13.44l29.166-10.093L165.2,48.153c-.3-.06-.595-.119-.894-.174a19.724,19.724,0,1,1,23.126-15.6,19.283,19.283,0,0,1-10.047,13.5l11.977,35.4,63.319-22q-1.095-3.915-2.182-7.841a23.19,23.19,0,0,1-6.433-.323,25.793,25.793,0,1,1,30.24-20.4,26.821,26.821,0,0,1-12.042,17.443c3.583,13.37,10.319,37.555,17.905,65.3l24.913-4.122,3.4-42.925A16.873,16.873,0,0,1,298.8,47.847c1.737-8.939,10.037-15.052,18.975-13.314a16.816,16.816,0,0,1,2.374,32.3l-3.233,40.486,16.943-2.891A19.311,19.311,0,0,1,347.5,91.678v38.24a19.7,19.7,0,0,1-13.87-13.17l-50.777,8.369c3.823,13.725,7.771,28.4,11.535,42.429l53.112-6.87v12.366l-49.89,6.567c9.533,35.238,17.141,66.079,18.5,76.551L347.5,243.45V256.5l-66.649,26.809,1.821,28.79L347.5,314.95v11.975l-64.345-2.988,2.537,50.572c.3.059.3.059.591.115a19.681,19.681,0,0,1,15.774,22.069Zm-42.713-16.355a19.7,19.7,0,1,1,3.789.367A19.722,19.722,0,0,1,220.257,380.337ZM27.46,163.573a25.768,25.768,0,1,1,4.951.479A25.792,25.792,0,0,1,27.46,163.573Zm158.283-3.236a19.7,19.7,0,1,1,3.783.366A19.725,19.725,0,0,1,185.743,160.337Z" fill="#dae3e9" opacity="0.4"/></svg>