<svg xmlns="http://www.w3.org/2000/svg" xmlns:xlink="http://www.w3.org/1999/xlink" width="534.99" height="382.734" viewBox="0 0 534.99 382.734"><defs><linearGradient id="a" x1="0.142" y1="-0.169" x2="0.797" y2="1.251" gradientUnits="objectBoundingBox"><stop offset="0" stop-color="#7ac943" stop-opacity="0"/><stop offset="1" stop-color="#78c642"/></linearGradient><linearGradient id="b" x1="1.081" y1="1" x2="0.078" gradientUnits="objectBoundingBox"><stop offset="0" stop-color="#7ac943"/><stop offset="1" stop-color="#fff"/></linearGradient></defs><g transform="translate(-615.098 -278.239)"><path d="M5139.68-2289.266c-3.095,3.095-61.642,26.784-64.488,19.67s1.885-34.609,1.885-34.609l11.382,10.422s22.052-9.923,22.3-14.441" transform="translate(-4278 2885)" fill="#fff" stroke="#39b54a" stroke-linecap="round" stroke-linejoin="round" stroke-width="7"/><g transform="translate(-594.738 -48.484)"><ellipse cx="43.14" cy="45.371" rx="43.14" ry="45.371" transform="translate(1573.243 525.492)" fill="none" stroke="#39b54a" stroke-miterlimit="10" stroke-width="7"/><ellipse cx="23.338" cy="24.545" rx="23.338" ry="24.545" transform="translate(1593.044 546.318)" fill="none" stroke="#39b54a" stroke-miterlimit="10" stroke-width="7"/><ellipse cx="94.461" cy="27.388" rx="94.461" ry="27.388" transform="translate(1413.303 654.68)" opacity="0.42" fill="url(#a)"/><path d="M1558.761,452.351c0-9.858-46.621-22.354-104.13-22.354s-104.13,12.5-104.13,22.354c0,.5.042,117.519.042,117.519.887,25.534,47.134,46.115,104.089,46.115s103.2-20.581,104.089-46.115C1558.719,569.87,1558.761,452.852,1558.761,452.351Z" transform="translate(57.621 50.827)" fill="#fff" stroke="#39b54a" stroke-miterlimit="10" stroke-width="7"/><rect width="11.901" height="20.826" rx="5.95" transform="translate(1431.923 559.706)" fill="none" stroke="#39b54a" stroke-miterlimit="10" stroke-width="7"/><rect width="11.901" height="22.314" rx="5.95" transform="translate(1495.889 565.656)" fill="none" stroke="#39b54a" stroke-miterlimit="10" stroke-width="7"/><path d="M1590.869,424.336s-14.876,5.95-31.239-8.925-8.926-71.4-58.016-83.3-44.627,37.189-46.115,44.627" transform="translate(108.817 0)" fill="none" stroke="#39b54a" stroke-linecap="round" stroke-linejoin="round" stroke-width="7"/><path d="M78.1-5.187c43.132,0,78.1,9.849,78.1,15.6S121.23,24.449,78.1,24.449,0,16.164,0,10.413,34.966-5.187,78.1-5.187Z" transform="translate(1434.154 501.253)" stroke="#39b54a" stroke-width="7" fill="url(#b)"/><path d="M1235.79,501.964l31.376-8.655a4.714,4.714,0,0,1,2.707.058l34.085,10.995a4.723,4.723,0,0,1,3.274,4.5V549.2a4.722,4.722,0,0,1-3.545,4.574l-33.631,8.68a4.719,4.719,0,0,1-2.987-.21l-31.83-13.171a4.724,4.724,0,0,1-2.919-4.365V506.519A4.725,4.725,0,0,1,1235.79,501.964Z" transform="translate(-18 78.418)" fill="#fff" stroke="#39b54a" stroke-linecap="round" stroke-linejoin="round" stroke-width="7"/><path d="M1294.395,501.176l-34.256,9.36a4.723,4.723,0,0,0-3.478,4.558V558.93" transform="translate(-6.132 82.337)" fill="#fff" stroke="#39b54a" stroke-linecap="round" stroke-linejoin="round" stroke-width="7"/><line x2="27.467" y2="9.988" transform="translate(1214.322 581.339)" stroke-width="7" stroke="#39b54a" stroke-linecap="round" stroke-linejoin="round" fill="#fff"/><path d="M1293.468,496.084l20.335-5.61a4.728,4.728,0,0,1,2.708.058l22.281,7.188a4.724,4.724,0,0,1,3.274,4.5v25.873a4.722,4.722,0,0,1-3.543,4.574l-21.829,5.633a4.729,4.729,0,0,1-2.987-.208l-20.787-8.6a4.724,4.724,0,0,1-2.919-4.366V500.639A4.725,4.725,0,0,1,1293.468,496.084Z" transform="translate(10.123 77.036)" fill="#fff" stroke="#39b54a" stroke-linecap="round" stroke-linejoin="round" stroke-width="7"/><path d="M1333.143,495.849l-22.748,6.217a4.723,4.723,0,0,0-3.478,4.556V535.99" transform="translate(18.371 79.74)" fill="#fff" stroke="#39b54a" stroke-linecap="round" stroke-linejoin="round" stroke-width="7"/><line x2="11.282" y2="3.685" transform="translate(1314.873 580.31)" stroke-width="7" stroke="#39b54a" stroke-linecap="round" stroke-linejoin="round" fill="#fff"/><path d="M1261.468,459.084l20.335-5.61a4.728,4.728,0,0,1,2.708.058l22.281,7.188a4.724,4.724,0,0,1,3.274,4.5v25.873a4.722,4.722,0,0,1-3.543,4.574l-21.829,5.633a4.729,4.729,0,0,1-2.987-.208l-20.787-8.6a4.724,4.724,0,0,1-2.919-4.366V463.639A4.725,4.725,0,0,1,1261.468,459.084Z" transform="translate(-5.48 58.996)" fill="#fff" stroke="#39b54a" stroke-linecap="round" stroke-linejoin="round" stroke-width="7"/><path d="M1301.143,458.849l-22.748,6.217a4.723,4.723,0,0,0-3.478,4.556V498.99" transform="translate(2.769 61.699)" fill="#fff" stroke="#39b54a" stroke-linecap="round" stroke-linejoin="round" stroke-width="7"/><line x2="19.091" y2="6.942" transform="translate(1259.239 521.48)" stroke-width="7" stroke="#39b54a" stroke-linecap="round" stroke-linejoin="round" fill="#fff"/><path d="M1446.252,371.039s8.191-9.053,13.949-10.54c0,0,9.458,6.58,11.328,12.216S1446.252,371.039,1446.252,371.039Z" transform="translate(104.308 -3.254)" fill="#fff" stroke="#39b54a" stroke-linecap="round" stroke-linejoin="round" stroke-width="7"/><path d="M1553.913,376.988l31.239-1.488s8.926,34.214,1.488,46.115h-29.752L1543.5,402.276Z" transform="translate(151.724 22.06)" fill="#fff" stroke="#39b54a" stroke-miterlimit="10" stroke-width="7"/><path d="M1423.646,371.922s-4.463,58.016,14.876,80.329c0,0,66.941,13.388,80.329,11.9,0,0-7.438-78.842-4.463-87.767C1514.388,376.384,1468.273,360.021,1423.646,371.922Z" transform="translate(93.069 1.201)" fill="#fff" stroke="#39b54a" stroke-linecap="round" stroke-linejoin="round" stroke-width="7"/></g><path d="M5015.4-2331.179a29.137,29.137,0,0,0,6.105,3.547c5.8,2.642,16.366,5.5,30.392,1.768" transform="translate(-4161 2901)" fill="none" stroke="#39b54a" stroke-linecap="round" stroke-width="7"/><g transform="translate(951 352)" fill="#fff" stroke="#39b54a" stroke-width="7"><ellipse cx="17" cy="15.5" rx="17" ry="15.5" stroke="none"/><ellipse cx="17" cy="15.5" rx="13.5" ry="12" fill="none"/></g><path d="M5139.68-2289.266c-3.095,3.095-61.642,26.784-64.488,19.67s1.885-34.609,1.885-34.609l11.382,10.422s22.052-9.923,22.3-14.441" transform="translate(-4174 2901)" fill="#fff" stroke="#39b54a" stroke-linecap="round" stroke-linejoin="round" stroke-width="7"/></g></svg>