<svg xmlns="http://www.w3.org/2000/svg" xmlns:xlink="http://www.w3.org/1999/xlink" width="341.35" height="352.432" viewBox="0 0 341.35 352.432"><defs><linearGradient id="a" x1="0.5" x2="0.5" y2="1" gradientUnits="objectBoundingBox"><stop offset="0" stop-color="#3aaf69"/><stop offset="1" stop-color="#81e169"/></linearGradient></defs><g transform="translate(-291 -353.463)"><path d="M233.751,165.394C217.978,219.723,52.929,260.464,14,219.413S24.2,22.149,77.1,2.1,249.523,111.065,233.751,165.394Z" transform="matrix(0.695, 0.719, -0.719, 0.695, 460.879, 372.676)" fill="url(#a)"/><path d="M1445.753-236.236c-11.22,38.647-128.628,67.628-156.318,38.427s7.25-140.324,44.881-154.589S1456.973-274.883,1445.753-236.236Z" transform="translate(-814.415 785.63)" fill="#3aaf69" opacity="0.6"/><g transform="translate(391.257 353.463)"><path d="M1138.9,115.142h-6.132l-7.017-18.379a14.076,14.076,0,0,1,13.149-19.1h0Z" transform="translate(-1115.236 -18.726)" fill="#8d7b6c"/><path d="M1201.714,115.142h6.133l7.017-18.379a14.076,14.076,0,0,0-13.15-19.1h0Z" transform="translate(-1034.933 -18.726)" fill="#8d7b6c"/><path d="M1310.288,190.944h.029L1287.3,109.215a73.162,73.162,0,0,0-144.074,0l-23.015,81.729h.029a8.4,8.4,0,0,0-.115,1.321c0,9.3,15.519,17.535,39.379,22.6,7.723,1.641,21.384,10.67,33.25,19.405a37.958,37.958,0,0,0,45-.016c11.836-8.724,25.451-17.733,33.16-19.366,23.919-5.065,39.483-13.312,39.483-22.625A8.366,8.366,0,0,0,1310.288,190.944Z" transform="translate(-1120.125 -48.833)" fill="#534742"/><path d="M1182.791,109.5a32.443,32.443,0,0,0-31.893,26.574h63.786A32.439,32.439,0,0,0,1182.791,109.5Z" transform="translate(-1087.993 14.512)" fill="#bca695"/><path d="M1181.705,147.241a30.279,30.279,0,0,0,29.769-24.8h-59.536A30.279,30.279,0,0,0,1181.705,147.241Z" transform="translate(-1086.907 28.021)" fill="#8d7b6c"/><ellipse cx="25.041" cy="25.041" rx="25.041" ry="25.041" transform="translate(45.739 70.353)" fill="#fff"/><ellipse cx="25.041" cy="25.041" rx="25.041" ry="25.041" transform="translate(94.287 70.353)" fill="#fff"/><ellipse cx="4.599" cy="4.599" rx="4.599" ry="4.599" transform="translate(66.18 90.795)"/><ellipse cx="4.599" cy="4.599" rx="4.599" ry="4.599" transform="translate(114.729 90.795)"/><path d="M1196.611,117.923H1156.75s8.88-27.684,13.622-30.343c2.611-1.464,10.178-1.619,12.61,0C1187.476,90.568,1196.611,117.923,1196.611,117.923Z" transform="translate(-1081.883 -9.583)" fill="#fff"/><path d="M1251.6,99.918c0-13.348-25.168-24.168-56.214-24.168s-56.214,10.82-56.214,24.168c0,.292.026.583.051.873h112.326C1251.569,100.5,1251.6,100.21,1251.6,99.918Z" transform="translate(-1100.242 -20.728)" fill="#8d7b6c"/><path d="M1177.482,139.532c10.168-.059,24.316-25.865,20.335-35.221s-35.586-8.8-40.67,0S1167.315,139.591,1177.482,139.532Z" transform="translate(-1082.523 1.983)" fill="#ffcf12"/><path d="M1171.982,107.545c5.928,0,10.732-3.089,10.732-6.9a4.727,4.727,0,0,0-.661-2.3,50.5,50.5,0,0,0-20.339.409,4.623,4.623,0,0,0-.464,1.895C1161.25,104.456,1166.056,107.545,1171.982,107.545Z" transform="translate(-1077.184 1.983)" fill="#423f43"/><rect width="7.836" height="29.299" rx="1.917" transform="translate(90.88 93.691)" fill="#fff"/></g></g></svg>