<svg xmlns="http://www.w3.org/2000/svg" xmlns:xlink="http://www.w3.org/1999/xlink" width="1000" height="1000" viewBox="0 0 1000 1000"><defs><linearGradient id="a" x1="0.5" x2="0.5" y2="1" gradientUnits="objectBoundingBox"><stop offset="0" stop-color="#f39700"/><stop offset="1" stop-color="#f39700" stop-opacity="0"/></linearGradient><linearGradient id="b" x1="0.5" x2="0.5" y2="1" gradientUnits="objectBoundingBox"><stop offset="0" stop-color="#fff"/><stop offset="1" stop-color="#fff" stop-opacity="0"/></linearGradient><clipPath id="c"><rect width="1000" height="1000" transform="translate(0 0)" fill="#f39700"/></clipPath></defs><g transform="translate(2939 792)"><rect width="1000" height="1000" transform="translate(-2939 -792)" fill="#f39700"/><g transform="translate(-2762.187 -526.834)"><path d="M318.623,1256.631,489.708,843.173H590.749l171.085,413.458h-102.9l-40.291-95.46H461.814l-40.294,95.46ZM540.538,942.976,481.652,1087.4H599.428Z" transform="translate(-82.329 -843.173)" fill="#fff"/><path d="M450.569,1182.863v73.768H422.082q-40.913,0-62.609-4.339Q283.228,1237.411,251,1167.367q-21.082-47.1-21.077-116.534,0-83.062,32.233-135.136,23.551-37.8,62.918-55.169,39.359-17.342,101.35-17.355H646.809v73.765H436.339q-58.9,0-86.163,31.613-22.94,26.036-22.936,94.224,0,91.744,35.334,120.252,24.786,19.848,77.484,19.835Z" transform="translate(-229.92 -843.173)" fill="#fff"/><path d="M421.737,870.864H461.77L341.129,1065.67Z" transform="translate(-44.882 -797.098)" fill="url(#a)"/></g><path d="M92.105,0l92.105,157.895H0Z" transform="translate(-2794.263 -81.474)" opacity="0.4" fill="url(#b)"/><g transform="translate(-2939 -792)" clip-path="url(#c)"><path d="M210.526,0,421.053,355.263H0Z" transform="translate(26.316 -92.105)" opacity="0.4" fill="url(#b)"/><path d="M411.184,0,822.368,697.368H0Z" transform="translate(585.526 263.158)" opacity="0.4" fill="url(#b)"/></g></g></svg>