<svg xmlns="http://www.w3.org/2000/svg" xmlns:xlink="http://www.w3.org/1999/xlink" width="1000" height="999.8" viewBox="0 0 1000 999.8"><defs><linearGradient id="a" x1="0.5" x2="0.5" y2="1" gradientUnits="objectBoundingBox"><stop offset="0" stop-color="#7cc057"/><stop offset="1" stop-color="#7cc057" stop-opacity="0"/></linearGradient><clipPath id="b"><rect width="1000" height="999.8" transform="translate(0 0)" fill="#7cc057"/></clipPath><linearGradient id="c" x1="0.5" x2="0.5" y2="1" gradientUnits="objectBoundingBox"><stop offset="0" stop-color="#fff"/><stop offset="1" stop-color="#fff" stop-opacity="0"/></linearGradient></defs><g transform="translate(2939 1027)"><rect width="1000" height="999.8" transform="translate(-2939 -1027)" fill="#7cc057"/><g transform="translate(-2788.037 -738.149)"><path d="M348.558,543.173H525.04q66.1,0,102.272,13.1,66.723,24.32,89.178,89.175,16.835,49.9,16.835,106.637,0,56.126-16.214,106.016-16.224,51.141-53.628,75.456a147.122,147.122,0,0,1-52.074,20.266q-28.384,5.306-86.369,5.3H348.558Zm88.553,74.21V884.911H525.04q58,0,80.447-25.567,13.708-16.208,22.139-45.524a224.959,224.959,0,0,0,8.418-62.359q0-36.791-9.978-67.353-9.985-30.543-26.193-45.524-23.706-21.193-74.832-21.2Z" transform="translate(-25.926 -543.173)" fill="#fff"/><path d="M493.028,884.911v74.21H421.49q-41.16,0-62.987-4.366-76.7-14.966-109.13-85.434-21.209-47.387-21.2-117.239,0-83.558,32.427-135.947,23.693-38.029,63.3-55.5,39.6-17.451,101.961-17.46h188.33v74.21H435.833q-59.253,0-86.683,31.8-23.078,26.194-23.074,94.79,0,92.3,35.547,120.98,24.935,19.967,77.951,19.955Z" transform="translate(-228.17 -543.173)" fill="#fff"/><path d="M348.558,570.864h63.384L348.558,810.636Z" transform="translate(-32.504 -496.654)" fill="url(#a)"/></g><g transform="translate(-2939 -1027)" clip-path="url(#b)"><rect width="144.645" height="756.507" rx="22" transform="matrix(0.616, 0.788, -0.788, 0.616, 596.049, -100.292)" opacity="0.4" fill="url(#c)"/><rect width="52.595" height="309.182" rx="22" transform="matrix(0.616, 0.788, -0.788, 0.616, 809.978, 363.093)" opacity="0.4" fill="url(#c)"/><rect width="210.393" height="1098.58" rx="22" transform="matrix(0.616, 0.788, -0.788, 0.616, 1296.115, 360.489)" opacity="0.4" fill="url(#c)"/></g></g></svg>