<svg xmlns="http://www.w3.org/2000/svg" width="148.073" height="298.063" viewBox="0 0 148.073 298.063"><g transform="translate(-711.815 -5419.262)"><path d="M1978.181,1594.116c-12.948-.288-25.908-.173-38.863-.039-15.008.148-28.537,9.885-31.4,24.7-.549,2.712-.361,2.813-.515,3.415,0,1.027-.01,11.888,0,12.738.065,13.023-.442,26.082.33,39.062,1.391,23.307,17.927,44.582,42.18,49.326,19.638,3.841,40.285-5.6,51.528-23.69a56.647,56.647,0,0,0,8.635-30.227c.04-11.5.007-23.009.007-34.517v-12.725a32.75,32.75,0,0,0-7.375-16C1996.3,1598.55,1988.069,1594.339,1978.181,1594.116Z" transform="translate(-1172.847 3966.44)" fill="none" stroke="#2d75cd" stroke-miterlimit="10" stroke-width="3"/><path d="M2029.892,1625.7c.076-9.908.164-19.819.21-29.727.013-3.357-.7-4.018-4.13-4.018q-58.94,0-117.885,0c-3.524,0-4.342.828-4.349,4.365q-.02,14.219,0,28.44c0,.691-.007,1.3-.007,2.1V1639.7c0,13.167-.14,26.337.032,39.5.272,19.282,8.04,35.184,22.771,47.474,15.984,13.336,34.608,16.671,54.62,12.7,27.887-5.536,48.975-31.585,48.947-60.016-.013-13.671-.128-27.341-.21-41.011-.006-.484-.072-11.085-.114-11.524h.032C2029.847,1626.383,2029.886,1626.038,2029.892,1625.7Z" transform="translate(-1181.074 3961.921)" fill="none"/><path d="M2029.892,1625.7c.076-9.908.164-19.819.21-29.727.013-3.357-.7-4.018-4.13-4.018q-58.94,0-117.885,0c-3.524,0-4.342.828-4.349,4.365q-.02,14.219,0,28.44c0,.691-.007,1.3-.007,2.1V1639.7c0,13.167-.14,26.337.032,39.5.272,19.282,8.04,35.184,22.771,47.474,15.984,13.336,34.608,16.671,54.62,12.7,27.887-5.536,48.975-31.585,48.947-60.016-.013-13.671-.128-27.341-.21-41.011-.006-.484-.072-11.085-.114-11.524h.032C2029.847,1626.383,2029.886,1626.038,2029.892,1625.7Z" transform="translate(-1181.074 3961.921)" fill="none"/><path d="M2000.913,1613.272c0,5.929.317,11.91-.255,17.784-1.09,11.043-7.33,19.131-16.334,25.123-10.651,7.091-22.489,9.551-35.135,8.275-12.054-1.217-22.669-5.614-31.121-14.524a31.941,31.941,0,0,1-9.214-22.921c.059-8.612.249-17.23-.049-25.833-.364-10.837,3.691-20.018,10.353-28.025,21.958-26.412,62.846-21.15,77.727,9.787a37.328,37.328,0,0,1,4.06,17.96c-.16,4.119-.032,8.249-.032,12.375Zm-1.878.956h0c-.373-6.773-.108-13.654-1.237-20.3-3.924-23.156-26.733-39.065-50.206-34.795-22.223,4.038-36.454,21.448-36.506,44-.023,7.814.039,15.625-.023,23.438a30.429,30.429,0,0,0,9.218,22.423c8.2,8.265,18.366,12.3,29.828,13.3,12.548,1.1,24.16-1.6,34.444-9.024,7.9-5.713,13.157-13.255,13.962-23.192C1998.934,1624.832,1999.035,1619.508,1999.035,1614.227Z" transform="translate(-1169.475 3880.629)" fill="#79b443" fill-rule="evenodd"/><path d="M2029.892,1625.7c.076-9.908.164-19.819.21-29.727.013-3.357-.7-4.018-4.13-4.018q-58.94,0-117.885,0c-3.524,0-4.342.828-4.349,4.365q-.02,14.219,0,28.44c0,.691-.007,1.3-.007,2.1V1639.7c0,13.167-.14,26.337.032,39.5.272,19.282,8.04,35.184,22.771,47.474,15.984,13.336,34.608,16.671,54.62,12.7,27.887-5.536,48.975-31.585,48.947-60.016-.013-13.671-.128-27.341-.21-41.011-.006-.484-.072-11.085-.114-11.524h.032C2029.847,1626.383,2029.886,1626.038,2029.892,1625.7Z" transform="translate(-1181.074 3961.921)" fill="none"/><path d="M1970.031,1667.968c-31.8,1.535-53.275-13.863-66-42.681a56.892,56.892,0,0,0,7.071,19.086c14.56,24.308,38.989,33.634,66.053,29.864,15.218-2.117,27.792-9.332,37.762-21.006a60.074,60.074,0,0,0,13.415-28.32C2017.031,1651.048,1998.393,1666.594,1970.031,1667.968Z" transform="translate(-1180.28 4036.813)" fill="none"/><path d="M1948.526,1660.723c12.548,1.1,24.16-1.594,34.445-9.024,7.9-5.713,13.157-13.255,13.962-23.192.419-5.248.52-10.572.52-15.853-.373-6.773-.108-13.654-1.237-20.3-3.924-23.156-26.733-39.065-50.206-34.795-22.223,4.038-36.454,21.448-36.51,44-.019,7.814.043,15.624-.019,23.438a30.429,30.429,0,0,0,9.218,22.423C1926.9,1655.684,1937.064,1659.722,1948.526,1660.723Z" transform="translate(-1167.894 3882.203)" fill="none"/><path d="M2029.892,1625.7c.076-9.908.164-19.819.21-29.727.013-3.357-.7-4.018-4.13-4.018q-58.94,0-117.885,0c-3.524,0-4.342.828-4.349,4.365q-.02,14.219,0,28.44c0,.691-.007,1.3-.007,2.1V1639.7c0,13.167-.14,26.337.032,39.5.272,19.282,8.04,35.184,22.771,47.474,15.984,13.336,34.608,16.671,54.62,12.7,27.887-5.536,48.975-31.585,48.947-60.016-.013-13.671-.128-27.341-.21-41.011-.006-.484-.072-11.085-.114-11.524h.032C2029.847,1626.383,2029.886,1626.038,2029.892,1625.7Z" transform="translate(-1181.074 3961.921)" fill="none"/><path d="M1970.031,1667.968c-31.8,1.535-53.275-13.863-66-42.681a56.892,56.892,0,0,0,7.071,19.086c14.56,24.308,38.989,33.634,66.053,29.864,15.218-2.117,27.792-9.332,37.762-21.006a60.074,60.074,0,0,0,13.415-28.32C2017.031,1651.048,1998.393,1666.594,1970.031,1667.968Z" transform="translate(-1180.28 4036.813)" fill="none"/><path d="M1970.031,1667.968c-31.8,1.535-53.275-13.863-66-42.681a56.892,56.892,0,0,0,7.071,19.086c14.56,24.308,38.989,33.634,66.053,29.864,15.218-2.117,27.792-9.332,37.762-21.006a60.074,60.074,0,0,0,13.415-28.32C2017.031,1651.048,1998.393,1666.594,1970.031,1667.968Z" transform="translate(-1180.28 4036.813)" fill="none"/><path d="M2029.892,1625.7c.076-9.908.164-19.819.21-29.727.013-3.357-.7-4.018-4.13-4.018q-58.94,0-117.885,0c-3.524,0-4.342.828-4.349,4.365q-.02,14.219,0,28.44c0,.691-.007,1.3-.007,2.1V1639.7c0,13.167-.14,26.337.032,39.5.272,19.282,8.04,35.184,22.771,47.474,15.984,13.336,34.608,16.671,54.62,12.7,27.887-5.536,48.975-31.585,48.947-60.016-.013-13.671-.128-27.341-.21-41.011-.006-.484-.072-11.085-.114-11.524h.032C2029.847,1626.383,2029.886,1626.038,2029.892,1625.7Z" transform="translate(-1181.074 3961.921)" fill="none"/><path d="M1948.526,1660.723c12.548,1.1,24.16-1.594,34.445-9.024,7.9-5.713,13.157-13.255,13.962-23.192.419-5.248.52-10.572.52-15.853-.373-6.773-.108-13.654-1.237-20.3-3.924-23.156-26.733-39.065-50.206-34.795-22.223,4.038-36.454,21.448-36.51,44-.019,7.814.043,15.624-.019,23.438a30.429,30.429,0,0,0,9.218,22.423C1926.9,1655.684,1937.064,1659.722,1948.526,1660.723Z" transform="translate(-1167.894 3882.203)" fill="none"/><path d="M1946.01,1557.556c-22.223,4.038-36.454,21.448-36.51,44-.019,7.814.043,15.624-.019,23.438a30.429,30.429,0,0,0,9.218,22.423c8.2,8.265,18.366,12.3,29.828,13.3,12.548,1.1,24.16-1.594,34.445-9.024,7.9-5.713,13.157-13.255,13.962-23.192.419-5.248.52-10.572.52-15.853-.373-6.773-.108-13.654-1.237-20.3C1992.292,1569.194,1969.483,1553.286,1946.01,1557.556Z" transform="translate(-1167.894 3882.203)" fill="none"/><path d="M1996.885,1582.937c-14.881-30.937-55.769-36.2-77.727-9.787-6.662,8.007-10.716,17.188-10.353,28.025.3,8.6.108,17.221.049,25.833a31.956,31.956,0,0,0,9.214,22.921c8.452,8.91,19.066,13.307,31.121,14.524,12.646,1.277,24.484-1.184,35.135-8.275,9-5.991,15.244-14.079,16.334-25.123.572-5.873.1-11.854.1-17.784h.154c0-4.126-.128-8.255.032-12.375A37.37,37.37,0,0,0,1996.885,1582.937Zm1.629,47.144c-.8,9.937-6.06,17.479-13.962,23.192-10.284,7.43-21.9,10.123-34.444,9.024-11.462-1-21.628-5.039-29.828-13.3a30.429,30.429,0,0,1-9.218-22.423c.062-7.813,0-15.624.019-23.438.056-22.554,14.286-39.964,36.51-44,23.473-4.27,46.282,11.639,50.206,34.795,1.129,6.649.864,13.53,1.237,20.3C1999.035,1619.508,1998.934,1624.832,1998.515,1630.081Z" transform="translate(-1169.475 3880.629)" fill="#2d75cd"/><path d="M1970.031,1667.968c-31.8,1.535-53.275-13.863-66-42.681a56.892,56.892,0,0,0,7.071,19.086c14.56,24.308,38.989,33.634,66.053,29.864,15.218-2.117,27.792-9.332,37.762-21.006a60.074,60.074,0,0,0,13.415-28.32C2017.031,1651.048,1998.393,1666.594,1970.031,1667.968Z" transform="translate(-1180.28 4036.813)" fill="none"/><path d="M1908.854,1627.008a31.956,31.956,0,0,0,9.214,22.921c8.452,8.91,19.066,13.307,31.121,14.524,12.646,1.277,24.484-1.184,35.135-8.275,9-5.991,15.244-14.079,16.334-25.123.572-5.873.1-11.854.1-17.784h.154c0-4.126-.128-8.255.032-12.375a37.37,37.37,0,0,0-4.06-17.96c-14.881-30.937-55.769-36.2-77.727-9.787-6.662,8.007-10.716,17.188-10.353,28.025C1909.1,1609.777,1908.913,1618.4,1908.854,1627.008Z" transform="translate(-1169.475 3880.629)" fill="none"/><path d="M2029.892,1625.7c.076-9.908.164-19.819.21-29.727.013-3.357-.7-4.018-4.13-4.018q-58.94,0-117.885,0c-3.524,0-4.342.828-4.349,4.365q-.02,14.219,0,28.44c0,.691-.007,1.3-.007,2.1V1639.7c0,13.167-.14,26.337.032,39.5.272,19.282,8.04,35.184,22.771,47.474,15.984,13.336,34.608,16.671,54.62,12.7,27.887-5.536,48.975-31.585,48.947-60.016-.013-13.671-.128-27.341-.21-41.011-.006-.484-.072-11.085-.114-11.524h.032C2029.847,1626.383,2029.886,1626.038,2029.892,1625.7Z" transform="translate(-1181.074 3961.921)" fill="none"/><path d="M1907.935,1679.339q29.208.005,58.4,0h57.532c4.711,0,5.726-.995,5.726-5.716q.01-28.766,0-57.529a63.917,63.917,0,0,0-2.418-18.644c-6.485-21.386-19.789-36.238-41.512-42.873-7.735-2.362-15.731-1.992-23.683-1.94a52.045,52.045,0,0,0-26.886,7.228c-20.323,12.211-30.485,30.614-31.107,54.005-.533,20.457-.115,40.934-.115,61.4C1903.871,1678.6,1904.6,1679.339,1907.935,1679.339Z" transform="translate(-1180.99 3872.491)" fill="none"/><path d="M1970.031,1667.968c-31.8,1.535-53.275-13.863-66-42.681a56.892,56.892,0,0,0,7.071,19.086c14.56,24.308,38.989,33.634,66.053,29.864,15.218-2.117,27.792-9.332,37.762-21.006a60.074,60.074,0,0,0,13.415-28.32C2017.031,1651.048,1998.393,1666.594,1970.031,1667.968Z" transform="translate(-1180.28 4036.813)" fill="none"/><path d="M2029.892,1625.7c.076-9.908.164-19.819.21-29.727.013-3.357-.7-4.018-4.13-4.018q-58.94,0-117.885,0c-3.524,0-4.342.828-4.349,4.365q-.02,14.219,0,28.44c0,.691-.007,1.3-.007,2.1V1639.7c0,13.167-.14,26.337.032,39.5.272,19.282,8.04,35.184,22.771,47.474,15.984,13.336,34.608,16.671,54.62,12.7,27.887-5.536,48.975-31.585,48.947-60.016-.013-13.671-.128-27.341-.21-41.011-.006-.484-.072-11.085-.114-11.524h.032C2029.847,1626.383,2029.886,1626.038,2029.892,1625.7Z" transform="translate(-1181.074 3961.921)" fill="none"/><rect width="0.692" height="10.149" transform="translate(717.104 5540.517)" fill="none"/><path d="M1907.935,1679.339q29.208.005,58.4,0h57.532c4.711,0,5.726-.995,5.726-5.716q.01-28.766,0-57.529a63.917,63.917,0,0,0-2.418-18.644c-6.485-21.386-19.789-36.238-41.512-42.873-7.735-2.362-15.731-1.992-23.683-1.94a52.045,52.045,0,0,0-26.886,7.228c-20.323,12.211-30.485,30.614-31.107,54.005-.533,20.457-.115,40.934-.115,61.4C1903.871,1678.6,1904.6,1679.339,1907.935,1679.339Z" transform="translate(-1180.99 3872.491)" fill="none"/><path d="M1970.031,1667.968c-31.8,1.535-53.275-13.863-66-42.681a56.892,56.892,0,0,0,7.071,19.086c14.56,24.308,38.989,33.634,66.053,29.864,15.218-2.117,27.792-9.332,37.762-21.006a60.074,60.074,0,0,0,13.415-28.32C2017.031,1651.048,1998.393,1666.594,1970.031,1667.968Z" transform="translate(-1180.28 4036.813)" fill="none"/><path d="M2029.892,1625.7c.076-9.908.164-19.819.21-29.727.013-3.357-.7-4.018-4.13-4.018q-58.94,0-117.885,0c-3.524,0-4.342.828-4.349,4.365q-.02,14.219,0,28.44c0,.691-.007,1.3-.007,2.1V1639.7c0,13.167-.14,26.337.032,39.5.272,19.282,8.04,35.184,22.771,47.474,15.984,13.336,34.608,16.671,54.62,12.7,27.887-5.536,48.975-31.585,48.947-60.016-.013-13.671-.128-27.341-.21-41.011-.006-.484-.072-11.085-.114-11.524h.032C2029.847,1626.383,2029.886,1626.038,2029.892,1625.7Z" transform="translate(-1181.074 3961.921)" fill="none"/><path d="M2048.418,1669.9c-.033-3.285-.825-4.087-4.008-4.335-.56-.046-1.122-.17-1.826-.281v-2.445c0-13.68.075-27.357-.032-41.034a87.6,87.6,0,0,0-.874-13.4c-3.452-21.406-14.135-38.136-33-49.179-16.138-9.443-33.777-9.869-51.368-6.489-28.6,5.491-49.473,31.785-50.949,61.462-.8,16.171-.262,32.41-.331,48.623v2.742c-.6.055-.88.1-1.161.111-3.842.1-4.476.745-4.476,4.626q-.01,6.194-.007,12.375c0,5.141.007,5.141,4.967,6.1.118.019.219.144.32.222v27.057l.141,18.029v2.375q0,22.474.02,44.945a71.687,71.687,0,0,0,.36,7.358c1.966,19.057,10.6,34.491,25.682,46.2,16.651,12.928,35.776,15.988,56.047,12.67a66.1,66.1,0,0,0,55.108-65.166q.01-23.014,0-46.028v-2.926l.078-16.834v-27.764c5.261-.984,5.33-1.063,5.343-6.422C2048.454,1678.292,2048.468,1674.095,2048.418,1669.9Zm-136.857-51.99c.622-23.391,10.784-41.794,31.107-54.005a52.046,52.046,0,0,1,26.886-7.228c7.951-.052,15.948-.422,23.683,1.94,21.723,6.636,35.027,21.488,41.512,42.873a63.917,63.917,0,0,1,2.418,18.644q.01,28.767,0,57.53c0,4.721-1.015,5.716-5.726,5.716h-57.532q-29.2-.005-58.4,0c-3.335,0-4.064-.736-4.064-4.063C1911.447,1658.844,1911.028,1638.367,1911.562,1617.91Zm-5.2,64.3h-.694v-10.146h.694Zm116.838,139.38c-9.969,11.674-22.544,18.889-37.762,21.006-27.063,3.769-51.492-5.556-66.053-29.864a56.9,56.9,0,0,1-7.071-19.086c12.728,28.817,34.2,44.216,66,42.681,28.362-1.374,47-16.92,58.3-43.056A60.07,60.07,0,0,1,2023.2,1821.592Zm14.184-89.779c.082,13.67.2,27.341.21,41.011.029,28.431-21.059,54.48-48.946,60.016-20.012,3.972-38.637.638-54.621-12.7-14.731-12.29-22.5-28.192-22.771-47.474-.173-13.167-.032-26.337-.032-39.5v-12.843c0-.8.007-1.407.007-2.1q-.01-14.219,0-28.44c.007-3.537.824-4.361,4.349-4.365q58.937,0,117.885,0c3.433,0,4.143.661,4.13,4.018-.046,9.908-.134,19.819-.21,29.727-.006.343-.045.688-.081,1.125h-.033C2037.313,1720.728,2037.378,1731.329,2037.385,1731.813Zm5.788-49.588h-.694v-9.5h.694Z" transform="translate(-1188.566 3868.453)" fill="#2d75cd"/><path d="M1937.844,1613.444c-.059-.079-.219-.085-.291-.154a2.348,2.348,0,0,0-.242-2.978c-1.491-1.812-3.733-.638-5.971,0-1.554.445-.953,1.852-.436,2.677a11.209,11.209,0,0,0-1.482.455c-2.022.893-1.812,3.158-2.186,4.447s-3.89-.223-5.88,0-1.335,7.529-1.335,7.529l9.077-4.552,11.445-4.116S1939.123,1615.109,1937.844,1613.444Z" transform="translate(-1143.524 4001.448)" fill="#2d75cd"/><g transform="translate(745.54 5590.273)"><path d="M1920.059,1629.319c2.231-.039,9.629-6.214,11.861-6.256,4.411-.079,6.59-1.231,10.84-2.415s5.513-8.56,7.775-12.346a1.761,1.761,0,0,1,.582-.69c.893-.494,1.662.785,2.064,1.721,1.178,2.742,3.9,4.493,5.51,7.005a32.982,32.982,0,0,0,2.47,4.146c1.063,1.214,2.945,1.967,4.3,1.09" transform="translate(-1889.397 -1593.012)" fill="none" stroke="#2d75cd" stroke-miterlimit="10" stroke-width="2"/><path d="M1954.582,1614.872l7.545-2.915a22.391,22.391,0,0,0,3.239,6.805,5.659,5.659,0,0,0-2.084,1.767l-12.215,14.348a5.631,5.631,0,0,1-1.355,1.276,4.653,4.653,0,0,1-1.767.523c-2.876.376-5.782-.239-8.677-.337-5.86-.2-11.619,1.734-16.816,4.446" transform="translate(-1883.955 -1582.891)" fill="none" stroke="#2d75cd" stroke-miterlimit="10" stroke-width="2"/><path d="M1923.947,1610.6a40.429,40.429,0,0,1,1.424,9.123,13.56,13.56,0,0,1-.311,4.018,16.28,16.28,0,0,1-2.238,4.44l-4.9,7.65a62.833,62.833,0,0,0,13.955,8.645" transform="translate(-1894.24 -1585.979)" fill="none" stroke="#2d75cd" stroke-miterlimit="10" stroke-width="2"/><path d="M1935.768,1648.248c-3.727-.753-6.689-3.5-9.335-6.23a149.849,149.849,0,0,1-15.746-19.229l6.191-2.552a2.732,2.732,0,0,0,1.2-.762,2.822,2.822,0,0,0,.4-1.6,53.915,53.915,0,0,1,2.647-14q8.751,3.455,17.784,6.141" transform="translate(-1910.688 -1601.267)" fill="none" stroke="#2d75cd" stroke-miterlimit="10" stroke-width="2"/><path d="M1918.076,1613.5a27.272,27.272,0,0,0,3.033-1.266l3.685-1.712c2.843-1.322,5.755-2.689,7.934-4.947l-6.708-1.387" transform="translate(-1893.902 -1600.536)" fill="none" stroke="#2d75cd" stroke-miterlimit="10" stroke-width="2"/><path d="M1921.216,1606.81a5.685,5.685,0,0,0,4.794-3.737c2.523,2.183,6.017,2.821,9.345,2.984s6.718-.055,9.947.759a9.753,9.753,0,0,0,.507,6.832,71.966,71.966,0,0,0-8.376,5.1,3.276,3.276,0,0,0,2.431,2.608,9.572,9.572,0,0,0,3.753.124" transform="translate(-1886.768 -1603.074)" fill="none" stroke="#2d75cd" stroke-miterlimit="10" stroke-width="2"/><path d="M1922.354,1616.534l1.217-12.054" transform="translate(-1884.182 -1599.879)" fill="none" stroke="#2d75cd" stroke-miterlimit="10" stroke-width="2"/><path d="M1917.981,1606.91c1.888,3.631,10.628,9.106,12.293,12.845" transform="translate(-1894.118 -1594.359)" fill="none" stroke="#2d75cd" stroke-miterlimit="10" stroke-width="2"/></g><path d="M1931.642,1610.6Z" transform="translate(-1117.54 4004.294)" fill="#79b443"/><circle cx="40.497" cy="40.497" r="40.497" transform="translate(744.919 5585.995)" fill="#2d75cd" opacity="0.36"/><path d="M1932.454,1604.223c1.875,2.592,4.787,6.394,5.985,9.361" transform="translate(-1115.694 3989.81)" fill="none" stroke="#2d75cd" stroke-miterlimit="10" stroke-width="1" opacity="0.36"/><path d="M1931.555,1603.131l1.651,1.76" transform="translate(-1117.737 3987.329)" fill="none" stroke="#2d75cd" stroke-miterlimit="10" stroke-width="1" opacity="0.36"/><circle cx="1.745" cy="1.745" r="1.745" transform="translate(751.654 5653.449)" fill="#2d75cd" opacity="0.36"/></g></svg>