<svg xmlns="http://www.w3.org/2000/svg" width="200.681" height="298.283" viewBox="0 0 200.681 298.283"><g transform="translate(-1891.888 -1267.298)"><path d="M1978.233,1310.6c-12.958-.288-25.928-.173-38.891-.042-15.02.15-28.475,11.6-31.34,26.428-.108.56-.445,1.11-.6,1.713,0,1.028-.01,11.9,0,12.744.065,13.036-.442,26.1.331,39.094,1.391,23.324,17.941,44.611,42.211,49.363,19.653,3.841,40.315-5.6,51.566-23.707a56.7,56.7,0,0,0,8.641-30.25c.04-11.513.007-23.029.007-34.543v-12.737a32.771,32.771,0,0,0-7.381-16.009C1996.37,1315.041,1988.128,1310.827,1978.233,1310.6Z" transform="translate(35.052 98.093)" fill="none" stroke="#2d75cd" stroke-width="3"/><path d="M2029.986,1342.2c.075-9.915.164-19.834.21-29.749.013-3.359-.7-4.017-4.133-4.017q-58.984,0-117.972,0c-3.527,0-4.346.828-4.352,4.368q-.019,14.224,0,28.462c0,.691-.006,1.3-.006,2.1v12.849c0,13.177-.141,26.357.033,39.533.272,19.3,8.046,35.214,22.787,47.513,16,13.347,34.634,16.68,54.661,12.7,27.908-5.54,49.012-31.605,48.983-60.057-.013-13.681-.128-27.361-.21-41.042-.006-.488-.072-11.094-.114-11.536h.033C2029.941,1342.9,2029.98,1342.552,2029.986,1342.2Z" transform="translate(26.817 93.569)" fill="none"/><path d="M2029.986,1342.2c.075-9.915.164-19.834.21-29.749.013-3.359-.7-4.017-4.133-4.017q-58.984,0-117.972,0c-3.527,0-4.346.828-4.352,4.368q-.019,14.224,0,28.462c0,.691-.006,1.3-.006,2.1v12.849c0,13.177-.141,26.357.033,39.533.272,19.3,8.046,35.214,22.787,47.513,16,13.347,34.634,16.68,54.661,12.7,27.908-5.54,49.012-31.605,48.983-60.057-.013-13.681-.128-27.361-.21-41.042-.006-.488-.072-11.094-.114-11.536h.033C2029.941,1342.9,2029.98,1342.552,2029.986,1342.2Z" transform="translate(26.817 93.569)" fill="none"/><path d="M2000.981,1329.8c0,5.933.318,11.916-.255,17.8-1.09,11.052-7.335,19.143-16.346,25.142-10.658,7.092-22.505,9.555-35.161,8.281-12.063-1.218-22.685-5.619-31.143-14.535a31.973,31.973,0,0,1-9.221-22.941c.059-8.615.249-17.243-.049-25.852-.364-10.842,3.694-20.033,10.36-28.042,21.975-26.435,62.893-21.167,77.785,9.793a37.354,37.354,0,0,1,4.064,17.971c-.161,4.126-.034,8.255-.034,12.387Zm-1.879.956h0c-.374-6.778-.108-13.667-1.237-20.321-3.927-23.173-26.753-39.091-50.244-34.82-22.241,4.044-36.481,21.467-36.533,44.035-.024,7.823.039,15.636-.024,23.458a30.446,30.446,0,0,0,9.224,22.437c8.206,8.271,18.38,12.315,29.85,13.317,12.558,1.1,24.179-1.6,34.471-9.034,7.908-5.717,13.167-13.262,13.973-23.21C1999,1341.372,1999.1,1336.044,1999.1,1330.759Z" transform="translate(38.428 12.19)" fill="#79b443" fill-rule="evenodd"/><path d="M2029.986,1342.2c.075-9.915.164-19.834.21-29.749.013-3.359-.7-4.017-4.133-4.017q-58.984,0-117.972,0c-3.527,0-4.346.828-4.352,4.368q-.019,14.224,0,28.462c0,.691-.006,1.3-.006,2.1v12.849c0,13.177-.141,26.357.033,39.533.272,19.3,8.046,35.214,22.787,47.513,16,13.347,34.634,16.68,54.661,12.7,27.908-5.54,49.012-31.605,48.983-60.057-.013-13.681-.128-27.361-.21-41.042-.006-.488-.072-11.094-.114-11.536h.033C2029.941,1342.9,2029.98,1342.552,2029.986,1342.2Z" transform="translate(26.817 93.569)" fill="none"/><path d="M1970.081,1384.488c-31.825,1.532-53.315-13.874-66.053-42.712a56.9,56.9,0,0,0,7.076,19.1c14.572,24.326,39.019,33.662,66.1,29.89,15.23-2.122,27.813-9.339,37.791-21.025a60.125,60.125,0,0,0,13.425-28.337C2017.115,1367.555,1998.464,1383.112,1970.081,1384.488Z" transform="translate(27.611 168.542)" fill="none"/><path d="M1948.554,1377.289c12.558,1.1,24.179-1.6,34.47-9.034,7.908-5.718,13.167-13.262,13.973-23.21.419-5.249.52-10.577.52-15.862-.373-6.778-.108-13.667-1.237-20.322-3.926-23.173-26.753-39.09-50.244-34.817-22.241,4.041-36.481,21.464-36.537,44.032-.02,7.823.043,15.636-.02,23.458a30.445,30.445,0,0,0,9.224,22.437C1926.911,1372.242,1937.085,1376.286,1948.554,1377.289Z" transform="translate(40.011 13.766)" fill="none"/><path d="M2029.986,1342.2c.075-9.915.164-19.834.21-29.749.013-3.359-.7-4.017-4.133-4.017q-58.984,0-117.972,0c-3.527,0-4.346.828-4.352,4.368q-.019,14.224,0,28.462c0,.691-.006,1.3-.006,2.1v12.849c0,13.177-.141,26.357.033,39.533.272,19.3,8.046,35.214,22.787,47.513,16,13.347,34.634,16.68,54.661,12.7,27.908-5.54,49.012-31.605,48.983-60.057-.013-13.681-.128-27.361-.21-41.042-.006-.488-.072-11.094-.114-11.536h.033C2029.941,1342.9,2029.98,1342.552,2029.986,1342.2Z" transform="translate(26.817 93.569)" fill="none"/><path d="M1970.081,1384.488c-31.825,1.532-53.315-13.874-66.053-42.712a56.9,56.9,0,0,0,7.076,19.1c14.572,24.326,39.019,33.662,66.1,29.89,15.23-2.122,27.813-9.339,37.791-21.025a60.125,60.125,0,0,0,13.425-28.337C2017.115,1367.555,1998.464,1383.112,1970.081,1384.488Z" transform="translate(27.611 168.542)" fill="none"/><path d="M1970.081,1384.488c-31.825,1.532-53.315-13.874-66.053-42.712a56.9,56.9,0,0,0,7.076,19.1c14.572,24.326,39.019,33.662,66.1,29.89,15.23-2.122,27.813-9.339,37.791-21.025a60.125,60.125,0,0,0,13.425-28.337C2017.115,1367.555,1998.464,1383.112,1970.081,1384.488Z" transform="translate(27.611 168.542)" fill="none"/><path d="M2029.986,1342.2c.075-9.915.164-19.834.21-29.749.013-3.359-.7-4.017-4.133-4.017q-58.984,0-117.972,0c-3.527,0-4.346.828-4.352,4.368q-.019,14.224,0,28.462c0,.691-.006,1.3-.006,2.1v12.849c0,13.177-.141,26.357.033,39.533.272,19.3,8.046,35.214,22.787,47.513,16,13.347,34.634,16.68,54.661,12.7,27.908-5.54,49.012-31.605,48.983-60.057-.013-13.681-.128-27.361-.21-41.042-.006-.488-.072-11.094-.114-11.536h.033C2029.941,1342.9,2029.98,1342.552,2029.986,1342.2Z" transform="translate(26.817 93.569)" fill="none"/><path d="M1948.554,1377.289c12.558,1.1,24.179-1.6,34.47-9.034,7.908-5.718,13.167-13.262,13.973-23.21.419-5.249.52-10.577.52-15.862-.373-6.778-.108-13.667-1.237-20.322-3.926-23.173-26.753-39.09-50.244-34.817-22.241,4.041-36.481,21.464-36.537,44.032-.02,7.823.043,15.636-.02,23.458a30.445,30.445,0,0,0,9.224,22.437C1926.911,1372.242,1937.085,1376.286,1948.554,1377.289Z" transform="translate(40.011 13.766)" fill="none"/><path d="M1946.037,1274.044c-22.241,4.041-36.481,21.464-36.537,44.032-.02,7.823.043,15.636-.02,23.458a30.445,30.445,0,0,0,9.224,22.437c8.206,8.271,18.38,12.315,29.85,13.318,12.558,1.1,24.179-1.6,34.47-9.034,7.908-5.718,13.167-13.262,13.973-23.21.419-5.249.52-10.577.52-15.862-.373-6.778-.108-13.667-1.237-20.322C1992.354,1285.688,1969.528,1269.771,1946.037,1274.044Z" transform="translate(40.011 13.766)" fill="none"/><path d="M1996.95,1299.445c-14.892-30.96-55.809-36.229-77.785-9.793-6.667,8.009-10.724,17.2-10.36,28.042.3,8.609.108,17.237.049,25.852a31.988,31.988,0,0,0,9.221,22.941c8.458,8.916,19.08,13.317,31.143,14.535,12.656,1.274,24.5-1.189,35.161-8.281,9.011-6,15.256-14.09,16.346-25.142.573-5.881.1-11.863.1-17.8h.153c0-4.132-.127-8.261.034-12.387A37.4,37.4,0,0,0,1996.95,1299.445Zm1.631,47.175c-.806,9.948-6.065,17.492-13.973,23.21-10.291,7.436-21.913,10.131-34.471,9.034-11.47-1-21.644-5.046-29.85-13.317a30.446,30.446,0,0,1-9.224-22.437c.063-7.822,0-15.636.02-23.458.056-22.568,14.3-39.991,36.537-44.032,23.491-4.273,46.317,11.644,50.244,34.817,1.13,6.654.864,13.543,1.237,20.321C1999.1,1336.044,1999,1341.372,1998.581,1346.621Z" transform="translate(38.428 12.19)" fill="#2d75cd"/><path d="M1970.081,1384.488c-31.825,1.532-53.315-13.874-66.053-42.712a56.9,56.9,0,0,0,7.076,19.1c14.572,24.326,39.019,33.662,66.1,29.89,15.23-2.122,27.813-9.339,37.791-21.025a60.125,60.125,0,0,0,13.425-28.337C2017.115,1367.555,1998.464,1383.112,1970.081,1384.488Z" transform="translate(27.611 168.542)" fill="none"/><path d="M1908.854,1343.546a31.988,31.988,0,0,0,9.221,22.941c8.458,8.916,19.08,13.317,31.143,14.535,12.656,1.274,24.5-1.189,35.161-8.281,9.011-6,15.256-14.09,16.346-25.142.573-5.881.1-11.863.1-17.8h.153c0-4.132-.127-8.261.034-12.387a37.4,37.4,0,0,0-4.064-17.971c-14.892-30.96-55.809-36.229-77.785-9.793-6.667,8.009-10.724,17.2-10.36,28.042C1909.1,1326.3,1908.913,1334.931,1908.854,1343.546Z" transform="translate(38.428 12.19)" fill="none"/><path d="M2029.986,1342.2c.075-9.915.164-19.834.21-29.749.013-3.359-.7-4.017-4.133-4.017q-58.984,0-117.972,0c-3.527,0-4.346.828-4.352,4.368q-.019,14.224,0,28.462c0,.691-.006,1.3-.006,2.1v12.849c0,13.177-.141,26.357.033,39.533.272,19.3,8.046,35.214,22.787,47.513,16,13.347,34.634,16.68,54.661,12.7,27.908-5.54,49.012-31.605,48.983-60.057-.013-13.681-.128-27.361-.21-41.042-.006-.488-.072-11.094-.114-11.536h.033C2029.941,1342.9,2029.98,1342.552,2029.986,1342.2Z" transform="translate(26.817 93.569)" fill="none"/><path d="M1909.068,1358.283l-3.4,3.4a26.744,26.744,0,0,1-8.242-31.405c.845-2.069-2.515-2.97-3.35-.923a30.141,30.141,0,0,0,9.172,34.748l-3.31,3.311a.978.978,0,0,0,.691,1.67h9.129a.977.977,0,0,0,.979-.979v-9.129A.978.978,0,0,0,1909.068,1358.283Z" transform="translate(0 138.517)" fill="#2d75cd" fill-rule="evenodd"/><path d="M1949.088,1358.283l3.4,3.4a26.748,26.748,0,0,0,8.238-31.405c-.842-2.069,2.514-2.97,3.35-.923a30.14,30.14,0,0,1-9.172,34.748l3.311,3.311a.978.978,0,0,1-.691,1.67H1948.4a.977.977,0,0,1-.98-.979v-9.129A.979.979,0,0,1,1949.088,1358.283Z" transform="translate(126.301 138.517)" fill="#2d75cd" fill-rule="evenodd"/><path d="M1907.938,1395.922q29.229,0,58.443,0h57.575c4.715,0,5.73-1,5.73-5.72q.01-28.787,0-57.572a63.951,63.951,0,0,0-2.42-18.658c-6.49-21.4-19.8-36.268-41.543-42.909-7.741-2.364-15.744-1.991-23.7-1.942a52.114,52.114,0,0,0-26.906,7.237c-20.338,12.22-30.508,30.636-31.131,54.045-.534,20.469-.115,40.963-.115,61.445C1903.87,1395.186,1904.6,1395.922,1907.938,1395.922Z" transform="translate(26.901 4.042)" fill="none"/><path d="M1970.081,1384.488c-31.825,1.532-53.315-13.874-66.053-42.712a56.9,56.9,0,0,0,7.076,19.1c14.572,24.326,39.019,33.662,66.1,29.89,15.23-2.122,27.813-9.339,37.791-21.025a60.125,60.125,0,0,0,13.425-28.337C2017.115,1367.555,1998.464,1383.112,1970.081,1384.488Z" transform="translate(27.611 168.542)" fill="none"/><path d="M2029.986,1342.2c.075-9.915.164-19.834.21-29.749.013-3.359-.7-4.017-4.133-4.017q-58.984,0-117.972,0c-3.527,0-4.346.828-4.352,4.368q-.019,14.224,0,28.462c0,.691-.006,1.3-.006,2.1v12.849c0,13.177-.141,26.357.033,39.533.272,19.3,8.046,35.214,22.787,47.513,16,13.347,34.634,16.68,54.661,12.7,27.908-5.54,49.012-31.605,48.983-60.057-.013-13.681-.128-27.361-.21-41.042-.006-.488-.072-11.094-.114-11.536h.033C2029.941,1342.9,2029.98,1342.552,2029.986,1342.2Z" transform="translate(26.817 93.569)" fill="none"/><rect width="0.692" height="10.157" transform="translate(1924.99 1388.641)" fill="none"/><path d="M1907.938,1395.922q29.229,0,58.443,0h57.575c4.715,0,5.73-1,5.73-5.72q.01-28.787,0-57.572a63.951,63.951,0,0,0-2.42-18.658c-6.49-21.4-19.8-36.268-41.543-42.909-7.741-2.364-15.744-1.991-23.7-1.942a52.114,52.114,0,0,0-26.906,7.237c-20.338,12.22-30.508,30.636-31.131,54.045-.534,20.469-.115,40.963-.115,61.445C1903.87,1395.186,1904.6,1395.922,1907.938,1395.922Z" transform="translate(26.901 4.042)" fill="none"/><path d="M1970.081,1384.488c-31.825,1.532-53.315-13.874-66.053-42.712a56.9,56.9,0,0,0,7.076,19.1c14.572,24.326,39.019,33.662,66.1,29.89,15.23-2.122,27.813-9.339,37.791-21.025a60.125,60.125,0,0,0,13.425-28.337C2017.115,1367.555,1998.464,1383.112,1970.081,1384.488Z" transform="translate(27.611 168.542)" fill="none"/><path d="M2029.986,1342.2c.075-9.915.164-19.834.21-29.749.013-3.359-.7-4.017-4.133-4.017q-58.984,0-117.972,0c-3.527,0-4.346.828-4.352,4.368q-.019,14.224,0,28.462c0,.691-.006,1.3-.006,2.1v12.849c0,13.177-.141,26.357.033,39.533.272,19.3,8.046,35.214,22.787,47.513,16,13.347,34.634,16.68,54.661,12.7,27.908-5.54,49.012-31.605,48.983-60.057-.013-13.681-.128-27.361-.21-41.042-.006-.488-.072-11.094-.114-11.536h.033C2029.941,1342.9,2029.98,1342.552,2029.986,1342.2Z" transform="translate(26.817 93.569)" fill="none"/><path d="M2048.528,1386.476c-.033-3.288-.825-4.09-4.011-4.342-.56-.043-1.123-.167-1.827-.279v-2.446c0-13.691.075-27.378-.033-41.065a87.655,87.655,0,0,0-.875-13.409c-3.454-21.425-14.146-38.167-33.029-49.218-16.15-9.447-33.8-9.873-51.406-6.491-28.625,5.495-49.509,31.808-50.986,61.5-.8,16.186-.263,32.437-.332,48.662v2.741c-.6.059-.88.1-1.162.111-3.844.1-4.479.75-4.479,4.633q-.01,6.194-.006,12.384c0,5.141.006,5.141,4.971,6.1.118.02.219.144.321.223v27.077l.141,18.039v2.381q0,22.485.02,44.978a71.87,71.87,0,0,0,.36,7.364c1.968,19.067,10.606,34.513,25.7,46.232,16.664,12.941,35.8,16,56.089,12.679a66.148,66.148,0,0,0,55.148-65.211q.01-23.031,0-46.065v-2.924l.079-16.847v-27.784c5.266-.989,5.334-1.064,5.347-6.431C2048.564,1394.875,2048.577,1390.674,2048.528,1386.476Zm-136.958-52.028c.623-23.409,10.793-41.825,31.13-54.045a52.114,52.114,0,0,1,26.906-7.237c7.957-.049,15.96-.422,23.7,1.942,21.74,6.641,35.053,21.507,41.543,42.909a63.956,63.956,0,0,1,2.42,18.658q.01,28.782,0,57.572c0,4.722-1.015,5.72-5.73,5.72h-57.575q-29.22,0-58.443,0c-3.337,0-4.068-.737-4.068-4.07C1911.454,1375.411,1911.036,1354.917,1911.569,1334.448Zm-5.2,64.35h-.694v-10.158h.694Zm116.924,139.479c-9.977,11.687-22.561,18.9-37.791,21.025-27.083,3.772-51.53-5.563-66.1-29.89a56.907,56.907,0,0,1-7.076-19.1c12.737,28.838,34.228,44.244,66.053,42.712,28.383-1.375,47.035-16.933,58.341-43.089A60.126,60.126,0,0,1,2023.291,1538.277Zm14.195-89.842c.082,13.681.2,27.362.21,41.042.029,28.452-21.075,54.517-48.983,60.057-20.027,3.975-38.665.642-54.661-12.7-14.742-12.3-22.516-28.213-22.787-47.513-.173-13.176-.033-26.356-.033-39.533v-12.849c0-.8.006-1.408.006-2.1q-.01-14.235,0-28.462c.006-3.54.826-4.365,4.352-4.368q58.98,0,117.972,0c3.435,0,4.146.658,4.133,4.018-.046,9.915-.135,19.833-.21,29.749-.006.347-.045.691-.082,1.127h-.033C2037.414,1437.342,2037.48,1447.948,2037.486,1448.436Zm5.793-49.628h-.694V1389.3h.694Z" transform="translate(19.316 0)" fill="#2d75cd"/><g transform="translate(1912.08 1434.787)"><path d="M1903.893,1319.113c-2.361.239-3.644,2.881-5.314,4.479a5.966,5.966,0,0,1,3.255,1.748c-1.1,2.315-1.205,4.928-1.291,7.469L1899.3,1370.2a77.164,77.164,0,0,1,28.691,5.3c3.409,1.339,6.706,2.924,10.144,4.191,9.3,3.435,24.421,12.97,34.382,13.635,10.989.734,20.148.183,31.14-2.816,10.584-2.888,20.138-7.865,27.761-15.386,9.336,1.738,16.883-2.767,26.389-3.193a8.461,8.461,0,0,1-.1-8.955c-1.1-.046-1.369-1.464-1.3-2.505l1.909-29.293a33.616,33.616,0,0,0-.147-8.314,1.669,1.669,0,0,0-.432-.979,1.98,1.98,0,0,0-1.153-.367c-6.555-.645-8.526-1.388-15.083-2.036-1.85-.184-6.664,2.688-8.458,3.153a23.153,23.153,0,0,0-5.037,2.462,76.067,76.067,0,0,1-12.551,5.177c-29.542,8.654-61.174,12.61-89.131-4.81C1926.326,1325.459,1918.569,1317.62,1903.893,1319.113Z" transform="translate(-1896.862 -1317.363)" fill="#b3cded" fill-rule="evenodd"/><path d="M2060.3,1321.909c-1.831-2.079-6.837-1.47-9.073-1.7-9.66-.966-16.032,2.193-24.418,6.362-25.6,12.718-52.316,12.495-79.691,7.05-14.607-2.9-26.969-15.606-42.028-15.167-.167.006-.233.134-.373.174-.173.039-.324-.043-.5.066-3.825,2.269-2.652,1.3-5.665,4.751a1.757,1.757,0,0,0,.351,2.728c5.442,2.924.068,38.865-.138,45.109a1.76,1.76,0,0,0,1.735,1.736c31.52.966,57.31,27.823,89.8,23.956,12.4-1.477,22.141-5.832,32.951-11.431,12.6-6.526,21.517-10.485,35.758-10.8a1.753,1.753,0,0,0,1.673-2.2q-.049-4.018-.1-8.032a1.714,1.714,0,0,0-.445-1.69c-4.083-3.3.989-24.807,1.117-30.57C2061.314,1329.244,2062.522,1324.44,2060.3,1321.909Zm-3.985,42.143c-2.571,14.241-12.571,7.8-23.124,10.7-5.9,1.627-14.87,9.915-20.921,12.61a80.75,80.75,0,0,1-34.165,6.729c-21.733-.351-39.134-17.922-59.642-22.614-7.891-1.8-14.015-.445-15.917-9.545-1.8-8.582-.134-26.9,2.158-35.05a1.76,1.76,0,0,0-.8-1.961l1.876-2.937c15.3-.03,31.271,13.631,46.642,16.107,15.685,2.525,31.569,2.04,47.333.088,21.425-2.652,36.127-20.171,51.472-14.5,10.714,3.962,6,16.909,5.4,26.146C2056.334,1354.311,2057.057,1359.917,2056.311,1364.052Z" transform="translate(-1898.055 -1318.447)" fill="#2d75cd"/></g><g transform="translate(1927.182 1443.874)"><rect width="2.09" height="3.474" fill="#fff"/><path d="M1904.756,1342.115h-2.089v-6h2.089Zm0-12h-2.089v-6h2.089Z" transform="translate(-1902.666 -1314.644)" fill="#fff"/><rect width="2.09" height="3.474" transform="translate(0 33.473)" fill="#fff"/><g transform="translate(131.633)"><rect width="2.09" height="3.474" fill="#fff"/><path d="M1944.956,1342.115h-2.089v-6h2.089Zm0-12h-2.089v-6h2.089Z" transform="translate(-1942.866 -1314.644)" fill="#fff"/><rect width="2.09" height="3.474" transform="translate(0 33.473)" fill="#fff"/></g></g></g></svg>