<svg xmlns="http://www.w3.org/2000/svg" width="228.505" height="226.687" viewBox="0 0 228.505 226.687"><g transform="translate(-695 -5280.986)"><g transform="translate(695 5352.524)"><path d="M1945.637,1505.394a4.924,4.924,0,0,1-4.382,2.5,2.715,2.715,0,0,1-1.74-1.032c-1.373-2.157-3.065-4.172-3.1-6.917a1.921,1.921,0,0,0-.544-1.1q-14.322-17.712-28.664-35.415c-.71-.864-1.408-1.76-2.148-2.689.509-.731.927-1.335,1.5-2.175.58.675,1.065,1.151,1.512,1.7q14.7,18.44,29.5,36.924a10.238,10.238,0,0,0,1.76,1.482c1.953,1.494,3.941,3,5.921,4.477a1.549,1.549,0,0,1,.387,2.246" transform="translate(-1841.466 -1393.91)" fill="#e3edf9"/><path d="M1950.883,1453.346c-.448.03-.675.453-.838.93-3.84,9.506-7.68,19.012-11.589,28.527q-6.576,16.044-13.192,32.042c-.225.571-.515,1.112-.965,2.042-.737-2.731-1.5-5.024-3.583-6.722.32-.745.577-1.485.894-2.16q11.3-26.019,22.581-52.007a14.731,14.731,0,0,0,.929-2.367.784.784,0,0,0,0-.411Z" transform="translate(-1810.8 -1404.385)" fill="#e3edf9"/><path d="M1938.946,1449.629a5.621,5.621,0,0,0-.639.8c-.778,1.37-.772,1.37-2.142.278-.136.251-.207.577-.408.713-.367.237-.941.627-1.184.491a1.483,1.483,0,0,1-.594-1.2,4.9,4.9,0,0,1,2.094-3.381c.5.245,1.009.7,1.477.656,1.452-.124,1.5.675,1.352,1.722Z" transform="translate(-1784.836 -1415.937)" fill="#2d75cd"/><path d="M1953.847,1469.609c.722-1.509,1.467-3.009,2.162-4.533.308-.681.237-1.68,1.361-1.586.736.057.991.834.523,2.157a39.637,39.637,0,0,1-2.024,4.692,1.885,1.885,0,0,1-1.517.808c-.813-.16-.6-.968-.438-1.609Z" transform="translate(-1746.073 -1384.28)" fill="#2d75cd"/><path d="M1956.979,1480.805a17.717,17.717,0,0,1-1.71,1.746,3.012,3.012,0,0,1-1.308.254c-.065-.444-.31-.953-.148-1.3a15.326,15.326,0,0,1,1.551-2.491c.216-.284.858-.6,1.006-.491a2.114,2.114,0,0,1,.654,1.142,3.959,3.959,0,0,1-.113,1.192l.068-.05" transform="translate(-1746.084 -1354.872)" fill="#2d75cd"/><path d="M1950.181,1454.559a2.658,2.658,0,0,0-.041-.423c-.16-.656-.246-1.4.511-1.642.9-.269,1.264.5,1.438,1.207a10.3,10.3,0,0,1,.332,2.293c.024.651-.186,1.429-1.009,1.3-.373-.065-.722-.731-.929-1.2a7.765,7.765,0,0,1-.364-1.589Z" transform="translate(-1753.384 -1405.914)" fill="#2d75cd"/><path d="M1955.05,1468.45c-.574.1-1.186.9-1.692.109a2.339,2.339,0,0,1-.074-1.586,7.7,7.7,0,0,1,.793-2.184c.2-.349.73-.515,1.119-.752.21.4.638.849.582,1.222a30.756,30.756,0,0,1-.8,3.26l.074-.071" transform="translate(-1747.208 -1383.193)" fill="#2d75cd"/><path d="M1946.2,1448.754a3.057,3.057,0,0,1-.34,1.072,1.3,1.3,0,0,1-1.011.5c-.3-.056-.625-.539-.7-.882a2.61,2.61,0,0,1,.092-1.467c.156-.379.607-.642.926-.959.314.326.66.627.935.977.112.151.062.411.1.76" transform="translate(-1765.021 -1416.53)" fill="#2d75cd"/><path d="M1954.88,1465.694c-.7.652-1.143,1.359-1.755,1.542-.633.19-.882-.494-.808-1.128.09-.881.808-1.707,1.4-1.509.374.121.628.58,1.161,1.094" transform="translate(-1748.931 -1382.152)" fill="#2d75cd"/><path d="M1951.581,1453.67a1.926,1.926,0,0,1-.311.74,7.671,7.671,0,0,1-1.071.746c-.325-.491-.852-.953-.908-1.468-.072-.618.474-1.009,1.141-.731a8.121,8.121,0,0,1,1.208.754l-.059-.041" transform="translate(-1754.846 -1405.076)" fill="#2d75cd"/><path d="M1952.651,1464.258c.473.745.961,1.207.872,1.461a5.9,5.9,0,0,1-1.032,1.412c-.34-.284-.982-.657-.935-.849a9.394,9.394,0,0,1,1.095-2.024" transform="translate(-1750.401 -1382.764)" fill="#2d75cd"/><path d="M1952.871,1479.63a14.083,14.083,0,0,1,1.8-1.033,1.521,1.521,0,0,1,.6.887c.023.749-.767,1.447-1.373,1.208-.317-.128-.533-.524-1.027-1.062" transform="translate(-1747.822 -1354.679)" fill="#2d75cd"/><path d="M1947.745,1448.028c-.477.387-.767.8-1.068.816-.624.032-1.139-.382-.955-1.047a1.248,1.248,0,0,1,.955-.754c.337.032.633.547,1.068.985" transform="translate(-1761.898 -1416.485)" fill="#2d75cd"/><path d="M1945.83,1449.61c-.441-.651-.876-1.018-.852-1.352s.5-.648.784-.968c.3.3.787.58.84.914s-.372.722-.772,1.405" transform="translate(-1763.284 -1415.996)" fill="#2d75cd"/><path d="M1949.291,1453.219c.464.506.956.825.926,1.056-.068.378-.47.722-.719,1.077-.31-.245-.849-.476-.867-.746-.018-.364.343-.76.66-1.387" transform="translate(-1756.128 -1404.385)" fill="#2d75cd"/><path d="M1935.639,1448.469c.2-.183.414-.533.592-.523a2.224,2.224,0,0,1,1.166.458c.115.095-.059.849-.178.876a2.518,2.518,0,0,1-1.269-.13c-.154-.053-.177-.491-.264-.752l-.047.071" transform="translate(-1781.573 -1414.713)" fill="#2d75cd"/><path d="M2111.907,1542.945c.063-7.015-3.038-12.657-7.656-17.586a52.542,52.542,0,0,0-4.482-3.879,1.245,1.245,0,0,1-.065-.216c.1-.651.225-1.255.325-1.9,1.021-6.308.926-12.5-1.379-18.545-1.985-5.16-4.485-9.926-9.29-13.006a3.914,3.914,0,0,1-1.887-3.453c-.71-6.888-3.364-12.784-9.323-16.782-1.278-.867-2.719-1.532-4.13-2.311,0-2.557.162-5.119-.06-7.651a44.534,44.534,0,0,0-3.881-14.6,18.618,18.618,0,0,0-3.618-5.284c-1.155-1.254-2.53-1.127-3.944-.8a1.541,1.541,0,0,0-1.178,1.985c.574,2.524.065,4.926-.482,7.394-1.217,5.642-5.024,8.778-10.184,10.509-2.435.8-5,1.219-7.471,1.855-5.885,1.571-11.074,4.137-14.057,9.864a2.723,2.723,0,0,1-1.763,1.414,38.9,38.9,0,0,0-10.6,5.411,19.378,19.378,0,0,0-6.947,7.69c-.988,2.142-2.054,4.222-3.139,6.521-8.678.674-14.864,5.834-19.663,12.5a39.324,39.324,0,0,0-7.3,16.71,7.985,7.985,0,0,1-.388,1.382c-2.367.991-4.672,1.953-7.073,2.982-3.752-4.482-7.5-8.974-11.178-13.488a2.022,2.022,0,0,1-.163-1.571c.864-3.589,1.923-7.133,2.728-10.76a66.557,66.557,0,0,0,1.6-9.255,17.329,17.329,0,0,0-3.044-10.95c-1.731-2.53-3.681-4.9-5.6-7.308-1.476-1.882-2.985-3.811-4.582-5.633q-7.305-8.405-14.705-16.714c-1.34-1.539-2.816-3.015-4.319-4.429-1.193-1.086-2.728-.633-2.914.843a2.644,2.644,0,0,0,.7,1.855c1.287,1.438,2.7,2.745,3.979,4.2,5,5.6,10.015,11.142,14.885,16.841,3.364,3.973,6.6,8.068,9.577,12.337a14.249,14.249,0,0,1,2.372,9.722c-.414,4.746-1.861,9.228-2.914,13.808-.449,1.855-1.026,3.68-1.539,5.571a3.039,3.039,0,0,1-.674-.414c-2.015-2.5-4.071-4.958-6.018-7.521a4.448,4.448,0,0,1-.894-2.3c-.225-5.3-2.858-9.166-6.884-12.237-4.072-3.113-8.776-4.675-13.581-6.056a7.848,7.848,0,0,0-1.062-.2c-.7-.053-1.441,0-1.441.8-.03.358.609.867,1.059,1.033,1.056.382,2.2.571,3.294.92a32.675,32.675,0,0,1,11.053,5.42,13.636,13.636,0,0,1,5.47,9.124,6.545,6.545,0,0,1-1.66,5.16,5.358,5.358,0,0,1-6.5,1.213c.128-.7.316-1.372.384-2.08.316-3.048-.932-4.84-3.94-5.672-1.563-.444-2.146-.127-2.655,1.444-.511,1.532-1.062,3.071-1.6,4.577-.864-.124-1.476-.26-2.113-.349-6.284-.864-12.556-1.7-18.837-2.595a19.284,19.284,0,0,1-11.914-6.213c-3.808-4.326-7.172-9.062-8.8-14.76-1.03-3.554-1.894-7.148-2.891-10.7-.154-.58-.606-1.509-.891-1.509a4.285,4.285,0,0,0-2.053.826,1.454,1.454,0,0,0-.417,1.127,6.589,6.589,0,0,0,.166,2.142c.6,2.343,1.3,4.645,1.915,6.986a37.816,37.816,0,0,0,6.124,12.87c3.1,4.231,6.331,8.2,11.266,10.538,4.231,2.024,8.394,3.935,13.2,3.808.828-.03,1.663.127,2.432.169,2.3,7.521,3.9,9,10.121,9.515,2.429,2.935,5.054,5.633,9.062,6.364.544.8,1.026,1.666,1.63,2.468a13.7,13.7,0,0,0,10.024,5.45c2.565.287,5.668-.864,6.219-4.26a16.7,16.7,0,0,1,.731-2.382c2.5,3.406,4.805,6.542,6.983,9.515-6.787,11.879-7.074,23.441.26,35.234a4.1,4.1,0,0,0-.35.477c-3.053,4.063-4.553,8.473-3.3,13.648a43.072,43.072,0,0,1,.736,5.7,6.421,6.421,0,0,0,2.468,4.571,7.688,7.688,0,0,0,8.814.746,48.963,48.963,0,0,0,5.405-3.811,15.363,15.363,0,0,1,1.763-1.189c2.331-1.157,5-1.953,7.051-3.476,2.236-1.728,4.352-1.619,6.749-.968.485.127.961.254,1.476.349,3.43.542,6.855,1.24,10.311,1.571,4.458.414,8.935.764,13.42.764,5.932,0,11.852.506,17.749-.255,6.435-.793,12.87-1.367,19.308-2.207a77.659,77.659,0,0,0,15.213-3.2,26.029,26.029,0,0,1,3.941-1,115.88,115.88,0,0,0,21.328-6.08c6.279-2.27,10.729-6.7,13.773-12.488a23.427,23.427,0,0,0,2.5-10.761c-.035-1.692-.2-3.42-.163-5.118m-182.681-33.155c-2.757.19-4.3-1.349-5.547-3.041-1.341-1.855-.16-3.935,2.184-3.973a32.134,32.134,0,0,1,3.745.325c-.133,2.364-.254,4.45-.381,6.69m5.855-12.364c2.881.642,3.464,2.184,1.952,5.349-1.119-.287-2.266-.571-3.58-.923.6-1.633,1.116-3.044,1.628-4.426m3.207,18.063a2.763,2.763,0,0,1-.831.133c-3.2-.26-6.669-4.681-6.151-7.784a3.937,3.937,0,0,1,4.84-3.261c1.438.317,2.811.826,4.415,1.308-.77,3.293-1.506,6.373-2.272,9.6m13.9,6.379c-.547,1.571-1.512,2.2-3.05,1.858-3.805-.834-6.663-2.92-8-6.636a8.846,8.846,0,0,1-.322-3.968,29.913,29.913,0,0,1,1.411-5.133,3.246,3.246,0,0,1,2.657-2.174,2.027,2.027,0,0,1,2.24.8c2.278,2.92,4.648,5.77,7.112,8.816-.7,2.228-1.379,4.317-2.044,6.435m-2.89-15.633c-.7-.864-1.4-1.761-2.142-2.689.512-.731.929-1.34,1.506-2.175.574.675,1.059,1.151,1.5,1.689q14.7,18.454,29.5,36.933a9.572,9.572,0,0,0,1.76,1.467c1.956,1.509,3.935,3.015,5.924,4.491a1.545,1.545,0,0,1,.385,2.246,4.938,4.938,0,0,1-4.391,2.5,2.7,2.7,0,0,1-1.725-1.033c-1.379-2.142-3.078-4.157-3.107-6.917a1.831,1.831,0,0,0-.544-1.08q-14.322-17.739-28.669-35.433m12.618,42.906c-.317-6.3,1.151-12,5.991-16.734,2.183,2.689,4.257,5.317,6.411,7.879,2.2,2.618,2.529,6.142,4.672,8.832-1.092,1.151-2.053,2.184-2.979,3.231a37.13,37.13,0,0,0-2.429,2.982,12.556,12.556,0,0,1-3.816,3.891c-1.314.745-2.207,2.3-3.329,3.553-3.556-3.84-4.257-8.7-4.52-13.633m22.134,29.838a10.881,10.881,0,0,1-5.734,3.16,4.99,4.99,0,0,0-1.953,1.157c-1.7,1.27-3.269,2.746-5.06,3.938a4.812,4.812,0,0,1-5.447.062,3.183,3.183,0,0,1-1.473-2.429,61.494,61.494,0,0,0-.959-6.538,9.071,9.071,0,0,1,1.826-7.855,13.073,13.073,0,0,0,2.947-5.761,6.565,6.565,0,0,1,3.781-4.636,5.672,5.672,0,0,0,1.953-1.841,41.511,41.511,0,0,1,5.959-7.1c3.677,2.53,7.749,1.515,9.7-2.24.93-1.769.861-2.34-.387-3.84a7.729,7.729,0,0,0-.728-.793c2.1-1.222,3.353-1.033,4.734.755a9.9,9.9,0,0,1,1.636,8.139,24.189,24.189,0,0,1-4.553,10.7,3.5,3.5,0,0,0-.669,1.952,18.363,18.363,0,0,1-5.574,13.172m123.851-26.234c-.988,3.491-3.2,6.189-5.411,8.9-.645.826-1.408,1.589-2.148,2.367a2.215,2.215,0,0,1-1.382.6c.58-.953,1.219-1.843,1.731-2.81a46.2,46.2,0,0,0,2.051-4.269c.126-.287-.29-.793-.414-1.237-.411.189-1.024.222-1.246.538a15.545,15.545,0,0,0-1.057,2.095c-1.023,1.826-1.8,3.764-3.524,5.11.255.6.509,1.174.832,1.985a98.294,98.294,0,0,1-10.125,4.556c-5.378,1.887-11.077,2.633-16.521,4.189-8.26,2.4-16.719,3.491-25.234,4.346a199.159,199.159,0,0,1-27.385.651,150,150,0,0,1-28.35-3.776c-.128-.047-.254-.16-.58-.349.264-.6.452-1.254.775-1.873a19.441,19.441,0,0,0,1.728-7.237,2.864,2.864,0,0,1,.355-1.6c2.012-2.462,3.038-5.477,4.258-8.349q13.926-33.684,27.766-67.451a15.479,15.479,0,0,0,.769-1.982c.163-.675.035-1.349-.8-1.476-.7-.118-.962.325-1.184.929-3.849,9.512-7.689,19.021-11.6,28.533q-6.577,16.061-13.192,32.036c-.225.571-.514,1.113-.964,2.057-.737-2.74-1.5-5.039-3.583-6.737.32-.745.58-1.467.894-2.142q11.3-26.046,22.58-52.019a14.972,14.972,0,0,0,.932-2.364c.092-.326-.222-.991-.417-1.024a1.493,1.493,0,0,0-1.255.349,6.3,6.3,0,0,0-.728,1.532q-11.3,25.984-22.613,51.983c-.352.826-.743,1.669-1.19,2.651-.379-.659-.542-1.349-.959-1.585a3.09,3.09,0,0,0-1.665-.2c-.932-.038-1.862.033-2.787-.038a1.705,1.705,0,0,0-1.855,1.222,9.479,9.479,0,0,1-4.039-3.08c-2.527-3.26-5.157-6.458-7.784-9.757a8.858,8.858,0,0,1,3.911-2.89c1.534-.539,3.045-1.213,4.574-1.752a2.553,2.553,0,0,0,1.891-2.278c.935-7.689,4.553-14.062,9.613-19.666a20.1,20.1,0,0,1,3.905-3.3c2.725-1.7,5.222-3.811,8.459-4.485a27.618,27.618,0,0,1,4-.317c1.305-.095,1.375-.26,1.5-1.509a11.374,11.374,0,0,1,.7-3.071c3.041-7.012,7.947-12.11,15.311-14.577a26.278,26.278,0,0,1,2.686-.571,3.065,3.065,0,0,0,2.53-1.983c1.571-3.882,4.2-6.858,8.3-8.109,4.357-1.3,8.713-2.622,13.166-3.518,4.772-.968,8-3.912,10.76-7.521a9.3,9.3,0,0,0,1.7-5.453c.065-1.35,0-2.69,0-4.326.384.287.639.391.7.55a42.574,42.574,0,0,1,4.358,19.249c-.03,1.693-.29,3.391-.317,5.089-.033,1.95.225,2.086,2.24,2.021a5.684,5.684,0,0,1,2.053.414,12.107,12.107,0,0,1,6.882,6.6,25.32,25.32,0,0,1,2.434,10.332,2.615,2.615,0,0,0,1.661,2.689,17.22,17.22,0,0,1,8.4,9.323,36.5,36.5,0,0,1,2.5,19.894,17.762,17.762,0,0,1-.866,3.071,2.255,2.255,0,0,0,1.346,3.048,11.314,11.314,0,0,1,6.278,4.515,23.2,23.2,0,0,1,5.281,13.935c.094,3.166.222,6.237-.639,9.317" transform="translate(-1883.566 -1436.714)" fill="#2d75cd"/><path d="M1957.962,1471.375h-29.325a7.073,7.073,0,0,1-1.9-.16,1.185,1.185,0,0,1-.692-.9,1.285,1.285,0,0,1,.769-.873,4.575,4.575,0,0,1,1.489-.089q29.641-.008,59.294,0c.281,0,.571-.006.855,0,.746.015,1.592.1,1.545,1.042-.042.873-.9.959-1.637.983-.494.009-1,0-1.5,0h-28.9" transform="translate(-1800.361 -1372.818)" fill="#2d75cd"/><path d="M1991.827,1461.539c.112,1.293-.225,1.873-1.243,1.888-.5.018-1,.018-1.5.018h-56.9a9.364,9.364,0,0,1-2.124-.112c-.373-.095-.639-.595-.949-.911a5.107,5.107,0,0,1,1.062-.849,2.564,2.564,0,0,1,1.057-.033h60.6Z" transform="translate(-1794.37 -1388.17)" fill="#2d75cd"/><path d="M1960.594,1460.963h-28.021a6.1,6.1,0,0,1-1.7-.077c-.4-.136-.686-.6-1.03-.915.317-.334.583-.778.968-.968a3.14,3.14,0,0,1,1.266-.065h57.531c1.609,0,2.317.349,2.151,1.065-.3,1.3-1.43.944-2.29.944q-14.445.035-28.877.015" transform="translate(-1792.922 -1393.244)" fill="#2d75cd"/><path d="M1935.936,1493.764c-.446-.7-.872-1.062-.867-1.429a4.289,4.289,0,0,1,.509-1.618c2.314-5.364,4.628-10.7,6.959-16.063a4.712,4.712,0,0,1,.825-1.458,1.26,1.26,0,0,1,1.13-.142c.216.062.417.571.4.879a4.02,4.02,0,0,1-.414,1.192c-2.411,5.562-4.81,11.1-7.249,16.639a19.732,19.732,0,0,1-1.3,2" transform="translate(-1782.69 -1365.671)" fill="#2d75cd"/><path d="M1949.113,1463.514c-.2.491-.332.9-.509,1.293-2.311,5.133-4.613,10.258-6.953,15.385-.326.716-.565,1.915-1.687,1.453-1.175-.491-.429-1.482-.107-2.207q3.4-7.615,6.844-15.2a4,4,0,0,1,.749-1.278,1.372,1.372,0,0,1,1.118-.213c.24.062.379.515.545.763" transform="translate(-1774.351 -1385.786)" fill="#2d75cd"/><path d="M1945.858,1463.638c-.216.58-.37,1.056-.556,1.509q-3.134,7.234-6.279,14.474c-.05.127-.1.263-.159.382-.347.689-.61,1.7-1.622,1.222-.986-.447-.444-1.32-.142-2.033q3.249-7.522,6.5-15.062a2.517,2.517,0,0,1,.5-.926c.29-.246.758-.524,1.059-.447s.477.58.7.881" transform="translate(-1779.538 -1385.73)" fill="#2d75cd"/><path d="M1941.412,1473.77c-.2.506-.331.911-.5,1.3-2.106,4.817-4.207,9.625-6.343,14.417-.317.731-.551,1.968-1.666,1.491-1.3-.553-.385-1.586-.05-2.349,2.068-4.823,4.19-9.633,6.3-14.441a2.524,2.524,0,0,1,.486-.929,1.514,1.514,0,0,1,1.077-.387c.3.095.488.594.7.9" transform="translate(-1788.261 -1365.92)" fill="#2d75cd"/><path d="M1950.091,1453.255c-.169.435-.276.769-.423,1.095q-3.089,7.021-6.2,14.024c-.331.737-.572,1.911-1.681,1.435-1.13-.477-.42-1.462-.11-2.189q2.991-6.835,6.021-13.642a3.711,3.711,0,0,1,.742-1.26,1.387,1.387,0,0,1,1.11-.225c.239.065.381.527.542.763" transform="translate(-1770.741 -1405.873)" fill="#2d75cd"/><path d="M1952.276,1453.343c-.184.453-.31.778-.45,1.113q-2.849,6.892-5.713,13.793a4.187,4.187,0,0,1-.683,1.316,1.234,1.234,0,0,1-1.069.349,1.331,1.331,0,0,1-.535-1,3.153,3.153,0,0,1,.391-1.207q2.8-6.808,5.63-13.592a4.3,4.3,0,0,1,.888-1.414,1.08,1.08,0,0,1,.971-.077c.26.109.4.5.571.719" transform="translate(-1765.539 -1405.702)" fill="#2d75cd"/><path d="M1922.517,1469.217a34.558,34.558,0,0,1,3.634.05c.444.038.834.562,1.254.864-.382.335-.758.962-1.151.977q-3.745.164-7.483.038c-.393-.015-.757-.666-1.138-1.023.417-.3.808-.826,1.254-.873a34.555,34.555,0,0,1,3.63-.038Z" transform="translate(-1816.841 -1373.122)" fill="#2d75cd"/><path d="M1926.627,1460.911a26.448,26.448,0,0,1-3.177-.042c-.373-.039-.683-.595-1.024-.9.32-.326.631-.929.959-.947,2.334-.118,4.671-.133,7-.109.263,0,.73.524.73.784a1.14,1.14,0,0,1-.695.873c-1.258.175-2.527.207-3.8.3v.042" transform="translate(-1807.453 -1393.255)" fill="#2d75cd"/><path d="M1925.26,1463.319a21.412,21.412,0,0,1-2.959-.056c-.343-.047-.757-.595-.866-.991-.047-.207.506-.81.79-.819,2.116-.062,4.231-.062,6.346.024.273.009.8.627.737.825-.116.391-.526.929-.873.97a26.27,26.27,0,0,1-3.174.047" transform="translate(-1809.4 -1388.346)" fill="#2d75cd"/><path d="M1942.136,1482.473a24.175,24.175,0,0,1-4.545,10.7,3.481,3.481,0,0,0-.677,1.952,18.335,18.335,0,0,1-5.571,13.157,10.856,10.856,0,0,1-5.734,3.175,4.945,4.945,0,0,0-1.953,1.157c-1.7,1.269-3.266,2.764-5.062,3.938a4.812,4.812,0,0,1-5.447.062,3.128,3.128,0,0,1-1.467-2.429,64.546,64.546,0,0,0-.965-6.538,9.09,9.09,0,0,1,1.826-7.855,13.075,13.075,0,0,0,2.947-5.761,6.555,6.555,0,0,1,3.778-4.636,5.609,5.609,0,0,0,1.955-1.826,41,41,0,0,1,5.956-7.116c3.68,2.53,7.748,1.515,9.7-2.24.933-1.754.861-2.325-.381-3.84a8.234,8.234,0,0,0-.736-.793c2.115-1.222,3.355-1.033,4.737.755a9.909,9.909,0,0,1,1.636,8.139" transform="translate(-1830.853 -1366.032)" fill="#e3edf9"/><path d="M1926.921,1470.04l-2.3,6.491a2.266,2.266,0,0,0-.612-.891,3.2,3.2,0,0,0-1.663-.189c-.932-.032-1.856.039-2.79-.032a1.69,1.69,0,0,0-1.379.453l-.542-6.373c.388.349.767,1.023,1.151,1.023,2.5.095,5,.057,7.5-.023a1.413,1.413,0,0,0,.638-.459" transform="translate(-1816.844 -1372.498)" fill="#e3edf9"/><path d="M1993.222,1459.278l-1.373,6.595h-60.6a2.712,2.712,0,0,0-1.063.039,5.453,5.453,0,0,0-1.085.864l2.6-7.109a1.249,1.249,0,0,0,.639.476,5.03,5.03,0,0,0,1.7.1h56.874c.864,0,1.983.349,2.3-.968" transform="translate(-1794.37 -1392.517)" fill="#e3edf9"/><path d="M1955.169,1452.757c-.062.042-.121.071-.162.1a4.485,4.485,0,0,0-.894,1.406c-1.887,4.515-3.749,9.062-5.636,13.61a3.3,3.3,0,0,0-.382,1.189c.027.358.255.9.544.991l-6.988-.231c.449-.213.639-.959.866-1.468q3.129-7.011,6.217-14.03a9.057,9.057,0,0,0,.414-1.086c-.16-.254-.287-.707-.545-.772Z" transform="translate(-1769.798 -1405.852)" fill="#e3edf9"/><path d="M1952.01,1462.754a.391.391,0,0,0-.287.127,3.522,3.522,0,0,0-.736,1.284c-2.308,5.062-4.583,10.119-6.855,15.214-.319.707-1.057,1.7.092,2.174l-7.075-.32c.381-.221.577-.84.8-1.251.065-.127.092-.255.154-.382,2.089-4.834,4.2-9.642,6.278-14.474.2-.444.352-.938.554-1.509-.074-.1-.136-.222-.225-.358Z" transform="translate(-1778.616 -1385.709)" fill="#e3edf9"/><path d="M1991.858,1469.918l-3.015,6.287a.873.873,0,0,0-.355-.207,8.109,8.109,0,0,0-1.92-.095c-9.832-.024-19.7,0-29.563-.024-10.112,0-20.27,0-30.388.024a4.553,4.553,0,0,0-1.6.038l3.293-6.086a1,1,0,0,0,.45.349,7.464,7.464,0,0,0,1.929.166h59.694c.547-.039,1.189-.062,1.479-.453" transform="translate(-1802.384 -1371.799)" fill="#e3edf9"/><path d="M1947.955,1473.147a7.326,7.326,0,0,0-.609,1.207c-2.3,5.364-4.642,10.7-6.947,16.045a4.184,4.184,0,0,0-.511,1.618.7.7,0,0,0,.221.462l-7.5-1.953c.71,0,.935-.953,1.225-1.6q3.16-7.189,6.334-14.4c.163-.388.29-.769.486-1.278Z" transform="translate(-1787.502 -1365.353)" fill="#e3edf9"/><path d="M1932.452,1459.423l-3.654,6.373c-.162-.189-.352-.349-.476-.349-2.118-.071-4.231-.1-6.349-.038a.767.767,0,0,0-.411.254l2.918-6.278c.225.263.446.514.674.547a26.232,26.232,0,0,0,3.168.033v-.033c1.275-.1,2.563-.127,3.805-.316a.576.576,0,0,0,.325-.193" transform="translate(-1809.147 -1392.308)" fill="#e3edf9"/></g><path d="M1999.947,1412.534h-57.108a35.891,35.891,0,0,0-22.852,63.611l-.37-.24v8.521l7.643-3.542a35.825,35.825,0,0,0,15.58,3.542l8.2-.358h48.912a35.767,35.767,0,0,0,0-71.534Z" transform="translate(-1142.873 3868.452)" fill="#b2cded" opacity="0.36"/><g transform="translate(784.992 5305.925)"><g transform="translate(0 0)"><path d="M1931.22,1449c-2.038.894-9.568-.2-11.278-1.624a15.145,15.145,0,0,1-3.719-5.482c-1.266-2.755-2.349-5.752-1.953-8.761.483-3.666,3.148-6.772,6.362-8.606a28.59,28.59,0,0,1,10.589-3.048,9.4,9.4,0,0,1,4.749.234,8.974,8.974,0,0,1,3.547,3.163,23.6,23.6,0,0,1,4.553,9.021,11.777,11.777,0,0,1-1.835,9.689c-2.568,3.293-6.953,4.453-11.015,5.414" transform="translate(-1913.582 -1420.324)" fill="none"/><path d="M1944.748,1432.353c-1.263-3.734-4.1-9.095-7.944-10.746-3.607-1.547-9.173.027-12.646,1.228-8.3,2.87-12.293,10-9.05,18.347,2.775,7.139,8.739,11.485,16.739,9.284C1941.008,1448.223,1948.269,1442.762,1944.748,1432.353Zm-13.356,16.453a11.861,11.861,0,0,1-13.293-5.2c-4.941-7.882-2.142-16.015,6.517-19.113,2.444-.876,6.042-1.852,8.61-1.686,5.154.334,8.4,5.639,9.86,10C1946.2,1442.1,1939.393,1446.848,1931.392,1448.806Z" transform="translate(-1913.983 -1420.963)" fill="#2d75cd"/></g><path d="M1926.6,1426.131c2.086,4.45-2.13,9.586-6.213,10.477-.811.178-.467,1.42.343,1.243,2.207-.479,5.222-2.145,6.3-4.207,1.015-1.935,1.636-6.121.677-8.163-.352-.752-1.464-.1-1.113.651Z" transform="translate(-1902.342 -1412.768)" fill="#2d75cd"/><path d="M1923.13,1426.61l.553.331a.647.647,0,0,0,.654-1.115l-.555-.328a.645.645,0,0,0-.651,1.112Z" transform="translate(-1896.672 -1412.267)" fill="#2d75cd"/><path d="M1923.446,1427.487h.178a.645.645,0,0,0,0-1.29h-.178a.645.645,0,0,0,0,1.29Z" transform="translate(-1896.67 -1410.712)" fill="#2d75cd"/><path d="M1923.093,1427.02" transform="translate(-1896.138 -1409.1)" fill="none" stroke="#79b443" stroke-miterlimit="10" stroke-width="0.15"/></g><g transform="translate(812.02 5299.667)"><path d="M1923.118,1423.306a20.851,20.851,0,0,1,10.249-4.089" transform="translate(-1923.118 -1418.125)" fill="none" stroke="#2d75cd" stroke-miterlimit="10" stroke-width="1"/><path d="M1926.08,1418.728a21.91,21.91,0,0,1,2.571.8l-2.462,2.619" transform="translate(-1917.95 -1418.728)" fill="none" stroke="#2d75cd" stroke-miterlimit="10" stroke-width="1"/></g><text transform="translate(829.737 5311.616)" fill="#2d75cd" font-size="20" font-family="YuGothicUI-Regular, Yu Gothic UI"><tspan x="0" y="0">黄豆</tspan><tspan y="0" font-family="SegoeUI, Segoe UI"></tspan><tspan x="0" y="22">大小</tspan></text></g></svg>