<svg xmlns="http://www.w3.org/2000/svg" width="243.125" height="149.889" viewBox="0 0 243.125 149.889"><g transform="translate(-2255.368 -1575.123)"><path d="M2498.01,1703.486c-.225-.288-.513-.513-.738-.768-1.535-1.7-3.14-3.364-4.546-5.124-.545-.675-.512-1.826-1.058-2.434a9.786,9.786,0,0,0-2.368-1.25,2.817,2.817,0,0,1-.7-.8c-1.793-2.56-3.556-5.121-5.379-7.684a31.051,31.051,0,0,1-4.74-9.511,72.664,72.664,0,0,1-2.531-16.172c-.063-1.217-.288-2.4-.354-3.586-.063-.833.033-1.664,0-2.5-.159-2.176-.384-4.386-.481-6.566-.063-1.727.033-3.424-.03-5.154-.1-2.914-.258-5.828-.417-8.71-.066-1.217-.354-2.4-.417-3.619a57.331,57.331,0,0,0-1.25-9.895,10.419,10.419,0,0,0-4.386-6.6c-2.339-1.6-4.74-3.169-7.171-4.674a37.924,37.924,0,0,0-3.394-1.76c-1.475-.738-2.98-1.475-4.42-2.18,2.465-2.815,4.8-5.412,7.013-8.068,3.715-4.515,7.4-9.093,11.016-13.674,1.121-1.44,2.047-3.073,3.04-4.642a1.813,1.813,0,0,0-.255-2.53c-.738-.7-1.5-.512-2.338-.063q-13.016,6.962-26.067,13.864c-2.5,1.346-5.025,2.659-7.555,4a1.823,1.823,0,0,1-1.985.192,87.041,87.041,0,0,0-15.372-5.7,35.613,35.613,0,0,0-8.2-1.151c-2.563-.129-5.124.192-7.687.288-.126.033-.288.033-.414.063a55.315,55.315,0,0,0-12.233,4.452c-3.589,1.985-7.079,4.257-10.505,6.563a8.151,8.151,0,0,1-4.77,1.379q-58.649-.049-117.362-.033c-.641,0-1.28-.033-1.921,0a2.4,2.4,0,0,0-2.626,2.465,15.8,15.8,0,0,0-.03,1.73v117.778a15.808,15.808,0,0,0,.03,1.73c.129,1.343.7,1.856,2.083,1.856.993.033,1.986-.063,2.978-.063h158.509c.479,0,1,.03,1.475,0,1.343-.129,1.793-.834,1.761-2.147-.034-4.131,0-8.23,0-12.424,3.105.575,6.178,1.121,9.222,1.763a4.28,4.28,0,0,1,1.793,1.055c2.818,2.5,5.574,5.091,8.359,7.621a6.233,6.233,0,0,0,1.056.768,1.331,1.331,0,0,0,1.888-.351,3.352,3.352,0,0,0,.354-1.955c-.063-.384-.575-.768-.929-1.118-.992-1.091-2.4-2.018-2.978-3.331a5.351,5.351,0,0,0-2.689-2.689c-.066-.066-.066-.258-.129-.417a4.284,4.284,0,0,1,.642-.1c.8-.1,1.823.255,2.08-.963.159-.7-.545-1.121-2.146-1.088a34.166,34.166,0,0,1-12.3-2.4,64.691,64.691,0,0,1-9.511-4.8,18.116,18.116,0,0,1-4.035-3.457,70.522,70.522,0,0,1-11.911-17.135c-1.505-3.073-3.107-6.083-3.778-9.51-.417-2.143-1.026-4.257-1.572-6.4a7.475,7.475,0,0,0-.543-1.376c-2.531-5.061-5.061-10.086-7.591-15.114-.288-.609-.609-1.218-.96-1.922,1.922-1.217,3.811-2.273,5.509-3.556a19.276,19.276,0,0,0,3.042-3.2,1.8,1.8,0,0,0,.192-1.568c-1.121-2.465-2.306-4.866-3.49-7.3a14.1,14.1,0,0,0-3.685-4.9,4.255,4.255,0,0,0-4.77-.833c-2.177.96-4.356,1.955-6.692,3.01-.672-1.6-1.41-3.331-2.146-5.061a15.877,15.877,0,0,1,5.124-4.417,10.573,10.573,0,0,1,3.265-.929,17.026,17.026,0,0,1,8.969,1.505,28.741,28.741,0,0,1,12.2,10.152c2.435,3.49,4.453,7.268,6.662,10.949,2.464,4.165,5.476,7.814,10.056,9.832a3.947,3.947,0,0,0,1.185.479,1.483,1.483,0,0,0,1.055-.479,1.2,1.2,0,0,0-.321-1.089,10.136,10.136,0,0,0-1.7-1.088c.1-.159.1-.258.129-.258h1.28a5.859,5.859,0,0,0,6.083-4.1,14.451,14.451,0,0,0,.8-3.106,28.724,28.724,0,0,0-.671-9.765,9.449,9.449,0,0,1-.289-2.114c.063-2.051.1-2.018-1.76-2.852-1.667-.7-3.3-1.5-5.19-2.4,9.255-6.212,18.574-11.687,26.837-18.475,6.213,3.553,12.2,7.013,18.221,10.44a5.791,5.791,0,0,1,3.073,4.129q.576,3.171.963,6.341a99.879,99.879,0,0,1,1.088,10.152c.159,7.847.03,15.657.926,23.474.45,3.873.8,7.78,1.379,11.624a27.81,27.81,0,0,0,3.553,10.919c3.523,5.667,6.983,11.432,11.85,16.14.575.543,1.025,1.184,1.567,1.793,1.505,1.663,3.01,3.394,4.611,5.027a1.719,1.719,0,0,0,2.5.1A1.8,1.8,0,0,0,2498.01,1703.486Zm-116.945-99.942a1.625,1.625,0,0,1,.8-.642c3.619-2.272,7.234-4.545,10.853-6.788.546-.321,1.122-.576,1.7-.863.641,2.177.512,2.785-1.217,3.714-2.5,1.343-5.058,2.561-7.618,3.778-1.41.671-2.819,1.247-4.42,1.922C2381.094,1604.152,2380.935,1603.8,2381.065,1603.544Zm3.778,24.178a2.885,2.885,0,0,1,1.922.671,10.97,10.97,0,0,1,3.393,4.578c1.025,2.276,2.018,4.548,3.073,6.917-1.313,1.955-3.2,3.394-7.718,5.765a140.323,140.323,0,0,1-7.684-14.187C2379.685,1629.226,2382.248,1628.36,2384.842,1627.721Zm-6.854,8.58c1.379,2.564,2.626,4.87,4,7.463-2.048.8-3.937,1.535-6.051,2.369-1.088-1.793-2.147-3.586-3.394-5.637C2374.4,1639.057,2376.132,1637.711,2377.989,1636.3Zm-3.811,10.728c-5.475,3.268-11.559,4.132-17.45,5.924,1.28-1.664,10.79-9.064,14.313-11.144C2372.034,1643.477,2373.056,1645.174,2374.178,1647.03Zm-2.24-25.746a5.091,5.091,0,0,0-.417,5.412c1.088,2.306,1.952,4.74,2.978,7.238-.576.479-1.056.992-1.6,1.409q-14.554,11.477-29.107,22.927c-1.217.959-2.627,1.76-2.756,3.586a2.5,2.5,0,0,1-2.785-1.952c-.545-1.6-1.313-1.7-2.722-.642a25.782,25.782,0,0,1-3.169,2.081,3.661,3.661,0,0,1-3.3-.126,11.63,11.63,0,0,0-.03-1.826c-.162-1.184-.93-1.571-1.985-.963-.77.483-1.475,1.154-2.243,1.634a17.258,17.258,0,0,1-2.176.9c-.066-1.088-.066-1.855-.162-2.593-.126-1.472-.768-1.889-2.144-1.281a7.006,7.006,0,0,0-1.217.8,16.48,16.48,0,0,1-6.212,2.752c-2.081.354-2.531.033-3.2-2.018-.45-1.376-1.28-1.823-2.626-1.184a23.683,23.683,0,0,0-2.531,1.57c-1.7,1.023-3.394,2.048-5.154,2.978a3.542,3.542,0,0,1-2.275.129c.512-.609,1.09-1.187,1.57-1.825.7-.993,1.409-1.985,2.048-3.01.384-.642.513-1.376-.225-1.889a1.4,1.4,0,0,0-1.951.222c-.96,1.026-1.857,2.147-2.722,3.268a8.594,8.594,0,0,0-.96,1.889,4.873,4.873,0,0,1-3.556,2.914,4.635,4.635,0,0,1,.288-3.361,16.447,16.447,0,0,1,4.8-7.462,2.643,2.643,0,0,0,.608-.576c.129-.288.258-.8.129-.963a1.293,1.293,0,0,0-1.055-.417,2.922,2.922,0,0,0-1.25.738,17.633,17.633,0,0,0-5.637,10.76,4.343,4.343,0,0,0,0,1.28,2.049,2.049,0,0,0,2.948,1.76,13.941,13.941,0,0,1,5.828-1.247c1.728,0,3.49-1.058,5.124-1.889,1.535-.834,2.945-1.922,4.417-2.914,1.667,3.265,3.043,3.97,6.6,2.944,2.081-.639,4.065-1.664,6.212-2.56.384,1.217.575,3.043,2.465,2.914a18.728,18.728,0,0,0,4.068-1.217c2.144,3.361,5.508,2.66,9.637-.158,2.4,3.106,4.9,3.361,8.229,1.055a38.124,38.124,0,0,1,11.466-5.6c4.8-1.313,9.573-2.689,14.347-4.194a50.4,50.4,0,0,0,5.25-2.339c1.954-.863,3.876-1.73,6.087-2.689.992,1.889,1.918,3.619,2.848,5.349,1.538,2.881,3.01,5.828,4.645,8.677a27.635,27.635,0,0,1,2.944,6.6c.674,2.467,1.313,4.965,2.147,7.4.767,2.209,1.792,4.323,2.755,6.47a71.673,71.673,0,0,0,13.929,20.142,43.954,43.954,0,0,0,5.921,4.9,3.067,3.067,0,0,1,1.476,2.785c-.1,3.139-.033,6.309-.033,9.447,0,.546-.1,1.088-.13,1.793H2259.25V1603.223c1.76-.479,106.793-.7,114.576-.255-.354.639-.641,1.151-.963,1.631a4.36,4.36,0,0,0-.35,4.068,12.1,12.1,0,0,0,5.445,7.046A16.3,16.3,0,0,0,2371.938,1621.284Zm11.4-6.5c-3.49-1.538-6.4-3.682-7.172-8.005.8-.609,1.694-1.28,2.624-1.955,1.6,2.593,1.6,2.563,4.323,1.218,3.652-1.793,7.3-3.523,10.952-5.283a6.042,6.042,0,0,0,1.6-1.058,3.569,3.569,0,0,0,1.055-3.328c-.288-1.826.675-2.6,2.21-3.331,5.766-2.627,11.849-3.044,18-2.531a25.642,25.642,0,0,1,4.546,1.184,44.971,44.971,0,0,1,12.811,5.157,10.212,10.212,0,0,1,.992.638c-.288.258-.546.513-.8.7q-12.107,7.686-24.21,15.339a4.685,4.685,0,0,1-1.28.738c-.32.063-.738-.192-1.217-.354a3.658,3.658,0,0,0,.225-.7c.129-.414.226-.864.351-1.28a3.871,3.871,0,0,0-1.536-.288,24.165,24.165,0,0,0-2.468.738c-3.745,1.025-7.493,2.305-11.3,2.977C2389.837,1615.935,2386.443,1616.16,2383.337,1614.784Zm35.226,18.891a15.378,15.378,0,0,1-2.114,7.3c-.224.383-.929.863-1.283.768-.384-.129-.705-.768-.831-1.25a2.562,2.562,0,0,1,.03-1.472c.992-2.819.866-5.732.9-8.647,0-1.6.321-1.889,2.306-2.4A11.591,11.591,0,0,1,2418.563,1633.675Zm5.921-4.386a16.5,16.5,0,0,1,2.276,8.581,12.706,12.706,0,0,1-1.088,6.215,4.7,4.7,0,0,1-3.781,2.432c-1.919.288-3.523-1.473-3.3-3.715a12.892,12.892,0,0,1,.671-3.106,17.926,17.926,0,0,0,.546-11.72,8.6,8.6,0,0,1-.1-1.439A5.136,5.136,0,0,1,2424.484,1629.289Zm8.743-15.018c-4.9,3.2-9.668,6.6-14.7,9.543-3.556,2.114-7.4,3.619-11.145,5.379a1.42,1.42,0,0,1-1.922-.255c-1.889-2.21-3.874-4.324-5.954-6.629.447-.287.8-.546,1.151-.77q14.984-9.364,29.94-18.7,17.148-10.713,35.163-19.917c.351-.191.735-.354,1.568-.77-.575.834-.833,1.313-1.154,1.7-3.169,3.973-6.275,7.975-9.54,11.849a42.8,42.8,0,0,1-4.74,4.611A161.968,161.968,0,0,1,2433.227,1614.271Z" transform="translate(0 0)" fill="#2d75cd"/><path d="M2312.646,1622.259c-.151-.27-.618-.755-.516-1a41.345,41.345,0,0,1,2.056-4.164c.352-.624,1.2-.4,1.478.324.438,1.127-1.373,4.563-2.533,4.8C2313.066,1622.235,2312.994,1622.232,2312.646,1622.259Z" transform="translate(113.394 83.146)" fill="#2d75cd"/><path d="M2315.5,1617.077c.8.06,1.29.492,1.025,1.1a28.039,28.039,0,0,1-2,3.672.872.872,0,0,1-1.481-.848c.548-1.208,1.2-2.372,1.865-3.526C2315.021,1617.266,2315.342,1617.173,2315.5,1617.077Z" transform="translate(115.178 83.834)" fill="#2d75cd"/><path d="M2316.039,1617.643c.138.189.507.47.543.792.1.836-1.1,2.227-1.745,2.027a1.338,1.338,0,0,1-.729-1.025A1.969,1.969,0,0,1,2316.039,1617.643Z" transform="translate(117.374 84.958)" fill="#2d75cd"/><path d="M2313.1,1617.077c.153.174.546.414.618.728.162.7-.777,1.916-1.373,1.769a1.369,1.369,0,0,1-.81-.947A1.515,1.515,0,0,1,2313.1,1617.077Z" transform="translate(112.22 83.834)" fill="#2d75cd"/><path d="M2279.673,1602.236c.1.671-.512.926-1.154.926-.734,0-1.343-.35-1.247-1.088.063-.479.671-.863,1.313-1.6C2279.128,1601.306,2279.608,1601.723,2279.673,1602.236Z" transform="translate(43.75 50.655)" fill="#2d75cd"/><path d="M2271.135,1599.98c.063.321-.258.771-.416,1.121a6.587,6.587,0,0,1-.7-.32c-.225-.414-.608-.863-.608-1.28,0-.288.608-.543.959-.8A4.861,4.861,0,0,1,2271.135,1599.98Z" transform="translate(28.048 47.112)" fill="#79b443"/><path d="M2306.625,1602.585c-5.475,3.268-11.559,4.132-17.45,5.925,1.28-1.664,10.791-9.064,14.313-11.145C2304.481,1599.032,2305.5,1600.729,2306.625,1602.585Z" transform="translate(67.553 44.445)" fill="#2d75cd"/><path d="M2303.9,1602.99c-2.048.8-3.937,1.535-6.051,2.369-1.088-1.793-2.147-3.586-3.394-5.637,1.856-1.439,3.586-2.785,5.442-4.2C2301.272,1598.092,2302.52,1600.4,2303.9,1602.99Z" transform="translate(78.095 40.774)" fill="#2d75cd"/><path d="M2371.266,1577.467c-.575.834-.832,1.313-1.154,1.7-3.168,3.973-6.275,7.975-9.54,11.849a42.838,42.838,0,0,1-4.74,4.611,161.943,161.943,0,0,1-18.67,13.963c-4.9,3.2-9.668,6.6-14.7,9.543-3.556,2.114-7.4,3.619-11.145,5.379a1.42,1.42,0,0,1-1.922-.255c-1.889-2.21-3.874-4.324-5.954-6.629.447-.288.8-.546,1.151-.77q14.985-9.364,29.94-18.7,17.148-10.713,35.163-19.917C2370.049,1578.046,2370.433,1577.884,2371.266,1577.467Z" transform="translate(96.066 4.685)" fill="#2d75cd" opacity="0.36"/><path d="M2415.943,1691.461a3.066,3.066,0,0,0-1.476-2.785,43.937,43.937,0,0,1-5.921-4.9,71.679,71.679,0,0,1-13.93-20.142c-.963-2.147-1.988-4.261-2.755-6.47-.834-2.432-1.473-4.929-2.147-7.4a27.635,27.635,0,0,0-2.944-6.6c-1.635-2.848-3.107-5.8-4.645-8.676-.929-1.73-1.856-3.46-2.848-5.349-2.21.96-4.132,1.826-6.086,2.689a50.4,50.4,0,0,1-5.25,2.339c-4.773,1.506-9.543,2.881-14.347,4.194a38.123,38.123,0,0,0-11.465,5.6c-3.327,2.306-5.828,2.051-8.229-1.055-4.129,2.818-7.493,3.52-9.637.158a18.728,18.728,0,0,1-4.068,1.217c-1.889.129-2.081-1.7-2.465-2.914-2.147.9-4.131,1.922-6.212,2.56-3.556,1.026-4.932.321-6.6-2.944-1.472.993-2.881,2.08-4.417,2.914-1.634.83-3.4,1.889-5.124,1.889a13.943,13.943,0,0,0-5.827,1.247,2.049,2.049,0,0,1-2.948-1.76,4.343,4.343,0,0,1,0-1.28,17.633,17.633,0,0,1,5.637-10.76,2.925,2.925,0,0,1,1.25-.738,1.293,1.293,0,0,1,1.055.417c.129.162,0,.675-.129.963a2.638,2.638,0,0,1-.608.576,16.447,16.447,0,0,0-4.8,7.462,4.635,4.635,0,0,0-.288,3.361,4.872,4.872,0,0,0,3.556-2.914,8.6,8.6,0,0,1,.96-1.889c.866-1.121,1.763-2.242,2.722-3.268a1.405,1.405,0,0,1,1.952-.222c.738.512.609,1.247.225,1.889-.639,1.025-1.344,2.018-2.048,3.01-.48.638-1.059,1.217-1.57,1.825a3.542,3.542,0,0,0,2.275-.129c1.76-.929,3.457-1.955,5.154-2.978a23.689,23.689,0,0,1,2.531-1.571c1.346-.639,2.176-.192,2.627,1.184.671,2.051,1.121,2.372,3.2,2.018a16.479,16.479,0,0,0,6.213-2.752,7,7,0,0,1,1.217-.8c1.376-.608,2.018-.191,2.144,1.281.1.738.1,1.505.162,2.593a17.255,17.255,0,0,0,2.176-.9c.767-.48,1.472-1.151,2.243-1.634,1.055-.609,1.823-.222,1.985.963a11.6,11.6,0,0,1,.03,1.826,3.661,3.661,0,0,0,3.3.126,25.735,25.735,0,0,0,3.169-2.081c1.409-1.055,2.177-.96,2.723.642a2.5,2.5,0,0,0,2.785,1.952c.129-1.826,1.539-2.627,2.756-3.586q14.553-11.481,29.107-22.927c.545-.417,1.024-.93,1.6-1.409-1.025-2.5-1.889-4.932-2.978-7.238a5.091,5.091,0,0,1,.417-5.412,16.3,16.3,0,0,1,6.021-5.57,12.1,12.1,0,0,1-5.445-7.046,4.36,4.36,0,0,1,.35-4.068c.322-.48.609-.993.963-1.631-7.783-.45-112.816-.225-114.576.255V1702.7H2415.78c.034-.705.13-1.247.13-1.793C2415.91,1697.77,2415.846,1694.6,2415.943,1691.461Zm-96.195-58.728c.543.833,1.022,1.25,1.088,1.763.1.671-.512.926-1.154.926-.734,0-1.343-.35-1.247-1.088C2318.5,1633.854,2319.106,1633.47,2319.748,1632.733Zm-23.922-5.316a4.859,4.859,0,0,1,.77,1.28c.063.321-.258.771-.416,1.121a6.588,6.588,0,0,1-.7-.321c-.225-.413-.608-.863-.608-1.28C2294.866,1627.929,2295.474,1627.674,2295.826,1627.417Z" transform="translate(2.588 18.395)" fill="#2d75cd" opacity="0.36"/></g></svg>