<svg xmlns="http://www.w3.org/2000/svg" width="206.167" height="216.802" viewBox="0 0 206.167 216.802"><g transform="translate(-2259.075 -1279.692)"><path d="M2465.015,1465.3q-4.407-23.029-9.105-46.1a100.263,100.263,0,0,1-2.151-20.819c.125-36.749.041-73.456.041-110.163,0-1.036-.041-2.03-.124-3.063-.332-3.809-1.616-4.966-5.422-4.966l-175.469-.5c-5.214,0-5.5.29-5.5,5.463q.125,60.65.29,121.255a31.115,31.115,0,0,1-.166,4.389q-2.859,19.43-5.794,38.859c-.788,5.463-2.028,10.926-2.276,16.43-.415,9.313-.207,18.623-.207,27.937a2.323,2.323,0,0,0,2.9,2.441,39.214,39.214,0,0,1,4.386-.373h193.475c3.433,0,4.22-.58,5.09-3.767a9.434,9.434,0,0,0,.166-2.441c.042-6,.042-12,.042-18C2465.139,1469.688,2465.43,1467.455,2465.015,1465.3ZM2272.2,1285.2h176.753V1407.86a19.561,19.561,0,0,1-2.151.166q-38.491,0-76.937.041a3.661,3.661,0,0,1-3.267-1.409c-1.948-2.358-4.761-3.184-7.659-3.474a40.053,40.053,0,0,0-12.372.456c-3.021.7-4.3,1.654-5.712,4.3h-4.137v-3.063c0-8.36-.125-16.762.042-25.164a6.465,6.465,0,0,0-4.1-6.537,25.185,25.185,0,0,0-13.492-2.027,47.191,47.191,0,0,0-7.282,1.447,12.316,12.316,0,0,0-3.395,1.82,4.052,4.052,0,0,0-1.82,3.767c.083,8.857.041,17.711.041,26.569v3.1H2272.2Zm30.623,151.467c2.69.373,4.43,1.9,5.877,4.1a8.492,8.492,0,0,0,3.229,2.524,20.5,20.5,0,0,0,16.845,1.115,21.375,21.375,0,0,0,5.587-3.474,45.5,45.5,0,0,0,4.841-4.513,5.174,5.174,0,0,0,.826-1.82,10.157,10.157,0,0,0-1.9-.332c-.332-.041-.663.29-1.2.58V1415.06h4.054a30.83,30.83,0,0,1,0,3.395c-.29,1.986.746,3.1,2.276,4.013a19.3,19.3,0,0,0,8.111,2.486,25.136,25.136,0,0,0,11.713-1.367c2.855-1.077,4.758-2.773,4.261-6.167a12.4,12.4,0,0,1,.166-2.359H2445.4c2.814,15.025,5.629,30.087,8.485,45.4H2270.094c1.986-15.146,3.93-30.087,5.874-44.984,1.989-.7,25.826-.953,30.584-.332v19.825a21.172,21.172,0,0,0-3.27-.7c-.581,0-1.2.622-1.779.953C2301.96,1435.713,2302.333,1436.621,2302.827,1436.663Zm6.291-56.656c0-3.267.374-4.054,3.519-5.049a28.656,28.656,0,0,1,17.38-.166,9.53,9.53,0,0,1,1.782.746,3.945,3.945,0,0,1,2.358,3.975c-.083,7.863-.042,15.684-.042,23.506v4.427c0,9.313-.041,18.623.042,27.937a4.274,4.274,0,0,1-1.823,4.054,21.394,21.394,0,0,1-5.007,2.814,18.786,18.786,0,0,1-13.74-.911,7.08,7.08,0,0,1-4.51-7.117C2309.2,1416.137,2309.118,1398.053,2309.118,1380.007Zm27.646,30.418h4.013c.041.539.083,1.119.125,1.861h-4.054C2336.805,1411.627,2336.805,1411.13,2336.764,1410.425Zm6.91,3.27v-4.14c0-1.986.332-2.566,2.358-3.146a30.387,30.387,0,0,1,15.81.042,3.927,3.927,0,0,1,3.063,4.306,68.778,68.778,0,0,0,0,7.159,2.715,2.715,0,0,1-1.737,2.856,19.018,19.018,0,0,1-4.181,1.367c-4.386.66-8.772.66-13.036-1.077-1.613-.663-2.524-1.613-2.317-3.519A29.754,29.754,0,0,0,2343.674,1413.7Zm-71.553-3.27h34.473v1.82c-.58.041-1.118.166-1.653.166q-13.845.062-27.687.042c-.456,0-.912,0-1.367-.042-1.488-.166-2.151.539-2.317,2.027-.494,4.1-1.074,8.235-1.613,12.334-1.409,10.677-2.814,21.4-4.261,32.073-.125,1.074-.415,2.152-.663,3.561a10.244,10.244,0,0,0,1.778.784,5.46,5.46,0,0,0,1.654.042h183.212c2.772,0,3.187-.456,2.648-3.312q-3.165-17.254-6.416-34.514c-.618-3.35-1.239-6.7-1.9-10.056-.581-2.9-.622-2.9-3.6-2.9h-76.892v-2.068h81.654l11.046,55.745c-2.193.58-192.189.746-195.954.207C2263.885,1464.06,2268.809,1429.3,2272.121,1410.425Zm187.887,80.535H2263.885c-.166-7.283-.041-14.486-.083-21.852h196.164C2460.626,1471.136,2460.708,1488.146,2460.008,1490.96Z" transform="translate(0 0)" fill="#2d75cd"/><path d="M2325.629,1339.827q-14.529,0-29.062,0a24.852,24.852,0,0,1-2.489-.054,5.548,5.548,0,0,1-5.255-5.412,6.085,6.085,0,0,1,5.246-6.148,17.022,17.022,0,0,1,1.934-.029q29.063,0,58.126,0a5.9,5.9,0,0,1,2.187.1c.663.283,1.521.93,1.632,1.539.5,2.715.8,5.473,1.112,8.22.131,1.122-.465,1.733-1.6,1.769-.736.022-1.475.019-2.211.019Zm30.021-8.886c-1.1-.051-2.008-.124-2.91-.124q-28.365-.015-56.727-.007a15.178,15.178,0,0,0-1.661.022,3.155,3.155,0,0,0-2.891,2.846,2.813,2.813,0,0,0,2.107,3.4,7.714,7.714,0,0,0,2.432.351q29.2.024,58.39,0a16.426,16.426,0,0,0,2-.262Z" transform="translate(65.063 105.942)" fill="#2d75cd"/><path d="M2297.381,1311.792a14.71,14.71,0,0,0-4.1-1.613,30.306,30.306,0,0,0-14.154.5c-1.572.415-3.226.829-4.262,3.063a27.961,27.961,0,0,0,2.648,1.405,27,27,0,0,0,13.533,1.368,32.725,32.725,0,0,0,6.125-1.616,2.306,2.306,0,0,0,1.364-1.488A2.255,2.255,0,0,0,2297.381,1311.792Zm-16.8,1.368a26.022,26.022,0,0,1,13.823-.083C2289.395,1314.648,2284.964,1314.731,2280.579,1313.16Z" transform="translate(34.541 65.317)" fill="#2d75cd"/><path d="M2302.085,1320.422a22.949,22.949,0,0,0-14.61.29,2.411,2.411,0,0,0-1.368,1.409c-.121.329.581,1.074,1.078,1.364,2.358,1.45,4.965,1.9,8.526,2.193,1.654-.456,4.137-1.074,6.537-1.9a2.606,2.606,0,0,0,1.616-1.613C2304.071,1321.044,2302.953,1320.712,2302.085,1320.422Zm-9.728,2.068c1.861-.95,3.726-.7,6.084-.411C2296.208,1323.4,2294.261,1322.905,2292.358,1322.491Z" transform="translate(59.096 86.775)" fill="#2d75cd"/><path d="M2306.9,1324.53a3.927,3.927,0,0,0-3.062-4.306,30.387,30.387,0,0,0-15.81-.042c-2.027.58-2.358,1.16-2.358,3.146v4.14a29.754,29.754,0,0,1-.042,3.847c-.207,1.906.7,2.856,2.317,3.519,4.264,1.737,8.65,1.737,13.036,1.077a19.018,19.018,0,0,0,4.181-1.367,2.715,2.715,0,0,0,1.737-2.856A68.778,68.778,0,0,1,2306.9,1324.53Zm-3.56-.207c-2.4.829-4.883,1.447-6.537,1.9-3.561-.29-6.167-.743-8.526-2.193-.5-.29-1.2-1.036-1.078-1.364a2.411,2.411,0,0,1,1.368-1.409,22.949,22.949,0,0,1,14.61-.29c.867.29,1.985.622,1.778,1.74A2.606,2.606,0,0,1,2303.336,1324.323Z" transform="translate(58.008 86.227)" fill="#2d75cd" opacity="0.36"/><path d="M2299.8,1338.626c0-7.822-.041-15.643.042-23.506a3.945,3.945,0,0,0-2.358-3.975,9.53,9.53,0,0,0-1.782-.746,28.656,28.656,0,0,0-17.38.166c-3.145.995-3.519,1.782-3.519,5.049,0,18.046.083,36.13-.041,54.215a7.08,7.08,0,0,0,4.51,7.117,18.786,18.786,0,0,0,13.74.911,21.394,21.394,0,0,0,5.007-2.814,4.274,4.274,0,0,0,1.823-4.054c-.083-9.313-.042-18.623-.042-27.937Zm-2.4-22.8a32.725,32.725,0,0,1-6.125,1.616,27,27,0,0,1-13.533-1.368,27.961,27.961,0,0,1-2.648-1.405c1.036-2.234,2.69-2.649,4.262-3.063a30.306,30.306,0,0,1,14.154-.5,14.71,14.71,0,0,1,4.1,1.613,2.255,2.255,0,0,1,1.157,1.616A2.306,2.306,0,0,1,2297.4,1315.821Z" transform="translate(34.313 64.393)" fill="#2d75cd" opacity="0.36"/><path d="M2290.482,1311.276c-5.007,1.571-9.438,1.654-13.823.083A26.022,26.022,0,0,1,2290.482,1311.276Z" transform="translate(38.46 67.118)" fill="#2d75cd" opacity="0.36"/><path d="M2294.143,1320.4c-2.234,1.322-4.182.825-6.084.411C2289.92,1319.857,2291.785,1320.106,2294.143,1320.4Z" transform="translate(63.396 88.458)" fill="#2d75cd" opacity="0.36"/></g></svg>