<svg xmlns="http://www.w3.org/2000/svg" width="60.442" height="64.122" viewBox="0 0 60.442 64.122"><path d="M399.8-1262.125a30.255,30.255,0,0,0-30.221,30.221,30.284,30.284,0,0,0,11.536,23.742v7.249a2.908,2.908,0,0,0,2.909,2.909h31.554a2.909,2.909,0,0,0,2.909-2.909v-7.249a30.291,30.291,0,0,0,11.534-23.742A30.254,30.254,0,0,0,399.8-1262.125ZM413.9-1211.99a2.908,2.908,0,0,0-1.226,2.373v5.8h-3.206v-2.038a1.939,1.939,0,0,0-1.94-1.939,1.939,1.939,0,0,0-1.94,1.939v2.038h-4.175v-2.038a1.939,1.939,0,0,0-1.94-1.939,1.939,1.939,0,0,0-1.94,1.939v2.038h-4.175v-2.038a1.939,1.939,0,0,0-1.94-1.939,1.939,1.939,0,0,0-1.94,1.939v2.038h-2.542v-5.8a2.912,2.912,0,0,0-1.227-2.374A24.458,24.458,0,0,1,375.4-1231.9a24.43,24.43,0,0,1,24.4-24.4,24.43,24.43,0,0,1,24.4,24.4A24.461,24.461,0,0,1,413.9-1211.99Z" transform="translate(-369.583 1262.125)" fill="#2d75cd"/><path d="M388.778-1231.236a6.762,6.762,0,0,0-6.762,6.761,6.761,6.761,0,0,0,6.762,6.761,6.761,6.761,0,0,0,6.761-6.761A6.762,6.762,0,0,0,388.778-1231.236Z" transform="translate(-369.959 1261.191)" fill="#2d75cd"/><path d="M412.292-1231.236a6.761,6.761,0,0,0-6.761,6.761,6.761,6.761,0,0,0,6.761,6.761,6.761,6.761,0,0,0,6.761-6.761A6.761,6.761,0,0,0,412.292-1231.236Z" transform="translate(-370.669 1261.191)" fill="#2d75cd"/><path d="M400.958-1221.007l-2.844,5.532-2.844,5.532h11.376l-2.844-5.532Z" transform="translate(-370.359 1260.882)" fill="#2d75cd"/></svg>