<svg xmlns="http://www.w3.org/2000/svg" width="60" height="60" viewBox="0 0 60 60"><g transform="translate(-144 -954)"><circle cx="30" cy="30" r="30" transform="translate(144 954)" fill="#2d75cd"/><path d="M6.258.546a3.214,3.214,0,0,0,3.234-3.36A3.287,3.287,0,0,0,6.258-6.258,3.287,3.287,0,0,0,3.024-2.814,3.214,3.214,0,0,0,6.258.546Zm12.516,0a3.214,3.214,0,0,0,3.234-3.36,3.287,3.287,0,0,0-3.234-3.444A3.287,3.287,0,0,0,15.54-2.814,3.214,3.214,0,0,0,18.774.546Zm12.516,0a3.214,3.214,0,0,0,3.234-3.36A3.287,3.287,0,0,0,31.29-6.258a3.287,3.287,0,0,0-3.234,3.444A3.214,3.214,0,0,0,31.29.546Z" transform="translate(154.976 987.258)" fill="#fff"/></g></svg>