<svg xmlns="http://www.w3.org/2000/svg" width="63.334" height="57.304" viewBox="0 0 63.334 57.304"><path d="M426.121-1141.822l-.168-.169a18.87,18.87,0,0,0-26.161-.471,18.707,18.707,0,0,0-12.653-4.879,18.717,18.717,0,0,0-13.324,5.519A18.719,18.719,0,0,0,368.3-1128.5a18.719,18.719,0,0,0,5.519,13.324l24.147,24.148a2.835,2.835,0,0,0,2,.83,2.835,2.835,0,0,0,2.006-.83l24.148-24.148A18.866,18.866,0,0,0,426.121-1141.822Zm-4.011,22.637-22.143,22.142-22.142-22.142a13.085,13.085,0,0,1-3.857-9.313,13.085,13.085,0,0,1,3.857-9.313,13.089,13.089,0,0,1,9.313-3.857,13.089,13.089,0,0,1,9.313,3.857l1.342,1.342a2.835,2.835,0,0,0,4.011,0l1.51-1.509a13.188,13.188,0,0,1,18.627,0l.168.168A13.189,13.189,0,0,1,422.111-1119.185Z" transform="translate(-368.296 1147.5)" fill="#2d75cd"/><path d="M418.672-1119.168h-16.32a1.891,1.891,0,0,0-1.551.809l-1.806,2.59-3.563-6.176a1.889,1.889,0,0,0-1.464-.937,1.885,1.885,0,0,0-1.611.651l-2.623,3.063h-6.123a1.891,1.891,0,0,0-1.891,1.891,1.891,1.891,0,0,0,1.891,1.891h6.993a1.888,1.888,0,0,0,1.435-.661l1.451-1.693,3.714,6.439a1.889,1.889,0,0,0,1.557.943c.027,0,.055,0,.081,0a1.891,1.891,0,0,0,1.551-.808l2.944-4.222h15.333a1.891,1.891,0,0,0,1.891-1.891A1.891,1.891,0,0,0,418.672-1119.168Z" transform="translate(-369.47 1145.347)" fill="#2d75cd"/></svg>