<svg xmlns="http://www.w3.org/2000/svg" width="65" height="65.81" viewBox="0 0 65 65.81"><path d="M635.964-1235.163H617.771c-5.4,0-9.8,4.11-9.8,9.163a9.445,9.445,0,0,0,8.976,9.132v.745c0,5.115,4.448,9.276,9.916,9.276s9.917-4.161,9.917-9.276v-.746a9.443,9.443,0,0,0,8.974-9.13C645.758-1231.053,641.365-1235.163,635.964-1235.163Zm0,14.633H634.81a1.913,1.913,0,0,0-1.974,1.846v2.56a5.792,5.792,0,0,1-5.969,5.583,5.792,5.792,0,0,1-5.968-5.583v-2.56a1.913,1.913,0,0,0-1.974-1.846h-1.155a5.675,5.675,0,0,1-5.848-5.47,5.675,5.675,0,0,1,5.848-5.47h18.193a5.674,5.674,0,0,1,5.846,5.47A5.674,5.674,0,0,1,635.964-1220.53Z" transform="translate(-594.368 1261.568)" fill="#2d75cd"/><path d="M618.5-1227.93a1.953,1.953,0,0,0-1.953,1.953,1.953,1.953,0,0,0,1.953,1.953,1.953,1.953,0,0,0,1.953-1.953A1.953,1.953,0,0,0,618.5-1227.93Z" transform="translate(-594.131 1260.576)" fill="#2d75cd"/><path d="M635.416-1227.93a1.953,1.953,0,0,0-1.953,1.953,1.953,1.953,0,0,0,1.953,1.953,1.953,1.953,0,0,0,1.953-1.953A1.953,1.953,0,0,0,635.416-1227.93Z" transform="translate(-594.781 1260.576)" fill="#2d75cd"/><path d="M658.205-1214.9a2.813,2.813,0,0,0-.1-.639l-4.224-15,1.192-3.124a7.771,7.771,0,0,0-.789-7.141,7.889,7.889,0,0,0-4.072-3.119,25.542,25.542,0,0,0-24.473-17.956,25.541,25.541,0,0,0-24.473,17.956,7.888,7.888,0,0,0-4.073,3.12,7.774,7.774,0,0,0-.788,7.14l1.192,3.124-4.224,15a2.89,2.89,0,0,0-.1.627,5.409,5.409,0,0,0-.031.564c0,4.425,5.027,7.832,14.54,9.852.564.12,2.9.875,9.246,5.545a14.655,14.655,0,0,0,8.708,2.877,14.671,14.671,0,0,0,8.718-2.883c6.323-4.66,8.65-5.412,9.213-5.531,9.536-2.019,14.575-5.429,14.575-9.86A5.18,5.18,0,0,0,658.205-1214.9Zm-15.738,4.783c-.894.189-3.617.766-11.436,6.528a8.892,8.892,0,0,1-10.6,0c-7.841-5.771-10.567-6.349-11.463-6.54-7.419-1.576-9.667-3.625-9.959-4.214l4.382-15.561a2.882,2.882,0,0,0-.082-1.807l-1.533-4.013a2.064,2.064,0,0,1,.21-1.911,2.088,2.088,0,0,1,1.684-.946,2.877,2.877,0,0,0,2.7-2.218,19.817,19.817,0,0,1,19.368-15.335,19.816,19.816,0,0,1,19.368,15.335,2.877,2.877,0,0,0,2.7,2.218,2.088,2.088,0,0,1,1.682.946,2.08,2.08,0,0,1,.209,1.911l-1.532,4.014a2.874,2.874,0,0,0-.081,1.806l4.382,15.56C652.168-1213.746,649.913-1211.691,642.467-1210.114Z" transform="translate(-593.236 1261.881)" fill="#2d75cd"/><path d="M628.638-1216.458h-3.75a1.846,1.846,0,0,0-1.846,1.846,1.847,1.847,0,0,0,1.846,1.847h3.75a1.847,1.847,0,0,0,1.846-1.847A1.846,1.846,0,0,0,628.638-1216.458Z" transform="translate(-594.307 1260.129)" fill="#2d75cd"/></svg>