<svg xmlns="http://www.w3.org/2000/svg" xmlns:xlink="http://www.w3.org/1999/xlink" width="368.75" height="355.743" viewBox="0 0 368.75 355.743"><defs><linearGradient id="a" x1="0.5" x2="0.5" y2="1" gradientUnits="objectBoundingBox"><stop offset="0" stop-color="#84f760"/><stop offset="1" stop-color="#3aaf69"/></linearGradient><linearGradient id="b" x1="0.606" y1="0.5" x2="0.585" y2="1.307" gradientUnits="objectBoundingBox"><stop offset="0" stop-color="#fff"/><stop offset="1" stop-color="#cbcbcb"/></linearGradient><linearGradient id="c" x1="0.5" x2="0.5" y2="1" gradientUnits="objectBoundingBox"><stop offset="0" stop-color="#c3c3c3" stop-opacity="0"/><stop offset="1" stop-color="#c3c3c3"/></linearGradient><linearGradient id="e" x1="0.848" y1="0.709" x2="0.5" y2="1" gradientUnits="objectBoundingBox"><stop offset="0" stop-color="#ffa216"/><stop offset="1" stop-color="#f8cf00"/></linearGradient></defs><g transform="translate(-362.25 -296.405)"><path d="M75.086,0A75.086,75.086,0,1,1,0,75.086,75.086,75.086,0,0,1,75.086,0Z" transform="matrix(0.848, 0.53, -0.53, 0.848, 441.828, 443.569)" opacity="0.81" fill="url(#a)"/><g transform="translate(538.834 524.032)" stroke="#000" stroke-width="4" fill="url(#b)"><path d="M0,0H114.381a0,0,0,0,1,0,0V121.106a3.009,3.009,0,0,1-3.009,3.009H0a0,0,0,0,1,0,0V0A0,0,0,0,1,0,0Z" stroke="none"/><path d="M0-2H114.381a2,2,0,0,1,2,2V121.106a5.009,5.009,0,0,1-5.009,5.009H0a2,2,0,0,1-2-2V0A2,2,0,0,1,0-2Z" fill="none"/></g><rect width="115.192" height="34.283" transform="translate(538.022 524.844)" opacity="0.16"/><g transform="translate(538.423 509.431)" fill="#fff" stroke="#000" stroke-width="4"><path d="M0,0H116.65a3.009,3.009,0,0,1,3.009,3.009V21.327a3.009,3.009,0,0,1-3.009,3.009H0a0,0,0,0,1,0,0V0A0,0,0,0,1,0,0Z" stroke="none"/><path d="M0-2H116.65a5.009,5.009,0,0,1,5.009,5.009V21.327a5.009,5.009,0,0,1-5.009,5.009H0a2,2,0,0,1-2-2V0A2,2,0,0,1,0-2Z" fill="none"/></g><g transform="translate(470.692 524.032)" fill="#fff" stroke="#000" stroke-width="4"><path d="M0,0H68.142a0,0,0,0,1,0,0V124.116a0,0,0,0,1,0,0H3.009A3.009,3.009,0,0,1,0,121.106V0A0,0,0,0,1,0,0Z" stroke="none"/><path d="M0-2H68.142a2,2,0,0,1,2,2V124.116a2,2,0,0,1-2,2H3.009A5.009,5.009,0,0,1-2,121.106V0A2,2,0,0,1,0-2Z" fill="none"/></g><rect width="68.142" height="34.283" transform="translate(470.692 524.844)" fill="#d6d6d6"/><g transform="translate(465.825 509.431)" fill="#fff" stroke="#000" stroke-width="4"><path d="M3.009,0h70a0,0,0,0,1,0,0V24.336a0,0,0,0,1,0,0h-70A3.009,3.009,0,0,1,0,21.327V3.009A3.009,3.009,0,0,1,3.009,0Z" stroke="none"/><path d="M3.009-2h70a2,2,0,0,1,2,2V24.336a2,2,0,0,1-2,2h-70A5.009,5.009,0,0,1-2,21.327V3.009A5.009,5.009,0,0,1,3.009-2Z" fill="none"/></g><rect width="17.035" height="114.381" transform="translate(587.927 533.767)" fill="url(#c)"/><rect width="17.035" height="26.991" transform="translate(595.995 506.878)" fill="url(#c)"/><path d="M0,86.371V0H24.528V61.843H137.1V86.371Z" transform="translate(487.122 393.351) rotate(-45)" fill="#39b269"/><ellipse cx="43.367" cy="43.367" rx="43.367" ry="43.367" transform="translate(611.984 505.642) rotate(-31)" opacity="0.66" fill="url(#e)"/></g></svg>