<svg xmlns="http://www.w3.org/2000/svg" width="65.752" height="62.272" viewBox="0 0 65.752 62.272"><path d="M329.858-1229.581l-29.977-29.978a2.9,2.9,0,0,0-4.1,0L265.8-1229.581a2.9,2.9,0,0,0,0,4.1,2.9,2.9,0,0,0,4.1,0l.569-.569v25.016a2.9,2.9,0,0,0,2.9,2.9h16.11a2.9,2.9,0,0,0,2.487-1.41,2.9,2.9,0,0,0,.414-1.491v-14.91h10.9v14.912a2.9,2.9,0,0,0,2.2,2.813,2.925,2.925,0,0,0,.7.086h16.11a2.9,2.9,0,0,0,2.9-2.9v-25.016l.569.569a2.888,2.888,0,0,0,2.05.849,2.888,2.888,0,0,0,2.05-.849A2.9,2.9,0,0,0,329.858-1229.581Zm-10.466,25.647H309.078v-14.912a2.9,2.9,0,0,0-2.9-2.9H289.484a2.9,2.9,0,0,0-2.9,2.9v14.912H276.271v-27.914l21.561-21.561,21.56,21.56Z" transform="translate(-264.955 1260.408)" fill="#2d75cd"/></svg>