<svg xmlns="http://www.w3.org/2000/svg" xmlns:xlink="http://www.w3.org/1999/xlink" width="210.87" height="261.958" viewBox="0 0 210.87 261.958"><defs><clipPath id="a"><rect width="35.727" height="4.081" fill="#2d75cd"/></clipPath></defs><g transform="translate(-2261.149 -1414.249)"><path d="M2310.84,1474.082c-.314.334-.5.743-.8.853a22.433,22.433,0,0,1-3.115.759c-.246.055-.671-.3-.83-.594-.091-.165.11-.759.273-.776a36.9,36.9,0,0,1,3.8-.928c.153-.035.39.389.672.685" transform="translate(100.802 132.708)" fill="#2d75cd"/><path d="M2308.54,1435.1a4.106,4.106,0,0,1-.876-.649,11.223,11.223,0,0,1-.691-1.333c-.273-.535-.246-1.074.331-1.258a1.22,1.22,0,0,1,1.086.389,4.163,4.163,0,0,1,.724,1.7c.045.3-.331.7-.574,1.148" transform="translate(102.44 39.461)" fill="#2d75cd"/><path d="M2307.679,1474.2a1.657,1.657,0,0,1-.762-.111c-.289-.165-.649-.519-.649-.794s.36-.613.655-.779a1.691,1.691,0,0,1,.918-.094c.63,0,1.311,0,1.5.8.136.574-.484.964-1.664.98" transform="translate(101.235 130.48)" fill="#2d75cd"/><path d="M2300.972,1434.48c.1-.129.367-.778.746-.853.7-.149.864.539.983,1.113a1.81,1.81,0,0,1,.049.369c.065.925-.35,1.684-.924,1.612-.83-.133-.837-.818-.854-1.466v-.776" transform="translate(89.352 43.433)" fill="#2d75cd"/><path d="M2304.513,1457.532c-.564-.13-.986-.091-1.167-.276a5.919,5.919,0,0,1-.685-1.2,8.106,8.106,0,0,1,1.129-.464,2.79,2.79,0,0,1,.755.11c.584.094,1.284.26,1.042,1.019-.121.37-.778.594-1.074.814" transform="translate(93.142 92.737)" fill="#2d75cd"/><path d="M2313.692,1430.073a1.486,1.486,0,0,1,1.238,1.833,1.3,1.3,0,0,1-.83.834c-.545.13-1.126-.905-.967-1.794.056-.354.406-.649.559-.873" transform="translate(116.579 35.505)" fill="#2d75cd"/><path d="M2308.712,1471.722a6.9,6.9,0,0,1-1.551,1.073.71.71,0,0,1-.99-.759c0-.684.552-.963,1.139-.947.35,0,.687.279,1.4.633" transform="translate(101.017 127.532)" fill="#2d75cd"/><path d="M2308.555,1470.143c-.84.386-1.265.756-1.632.7-.389-.059-.986-.464-1.022-.778-.081-.7.536-.983,1.142-.853.393.075.74.425,1.511.928" transform="translate(100.398 123.26)" fill="#2d75cd"/><path d="M2303.1,1457.681c.153-.908.63-1.224,1.249-1.148.263.055.718.629.666.7a2.169,2.169,0,0,1-.97.963c-.25.075-.668-.353-.944-.518" transform="translate(94.122 94.848)" fill="#2d75cd"/><path d="M2304.236,1459.64c-.431-.535-.85-.85-.9-1.219-.035-.2.51-.648.847-.724.515-.094,1.089.146.986.795-.045.315-.461.613-.928,1.148" transform="translate(94.642 97.443)" fill="#2d75cd"/><path d="M2309.544,1547.445c-.116-.279-.5-.668-.762-.668a1.048,1.048,0,0,0-.756.629,4.08,4.08,0,0,0-.087,1.353c-.029,2.112,0,4.22-.029,6.332,0,.484-.091.947-.12,1.317a45.693,45.693,0,0,0-5.2-2.242,5.356,5.356,0,0,1-3.146-7.574c1.012-1.852,2.076-3.668,3.124-5.521a13.363,13.363,0,0,0,.49-13.37,38.4,38.4,0,0,0-4.584-6.315,3.989,3.989,0,0,1-.957-2.776c.055-2.777.085-5.521.085-8.278q.043-25.919.029-51.819c0-.48-.114-.963-.146-1.407-1.048-.221-1.547.425-2.1.928-2.051,1.979-4,4-6.134,5.851a4.8,4.8,0,0,0-1.719,3.961c.113,16.076.136,32.133.171,48.189,0,3.484-.671,6.685-3.536,9.111a9.205,9.205,0,0,0-2.036,2.521,14.432,14.432,0,0,0-2.109,4.463,13.245,13.245,0,0,0,3.3,11.758c2.213,2.462,2.339,4.058.49,6.834a4.587,4.587,0,0,1-1.077,1.333c-1.431,1.148-2.916,2.167-4.645,3.409v-4.538a6.207,6.207,0,0,0-.143-1.518.956.956,0,0,0-.7-.538,1.038,1.038,0,0,0-.707.518,2,2,0,0,0-.113.925c-.023,5.816-.023,11.612,0,17.448,0,1.593.5,2.053,2.108,2.053,9.66.039,19.3.039,28.967,0,2,0,2.15-.2,2.15-2.238v-18.817a4.1,4.1,0,0,0-.11-1.314m-19.274-82.082c1.809-1.668,3.532-3.461,5.319-5.223.523,1.538.49,48.8-.071,50.5h-5.978a13.794,13.794,0,0,1-.2-1.463q0-20.723-.026-41.41a3.141,3.141,0,0,1,.961-2.41m-2.157,58.987a35.3,35.3,0,0,1,.9-4.129,19.152,19.152,0,0,0,.444-6.04c-.033-.46,0-.924,0-1.479h6.007a1.1,1.1,0,0,1,.2.351c.27,5.147.5,10.3.737,15.482.032.629.032,1.278.032,1.962a11.578,11.578,0,0,1-8.45,1.168,28.074,28.074,0,0,1,.127-7.315m19.764,38.334c-.059.649-.2,1.262-.318,1.907-.237,1.113-.5,2.222-.765,3.409-.577.036-1.077.11-1.573.11h-24.734c-2.043,0-2.1-.02-2.076-2,.033-1.907.126-3.831.266-5.722a6.521,6.521,0,0,1,3.568-5.721,9.044,9.044,0,0,0,3.53-3.7c1.894-3.425,1.2-4.963-.578-7.63-.182-.259-.445-.464-.649-.7a11.5,11.5,0,0,1-.7-13.724c.59-.889,1.2-1.7,1.816-2.591a2.008,2.008,0,0,1,.4.2c0,1.463-.026,2.926,0,4.369.032,1.631.441,2.277,1.995,2.6a13.874,13.874,0,0,0,9.106-1.281,1.869,1.869,0,0,0,1.025-1.924c0-1.258,0-2.536.023-3.814,0-.613.032-1.242.09-2.316,2.19,2.316,3.8,4.444,4.234,7.24a12.585,12.585,0,0,1-2.157,9.854,21.861,21.861,0,0,0-2.542,4.7c-1.843,4.129-.15,8.129,4.061,9.8.75.3,1.515.649,2.3.908,2.975,1,3.828,3.649,3.679,6.036" transform="translate(34.245 96.054)" fill="#2d75cd"/><path d="M2261.149,1573.13a7.07,7.07,0,0,0,.743-1.684c.947-6,1.788-12.038,3.9-17.763,1.9-5.148,2.851-10.649,5.449-15.518,2.689-5.037,4.369-10.5,6.673-15.687a8.847,8.847,0,0,0,.736-2.575,14.744,14.744,0,0,1,2.2-5.887,31.273,31.273,0,0,1,7.847-9.352,24.243,24.243,0,0,0,5.031-5.223q3.638-5.084,7.288-10.133a4.686,4.686,0,0,0,.9-3.017c-.11-6.575-.15-13.186-.208-19.78a18.548,18.548,0,0,1,.065-2.3c.211-2.037.327-2.148,2.354-2.647.422-4.723-.25-9.52.5-14.389h45.9v14.334c2.041.665,2.147.814,2.157,3.127q.128,19.866.221,39.745.209,47.06.406,94.081c.013,3.7-.15,3.85-3.918,3.85H2306c-.584,0-1.156.019-1.733-.019a1.879,1.879,0,0,1-1.992-1.888c-.087-.665-.12-1.369-.184-2.112a1.913,1.913,0,0,0-.681.075c-3.717,2.352-7.727,2.205-11.856,1.612a7.637,7.637,0,0,1-4.279-2.2c-7.094-6.559-14.246-13.059-21.36-19.6-1.012-.944-1.846-2.092-2.764-3.13Zm88.11-106.618c.438-1.054.1-1.388-.727-1.388-1.738.019-3.464.055-5.186.055q-17.847.029-35.71.074c-.613,0-1.236.094-1.81.149a3.181,3.181,0,0,0-.214.7q-.049,19.006-.065,38a3.42,3.42,0,0,0,.127.759c.012.039.045.13.091.149.042.055.117.055.327.13a6.217,6.217,0,0,1,7.594.964c5.969,5.333,8.609,11.778,7.043,19.741a34.784,34.784,0,0,1-5.709,13.111c-2.79,4.038-5.82,7.927-8.674,11.947a4.06,4.06,0,0,0-.733,2.076,56.978,56.978,0,0,0-.019,6.147c.233,3.834.169,7.629.061,11.483-.246,8.8-.084,17.649-.075,26.481a14.045,14.045,0,0,0,.139,1.5h44.267c-.081-40.579-.094-80.934-.422-121.27a14.544,14.544,0,0,1-1.93-.315c-.214-.071-.4-.48-.432-.74a.709.709,0,0,1,.39-.574,7.88,7.88,0,0,1,1.313-.224c.759-.127.659-.63.4-1.424a29.12,29.12,0,0,1-3.13-.039c-.3-.016-.552-.555-.825-.834.263-.221.51-.61.8-.684.752-.11,1.531-.016,2.3-.091,1.054-.094,1.048-.11.794-1.631h-2.073a13.263,13.263,0,0,1-2.3-.075,1.508,1.508,0,0,1-1.035-.814c-.12-.63.478-.814,1.029-.834,1.213-.016,2.433,0,3.646-.035a3.515,3.515,0,0,0,.905-.3l-.052-.428H2346a11.4,11.4,0,0,1-2.106-.055,1.5,1.5,0,0,1-.8-.889c-.059-.13.418-.61.723-.7a6.042,6.042,0,0,1,1.518-.129h3.918m-45.468,25.187c-.13-.036-.252-.094-.379-.129-.2.24-.415.483-.6.723-3.5,4.888-7.012,9.777-10.48,14.665a5.517,5.517,0,0,1-2.806,2.446,6.745,6.745,0,0,0-2.2,1.517,14.468,14.468,0,0,0-5.063,9.6,19.123,19.123,0,0,1-2.906,9.017,18.677,18.677,0,0,0-.882,1.707,161.715,161.715,0,0,0-10.9,27.815c-1.353,4.5-1.755,9.278-2.624,13.926a3.107,3.107,0,0,0,1.291,3.13c6.218,5.612,12.375,11.3,18.574,16.945,3.023,2.76,3.023,2.78,6.974,3.39a11.726,11.726,0,0,0,8.145-1.424c.989-.594,1.917-1.261,2.906-1.832a1.744,1.744,0,0,0,.964-1.707c-.062-1.982-.02-3.964-.052-5.945a5.287,5.287,0,0,0-.243-1.7c-.159-.425-.542-1.018-.885-1.054a2.275,2.275,0,0,0-1.47.59c-.321.262-.415.762-.655,1.132-.934,1.538-1.862,3.056-2.845,4.573-.282.409-.837.815-1.272.315a1.557,1.557,0,0,1-.042-1.353c.463-.908,1.135-1.7,1.634-2.591a59.487,59.487,0,0,0,5.1-13.205,16.019,16.019,0,0,0,.648-6.205c-.593-.35-1.362-.535-1.439-.886-.1-.428.337-1,.61-1.483.12-.2.519-.243.626-.428a4.379,4.379,0,0,0,.263-1.148c-.843.613-1.476,1.132-2.189,1.557-.253.149-.918.111-.989-.039a1.526,1.526,0,0,1-.032-1.164c.133-.315.574-.5.837-.778a4.431,4.431,0,0,0,1.6-3.205c-.938.854-1.706,1.612-2.553,2.28-.565.445-1.314.795-1.84,0-.532-.778.243-1.077.776-1.427a5.681,5.681,0,0,0,2.309-2.741c-1.1.759-1.916,1.333-2.738,1.907-.48.351-1.031.724-1.524.149s-.09-1.073.376-1.463a18.74,18.74,0,0,0,2.352-1.946c2.468-2.851,4.989-5.667,7.243-8.683,3.439-4.593,7.078-9.076,9.414-14.429,1.888-4.314,3.267-8.742,2.342-13.556a18.075,18.075,0,0,0-7.467-11.651c-2.144-1.518-4.243-1.035-5.751,1.168-.246.35-.431.743-.681,1.148a16.066,16.066,0,0,1,6.876,4.2c2.6,2.391,2.164,4.3.478,6.315-1.849,2.187-3.814,4.3-5.826,6.351-1.787,1.836-3.069,1.761-4.884-.13a12.614,12.614,0,0,0-5.372-3.221c-2.271,3.445-4.49,6.8-6.676,10.186a13.756,13.756,0,0,1-4.768,4.314c-.552.315-1.291.632-1.71-.11-.438-.795.364-1,.85-1.424a22.251,22.251,0,0,0,4.019-3.743c5.031-7.48,9.893-15.094,14.833-22.632a4.211,4.211,0,0,0,.718-2.517c-.04-3.075-.01-6.15-.01-9.222Zm43.041-30.374c0-3.257.02-6.387-.013-9.517a1.282,1.282,0,0,0-1.33-1.333c-.389-.019-.771-.019-1.158-.019q-16.981.029-33.965.075c-1.731,0-2.1.389-2.121,2.147q-.039,2.5,0,5c.016,1.2.094,2.388.163,3.646Zm-49.1,59.616c.172.2.24.334.337.389a16.087,16.087,0,0,1,5.46,3.779c.681.776,1.345.461,1.939-.185,1.619-1.706,3.241-3.429,4.824-5.167a18.839,18.839,0,0,0,1.527-1.966,1.7,1.7,0,0,0-.237-2.406,17.429,17.429,0,0,0-2.494-2.352,22.364,22.364,0,0,0-3.73-1.832,1.4,1.4,0,0,0-1.911.778c-.782,1.314-1.6,2.612-2.419,3.889-1.1,1.7-2.213,3.406-3.3,5.073" transform="translate(0 73.885)" fill="#2d75cd"/><path d="M2439.516,1581.551c-1.164-3.575-2.3-7.188-3.8-10.633-2.543-5.813-5.164-11.554-7.12-17.575-.671-2.131-1.4-4.259-1.959-6.425-1.339-5.2-2.686-10.39-3.853-15.632-.548-2.517-.814-5.148-1.165-7.759-.38-3.036-.843-6.075-.97-9.111-.224-7.149-.263-14.3-.341-21.484-.033-.444-.094-.888-.127-1.314-.26-3.185-.548-6.37-.782-9.556-.149-1.966-.029-3.964-.325-5.926-.726-4.707-1.288-9.445-2.189-14.169-1.493-7.833-4.055-15.427-6.108-23.15a44.971,44.971,0,0,0-6.393-14.075,13.225,13.225,0,0,0-8.605-5.981,21.433,21.433,0,0,0-5.144-.185,3.129,3.129,0,0,1-2.832-1.018c-2.134-2-4.668-3.611-7.707-3.26-4,.408-8.022.944-11.593,3.036a2.087,2.087,0,0,1-2.134,0,14.826,14.826,0,0,0-4.321-1.408,15.92,15.92,0,0,0-7.554,1.018,36.638,36.638,0,0,0-9.965,5.706,2.917,2.917,0,0,1-2.222.834,9.209,9.209,0,0,0-5.982,1.722,138.717,138.717,0,0,0-14.921,12.3c-2.011,1.813-4.054,3.536-6.208,5.148a49.238,49.238,0,0,0-9.521,8.573,3.111,3.111,0,0,0-.768,2.816c.243.944.356,1.871.59,3h-27.74a2.3,2.3,0,0,0-2.072,1.129c-.441.892.262,1.427.817,1.966,1.989,2.073,4.061,4.09,6.01,6.221a3.641,3.641,0,0,0,3.01,1.259c7.237-.036,14.487,0,21.69,0h2.017c.322.629.585,1.132.876,1.631,2.4,4.35,4.847,8.7,7.186,13.072a38.122,38.122,0,0,1,1.7,4.113c.9,2.2,1.982,4.389,2.711,6.7,1.9,5.946,3.595,11.982,5.463,17.944a50.926,50.926,0,0,0,2.826,7.538,70.621,70.621,0,0,0,13.555,19.391,23.176,23.176,0,0,0,9.1,5.888c1.521.5,3.05,1.073,4.531,1.592.672.224,1.317.425,1.49,1.3.467,2.647,1.048,5.278,1.518,7.889.649,3.649,1.142,7.334,1.781,10.983a109.691,109.691,0,0,1,1.989,13.222c.116,2.426.321,4.853.577,7.243.325,3.185.678,6.371,1.145,9.517.522,3.445,1.139,6.928,1.785,10.37a14.942,14.942,0,0,0,.781,2.744c.5,1.2,1.288,1.628,2.19,1.349.908-.3,1.17-1.148.853-2.388-.558-2.186-1.08-4.333-1.547-6.52-1.232-5.5-1.5-11.129-2.076-16.705-.3-2.612-.3-5.239-.642-7.834-.5-3.72-1.226-7.409-1.843-11.11-.879-5.222-1.745-10.448-2.621-15.725-.269-1.389-.561-2.8-.792-4.11a18.259,18.259,0,0,0,2.741.185c.318-.035.617-.538.934-.8-.285-.276-.584-.795-.908-.834-1.044-.091-2.1-.036-2.948-.036-.954-.535-1.778-1.074-2.622-1.463a45.7,45.7,0,0,0-5.378-2.057,15.2,15.2,0,0,1-6.247-3.574,47.155,47.155,0,0,1-9.6-11.389,68.312,68.312,0,0,1-5.427-9.89c-2.134-5.462-3.834-11.129-5.521-16.741a127.323,127.323,0,0,0-4.649-13.815c-2.267-5.207-4.784-10.316-7.2-15.447-1.084-2.316-1.119-2.277.876-3.7.526-.389,1.048-.759,1.574-1.109,1.758-1.168,2.828-1.074,4.058.7a34.569,34.569,0,0,1,2.688,4.814c.7,1.427,1.129,2.981,1.69,4.427,1.255.091,1.437-.389,1.171-1.391a24.11,24.11,0,0,0-4.149-9,9.124,9.124,0,0,1-.7-1.223c4.123-.26,7.744.535,10.341,3.536a27.424,27.424,0,0,1,4.873,7.334c1.966,4.7,3.363,9.63,4.937,14.464a4.39,4.39,0,0,1-.088,1.833c-.084.853-.318,1.742-.38,2.63,0,.224.435.484.7.743.587-1.093,1.551.111,2.365-.409a16.563,16.563,0,0,0-.354-1.832c-1.723-6.021-3.588-12-5.161-18.039-1.028-3.834-1.777-7.7-2.948-11.518-.734-2.3-1.145-4.687-1.7-7.058-.322-1.369-.639-2.741-.964-4.09-.11-.519-.259-1.057-1.1-.872-.594,1.631.727,3.111.431,4.888-.814.648-1.719,1.353-2.6,2.1a5.967,5.967,0,0,1-4.062,1.369c-4.227-.091-8.462-.035-12.67-.035-3.7,0-3.7,0-5.109-3.39a2.676,2.676,0,0,1-.146-.629,12.334,12.334,0,0,1,1.2-1.408c1.547-1.463,3.1-2.89,4.675-4.3q10.82-9.721,21.635-19.391a12.706,12.706,0,0,1,2.75-1.777,6.387,6.387,0,0,1,7.438,1.168,35.78,35.78,0,0,1,2.894,3.3c2.66,3.425,3.912,7.448,4.96,11.558,1.255,5.037,2.575,10.02,3.889,15.022.088.256.49.441.781.684a3.651,3.651,0,0,0,.062-3.114c-1.372-5.183-2.715-10.39-4.155-15.573a26.96,26.96,0,0,0-4.6-9.611c-1.062-1.353-2.255-2.595-3.478-4.038a7.907,7.907,0,0,1,1.022-1.278,24.112,24.112,0,0,1,10.889-5.777,7.29,7.29,0,0,1,8.171,2.851,28.14,28.14,0,0,1,4.385,8.463c2.423,7.779,4.146,15.687,5.9,23.631a12.177,12.177,0,0,0,.554,1.391c.9-1.132.96-1.207.606-2.556-1.781-7.484-3.328-14.983-5.6-22.317a30.611,30.611,0,0,0-4.035-8.427c-.26-.425-.554-.834-.931-1.369a33.846,33.846,0,0,0,3.1-1.446,16.568,16.568,0,0,1,8.606-2.128,9.181,9.181,0,0,1,8.852,5.313,33.2,33.2,0,0,1,2.478,6.631c1.81,6.724,3.454,13.5,5.2,20.244.149.574.114,1.667,1.139,1.349.908-.276.294-1.109.149-1.664-.82-3.315-1.755-6.65-2.6-10-1.407-5.647-2.433-11.389-4.9-17.055a8.642,8.642,0,0,1,1.982-.778,8.875,8.875,0,0,1,7.272,2.205,24.158,24.158,0,0,1,6.981,11.094c3.062,9.815,5.66,19.777,8.375,29.667.97,3.574,1.106,7.185,1.551,10.779.351,3.095.263,6.277.671,9.352.879,6.614.846,13.241,1.083,19.91.172,4.759-.353,9.576.373,14.334.584,4,.993,8,1.723,11.927a145.707,145.707,0,0,0,5.054,19.871c1.249,3.74,2.634,7.444,4,11.149.967,2.592,2.073,5.113,3.01,7.685,1.567,4.373,3.089,8.8,4.61,13.205a1.306,1.306,0,0,0,1.573,1.018c1.635-.165,2.284-.964,1.726-2.627m-123.482-120.861a11.043,11.043,0,0,1-.931.814c-1.229.8-2.507,1.518-3.707,2.371a4.211,4.211,0,0,1-2.482.759c-7.3-.036-14.571-.036-21.872,0a3.26,3.26,0,0,1-2.544-1.038c-.869-.924-1.8-1.758-3-2.906Z" transform="translate(32.306 0)" fill="#2d75cd"/><path d="M2306.5,1516.28c-.059.649-.2,1.262-.319,1.907-.237,1.112-.5,2.222-.765,3.409-.577.036-1.077.111-1.573.111h-24.734c-2.043,0-2.1-.02-2.076-2,.032-1.907.126-3.831.266-5.722a6.522,6.522,0,0,1,3.568-5.721,9.045,9.045,0,0,0,3.53-3.7c1.894-3.425,1.2-4.963-.578-7.63-.182-.259-.445-.464-.649-.7a11.5,11.5,0,0,1-.7-13.724c.59-.889,1.2-1.7,1.816-2.591a2.009,2.009,0,0,1,.4.2c0,1.463-.027,2.926,0,4.369.032,1.631.441,2.277,1.995,2.6a13.873,13.873,0,0,0,9.105-1.281,1.869,1.869,0,0,0,1.025-1.924c0-1.258,0-2.536.023-3.814,0-.613.033-1.242.09-2.316,2.19,2.316,3.8,4.444,4.234,7.24a12.585,12.585,0,0,1-2.157,9.854,21.848,21.848,0,0,0-2.543,4.7c-1.843,4.129-.15,8.129,4.061,9.8.75.3,1.515.649,2.3.908,2.975,1,3.828,3.649,3.679,6.036" transform="translate(35.626 142.459)" fill="#2d75cd" opacity="0.36"/><path d="M2288.554,1492.008a11.553,11.553,0,0,1-8.44,1.168,27.569,27.569,0,0,1,.117-7.314,35.312,35.312,0,0,1,.9-4.129,19.37,19.37,0,0,0,.444-6.056c-.036-.444,0-.908,0-1.463h6.007a1.218,1.218,0,0,1,.2.351c.269,5.147.5,10.315.733,15.482.035.648.035,1.278.035,1.962" transform="translate(42.127 134.543)" fill="#2d75cd" opacity="0.36"/><path d="M2286.605,1508.513h-5.982c-.054-.5-.2-1.018-.2-1.483q0-20.693-.033-41.39a3.077,3.077,0,0,1,.967-2.41c1.81-1.684,3.535-3.461,5.313-5.223.526,1.538.5,48.8-.062,50.5" transform="translate(43.165 98.186)" fill="#2d75cd" opacity="0.36"/><g transform="translate(2313.408 1460.578)" opacity="0.36"><g clip-path="url(#a)"><path d="M2312.98,1428.532a11.956,11.956,0,0,1-.963.842c-1.275.826-2.6,1.57-3.838,2.453a4.338,4.338,0,0,1-2.567.785c-7.545-.037-15.066-.037-22.618,0a3.393,3.393,0,0,1-2.63-1.074c-.9-.956-1.869-1.818-3.1-3.006Z" transform="translate(-2277.257 -1428.531)" fill="#2d75cd"/></g></g></g></svg>