<svg xmlns="http://www.w3.org/2000/svg" width="263.991" height="179.243" viewBox="0 0 263.991 179.243"><g transform="translate(-695 -5352.524)"><g transform="translate(695 5352.524)"><path d="M1951.939,1512.666c-.882,1.661-3.22,3.144-5.062,2.888a3.137,3.137,0,0,1-2.01-1.193c-1.586-2.492-3.541-4.82-3.582-7.991a2.219,2.219,0,0,0-.628-1.268q-16.546-20.463-33.115-40.915c-.82-1-1.627-2.034-2.482-3.107.588-.844,1.071-1.542,1.733-2.512.67.779,1.231,1.33,1.747,1.962q16.986,21.3,34.078,42.658a11.824,11.824,0,0,0,2.033,1.712c2.256,1.726,4.553,3.466,6.841,5.172a1.79,1.79,0,0,1,.448,2.595" transform="translate(-1831.591 -1383.869)" fill="#e3edf9"/><path d="M1955.568,1453.365c-.517.034-.78.524-.968,1.074-4.437,10.982-8.873,21.964-13.389,32.957q-7.6,18.535-15.241,37.018c-.26.66-.595,1.285-1.115,2.359-.851-3.155-1.736-5.8-4.139-7.766.369-.861.667-1.716,1.032-2.5q13.049-30.06,26.087-60.084a17.032,17.032,0,0,0,1.073-2.734.906.906,0,0,0,0-.475Z" transform="translate(-1793.73 -1396.801)" fill="#e3edf9"/><path d="M1939.718,1449.987a6.5,6.5,0,0,0-.739.919c-.9,1.583-.892,1.583-2.475.321-.157.29-.24.667-.472.823-.424.274-1.087.725-1.367.568a1.713,1.713,0,0,1-.687-1.391,5.658,5.658,0,0,1,2.419-3.907c.582.284,1.166.806,1.706.758,1.678-.143,1.736.78,1.562,1.99Z" transform="translate(-1761.675 -1411.063)" fill="#2d75cd"/><path d="M1953.86,1470.56c.834-1.744,1.694-3.476,2.5-5.237.356-.786.274-1.941,1.573-1.832.851.065,1.145.964.6,2.492a45.831,45.831,0,0,1-2.338,5.421,2.178,2.178,0,0,1-1.753.933c-.94-.185-.688-1.118-.506-1.859Z" transform="translate(-1713.818 -1371.98)" fill="#2d75cd"/><path d="M1957.479,1481.164a20.447,20.447,0,0,1-1.976,2.017,3.48,3.48,0,0,1-1.511.293c-.075-.513-.358-1.1-.171-1.5a17.7,17.7,0,0,1,1.791-2.878c.25-.328.991-.7,1.162-.568a2.441,2.441,0,0,1,.756,1.32,4.575,4.575,0,0,1-.131,1.377l.079-.058" transform="translate(-1713.832 -1335.673)" fill="#2d75cd"/><path d="M1950.2,1454.888a3.067,3.067,0,0,0-.048-.489c-.184-.759-.284-1.62.591-1.9,1.039-.311,1.46.578,1.661,1.395a11.9,11.9,0,0,1,.383,2.649c.027.752-.215,1.651-1.165,1.5-.431-.075-.834-.844-1.073-1.384a8.964,8.964,0,0,1-.42-1.836Z" transform="translate(-1722.845 -1398.689)" fill="#2d75cd"/><path d="M1955.34,1469.136c-.663.119-1.37,1.035-1.955.126a2.7,2.7,0,0,1-.086-1.832,8.893,8.893,0,0,1,.916-2.523c.225-.4.844-.595,1.292-.868.242.465.737.981.673,1.412a35.567,35.567,0,0,1-.926,3.766l.085-.081" transform="translate(-1715.221 -1370.637)" fill="#2d75cd"/><path d="M1946.53,1449.024a3.534,3.534,0,0,1-.393,1.238,1.5,1.5,0,0,1-1.168.578c-.345-.065-.721-.622-.807-1.019a3.015,3.015,0,0,1,.106-1.7c.181-.437.7-.742,1.07-1.108.362.376.762.725,1.08,1.129.13.174.072.475.112.878" transform="translate(-1737.212 -1411.796)" fill="#2d75cd"/><path d="M1955.28,1465.869c-.8.753-1.321,1.57-2.028,1.781-.732.219-1.019-.571-.934-1.3.1-1.018.934-1.972,1.62-1.743.432.14.725.67,1.341,1.264" transform="translate(-1717.347 -1369.353)" fill="#2d75cd"/><path d="M1951.938,1453.795a2.221,2.221,0,0,1-.359.855,8.864,8.864,0,0,1-1.238.861c-.376-.568-.984-1.1-1.049-1.7-.083-.714.547-1.166,1.319-.844a9.419,9.419,0,0,1,1.4.871l-.069-.048" transform="translate(-1724.65 -1397.654)" fill="#2d75cd"/><path d="M1952.822,1464.258c.547.861,1.11,1.395,1.008,1.688a6.814,6.814,0,0,1-1.193,1.631c-.393-.328-1.135-.759-1.08-.981a10.851,10.851,0,0,1,1.265-2.338" transform="translate(-1719.162 -1370.108)" fill="#2d75cd"/><path d="M1952.871,1479.791a16.263,16.263,0,0,1,2.085-1.193,1.757,1.757,0,0,1,.688,1.025c.027.865-.886,1.672-1.586,1.4-.366-.147-.615-.6-1.186-1.227" transform="translate(-1715.978 -1335.435)" fill="#2d75cd"/><path d="M1948.066,1448.181c-.551.447-.886.923-1.234.943-.721.038-1.316-.441-1.1-1.21a1.441,1.441,0,0,1,1.1-.871c.39.037.731.632,1.234,1.138" transform="translate(-1733.357 -1411.739)" fill="#2d75cd"/><path d="M1945.962,1449.97c-.51-.752-1.012-1.176-.985-1.562s.581-.749.906-1.118c.343.348.91.67.971,1.056.045.383-.43.834-.892,1.624" transform="translate(-1735.068 -1411.136)" fill="#2d75cd"/><path d="M1949.394,1453.219c.537.584,1.1.954,1.07,1.22-.079.437-.543.834-.831,1.244-.358-.283-.981-.55-1-.861-.021-.42.4-.878.762-1.6" transform="translate(-1726.232 -1396.801)" fill="#2d75cd"/><path d="M1935.639,1448.551c.23-.212.479-.615.684-.6a2.569,2.569,0,0,1,1.347.53c.133.11-.068.981-.205,1.012a2.91,2.91,0,0,1-1.466-.15c-.177-.062-.205-.568-.3-.868l-.054.082" transform="translate(-1757.647 -1409.552)" fill="#2d75cd"/><path d="M2147.369,1559.443c.073-8.1-3.51-14.623-8.845-20.317a60.726,60.726,0,0,0-5.179-4.481,1.432,1.432,0,0,1-.075-.249c.113-.752.26-1.45.376-2.191,1.179-7.288,1.07-14.438-1.593-21.425-2.293-5.961-5.181-11.468-10.732-15.026-1.6-1-2-2.174-2.181-3.989-.82-7.958-3.887-14.77-10.771-19.388-1.477-1-3.141-1.771-4.771-2.669,0-2.954.187-5.913-.069-8.839a51.445,51.445,0,0,0-4.484-16.869,21.51,21.51,0,0,0-4.18-6.1c-1.334-1.449-2.923-1.3-4.557-.927a1.78,1.78,0,0,0-1.361,2.294c.663,2.916.075,5.691-.557,8.542-1.405,6.518-5.8,10.142-11.765,12.141-2.813.923-5.78,1.409-8.631,2.143-6.8,1.815-12.794,4.779-16.24,11.4a3.145,3.145,0,0,1-2.036,1.634,44.934,44.934,0,0,0-12.248,6.252,22.389,22.389,0,0,0-8.025,8.884c-1.142,2.474-2.373,4.878-3.627,7.534-10.026.779-17.172,6.74-22.717,14.441a45.428,45.428,0,0,0-8.436,19.306,9.22,9.22,0,0,1-.448,1.6c-2.735,1.145-5.4,2.256-8.172,3.445-4.335-5.178-8.663-10.367-12.914-15.583a2.335,2.335,0,0,1-.188-1.815c1-4.146,2.222-8.241,3.152-12.431a76.913,76.913,0,0,0,1.846-10.692,20.02,20.02,0,0,0-3.517-12.65c-2-2.923-4.252-5.664-6.468-8.443-1.706-2.174-3.449-4.4-5.294-6.508q-8.44-9.711-16.989-19.309c-1.548-1.778-3.253-3.483-4.99-5.117-1.378-1.255-3.152-.732-3.367.974a3.054,3.054,0,0,0,.806,2.143c1.487,1.661,3.115,3.172,4.6,4.85,5.774,6.474,11.571,12.873,17.2,19.456,3.887,4.59,7.623,9.321,11.065,14.253a16.462,16.462,0,0,1,2.741,11.232c-.479,5.483-2.149,10.661-3.367,15.953-.519,2.143-1.186,4.252-1.778,6.436a3.516,3.516,0,0,1-.779-.479c-2.328-2.888-4.7-5.728-6.952-8.689a5.139,5.139,0,0,1-1.032-2.659c-.26-6.125-3.3-10.589-7.953-14.137-4.7-3.6-10.139-5.4-15.69-7a9.09,9.09,0,0,0-1.227-.229c-.814-.061-1.665,0-1.665.927-.034.413.7,1,1.224,1.193,1.22.441,2.547.659,3.805,1.063,4.555,1.449,9,3.189,12.77,6.262,3.4,2.731,5.773,6.1,6.32,10.541a7.562,7.562,0,0,1-1.917,5.961,6.191,6.191,0,0,1-7.51,1.4c.147-.806.365-1.586.444-2.4.366-3.521-1.076-5.592-4.552-6.553-1.806-.513-2.479-.147-3.067,1.668-.591,1.77-1.227,3.548-1.853,5.288-1-.144-1.706-.3-2.441-.4-7.26-1-14.506-1.969-21.763-3a22.278,22.278,0,0,1-13.765-7.178c-4.4-5-8.285-10.469-10.165-17.053-1.19-4.105-2.188-8.258-3.34-12.357-.178-.67-.7-1.743-1.029-1.743a4.951,4.951,0,0,0-2.372.954,1.679,1.679,0,0,0-.482,1.3,7.617,7.617,0,0,0,.191,2.475c.694,2.707,1.507,5.366,2.212,8.07a43.689,43.689,0,0,0,7.076,14.869c3.581,4.888,7.314,9.478,13.016,12.175,4.888,2.338,9.7,4.546,15.252,4.4.957-.034,1.921.147,2.81.2,2.659,8.689,4.509,10.395,11.693,10.992,2.806,3.391,5.838,6.508,10.469,7.352.628.923,1.186,1.925,1.884,2.851,2.888,3.924,6.921,5.773,11.581,6.3,2.964.332,6.549-1,7.185-4.922a19.309,19.309,0,0,1,.844-2.752c2.888,3.935,5.551,7.557,8.067,10.993-7.841,13.724-8.173,27.082.3,40.706a4.71,4.71,0,0,0-.4.551c-3.527,4.693-5.26,9.789-3.817,15.768a49.72,49.72,0,0,1,.851,6.583,7.419,7.419,0,0,0,2.851,5.281,8.882,8.882,0,0,0,10.182.861,56.578,56.578,0,0,0,6.245-4.4,17.753,17.753,0,0,1,2.037-1.374c2.693-1.337,5.778-2.256,8.146-4.016,2.583-2,5.028-1.87,7.8-1.118.56.147,1.111.294,1.7.4,3.962.626,7.92,1.433,11.913,1.815,5.151.479,10.323.882,15.5.882,6.853,0,13.693.585,20.506-.294,7.435-.916,14.868-1.579,22.307-2.55a89.72,89.72,0,0,0,17.575-3.7,30.059,30.059,0,0,1,4.553-1.155,133.872,133.872,0,0,0,24.641-7.024c7.254-2.622,12.4-7.736,15.912-14.428a27.066,27.066,0,0,0,2.889-12.432c-.041-1.955-.225-3.951-.188-5.913m-211.051-38.3c-3.186.219-4.966-1.558-6.409-3.514-1.549-2.143-.185-4.546,2.523-4.59a37.139,37.139,0,0,1,4.327.376c-.153,2.731-.294,5.141-.441,7.729m6.765-14.284c3.329.742,4,2.523,2.256,6.18-1.292-.332-2.618-.66-4.136-1.067.7-1.887,1.289-3.517,1.881-5.114m3.705,20.868a3.2,3.2,0,0,1-.961.154c-3.7-.3-7.7-5.407-7.106-8.993a4.549,4.549,0,0,1,5.592-3.767c1.661.366,3.247.954,5.1,1.511-.889,3.8-1.74,7.362-2.625,11.1m16.062,7.369c-.632,1.815-1.746,2.547-3.524,2.147-4.4-.964-7.7-3.374-9.247-7.667a10.22,10.22,0,0,1-.372-4.584,34.56,34.56,0,0,1,1.63-5.931,3.75,3.75,0,0,1,3.07-2.512,2.342,2.342,0,0,1,2.587.926c2.632,3.374,5.37,6.666,8.217,10.186-.813,2.574-1.593,4.987-2.362,7.435m-3.339-18.061c-.811-1-1.621-2.034-2.475-3.107.592-.844,1.073-1.548,1.74-2.513.663.78,1.224,1.33,1.736,1.951q16.982,21.319,34.082,42.669a11.063,11.063,0,0,0,2.033,1.7c2.26,1.743,4.546,3.483,6.844,5.189a1.785,1.785,0,0,1,.444,2.595c-.892,1.661-3.22,3.144-5.073,2.888a3.113,3.113,0,0,1-1.992-1.193c-1.594-2.474-3.556-4.8-3.59-7.991a2.115,2.115,0,0,0-.628-1.248q-16.547-20.494-33.122-40.935m14.578,49.569c-.366-7.277,1.33-13.86,6.922-19.333,2.522,3.107,4.918,6.142,7.406,9.1,2.543,3.025,2.922,7.1,5.4,10.2-1.261,1.33-2.372,2.523-3.442,3.732a42.931,42.931,0,0,0-2.806,3.446,14.5,14.5,0,0,1-4.409,4.495c-1.518.861-2.55,2.656-3.846,4.105-4.108-4.437-4.918-10.046-5.222-15.751m25.571,34.472a12.57,12.57,0,0,1-6.624,3.65,5.764,5.764,0,0,0-2.256,1.337c-1.959,1.467-3.776,3.172-5.845,4.55a5.559,5.559,0,0,1-6.292.072,3.678,3.678,0,0,1-1.7-2.806,71.065,71.065,0,0,0-1.108-7.554,10.481,10.481,0,0,1,2.11-9.075,15.1,15.1,0,0,0,3.4-6.655,7.585,7.585,0,0,1,4.368-5.356,6.552,6.552,0,0,0,2.256-2.126,47.96,47.96,0,0,1,6.884-8.2c4.249,2.923,8.952,1.751,11.208-2.587,1.074-2.044,1-2.7-.448-4.437a8.934,8.934,0,0,0-.841-.916c2.431-1.411,3.874-1.193,5.469.872,2.181,2.823,2.485,6.122,1.89,9.4a27.949,27.949,0,0,1-5.26,12.36,4.041,4.041,0,0,0-.773,2.256,21.213,21.213,0,0,1-6.439,15.217m143.085-30.308c-1.142,4.033-3.7,7.15-6.251,10.285-.746.954-1.627,1.836-2.481,2.735a2.558,2.558,0,0,1-1.6.7c.67-1.1,1.409-2.129,2-3.247a53.367,53.367,0,0,0,2.369-4.932c.146-.332-.335-.916-.479-1.429-.475.219-1.183.257-1.439.622a17.963,17.963,0,0,0-1.221,2.42c-1.182,2.109-2.081,4.348-4.071,5.9.294.7.588,1.357.961,2.294a113.575,113.575,0,0,1-11.7,5.264c-6.214,2.18-12.8,3.041-19.086,4.839-9.543,2.769-19.315,4.034-29.153,5.021a230.1,230.1,0,0,1-31.638.752,173.3,173.3,0,0,1-32.752-4.362c-.147-.054-.294-.185-.67-.4.3-.7.522-1.449.9-2.164a22.458,22.458,0,0,0,2-8.361,3.309,3.309,0,0,1,.41-1.852c2.324-2.844,3.51-6.328,4.919-9.646q16.089-38.915,32.079-77.927a17.883,17.883,0,0,0,.889-2.29c.188-.779.041-1.558-.926-1.706-.813-.136-1.111.376-1.367,1.074-4.447,10.989-8.884,21.975-13.4,32.964q-7.6,18.555-15.241,37.011c-.26.66-.594,1.285-1.114,2.376-.851-3.165-1.736-5.821-4.14-7.783.369-.861.67-1.7,1.032-2.475q13.049-30.091,26.087-60.1a17.314,17.314,0,0,0,1.077-2.731c.106-.376-.257-1.145-.482-1.183a1.726,1.726,0,0,0-1.449.4,7.29,7.29,0,0,0-.841,1.77q-13.059,30.019-26.124,60.056c-.407.954-.859,1.928-1.375,3.063-.438-.762-.626-1.558-1.107-1.831a3.57,3.57,0,0,0-1.924-.233c-1.077-.044-2.151.038-3.22-.044a1.97,1.97,0,0,0-2.143,1.412,10.951,10.951,0,0,1-4.666-3.559c-2.919-3.766-5.958-7.461-8.993-11.273a10.235,10.235,0,0,1,4.518-3.339c1.772-.622,3.518-1.4,5.285-2.024a2.95,2.95,0,0,0,2.185-2.632c1.08-8.884,5.26-16.246,11.105-22.72a23.212,23.212,0,0,1,4.511-3.811c3.148-1.962,6.033-4.4,9.773-5.182a31.9,31.9,0,0,1,4.624-.366c1.508-.109,1.589-.3,1.737-1.743a13.145,13.145,0,0,1,.813-3.548c3.514-8.1,9.181-13.99,17.689-16.841a30.33,30.33,0,0,1,3.1-.66,3.541,3.541,0,0,0,2.922-2.29c1.815-4.485,4.847-7.923,9.585-9.369,5.034-1.5,10.066-3.029,15.21-4.064,5.513-1.118,9.246-4.519,12.432-8.689a10.746,10.746,0,0,0,1.962-6.3c.075-1.559,0-3.107,0-5,.444.332.738.451.811.636a49.19,49.19,0,0,1,5.035,22.238c-.034,1.955-.335,3.917-.366,5.879-.038,2.253.26,2.41,2.588,2.335a6.568,6.568,0,0,1,2.372.479,13.987,13.987,0,0,1,7.95,7.629,29.251,29.251,0,0,1,2.813,11.936,3.022,3.022,0,0,0,1.918,3.107,19.894,19.894,0,0,1,9.7,10.771,42.172,42.172,0,0,1,2.888,22.983,20.5,20.5,0,0,1-1,3.548,2.606,2.606,0,0,0,1.555,3.521,13.072,13.072,0,0,1,7.252,5.216,26.8,26.8,0,0,1,6.1,16.1c.109,3.657.257,7.205-.738,10.764" transform="translate(-1883.566 -1436.714)" fill="#2d75cd"/><path d="M1962.919,1471.692h-33.88a8.169,8.169,0,0,1-2.192-.185,1.368,1.368,0,0,1-.8-1.042,1.484,1.484,0,0,1,.889-1.008,5.287,5.287,0,0,1,1.72-.1q34.244-.01,68.5,0c.325,0,.66-.007.988,0,.861.017,1.839.12,1.784,1.2-.049,1.009-1.037,1.107-1.891,1.135-.57.01-1.155,0-1.736,0h-33.385" transform="translate(-1780.843 -1357.829)" fill="#2d75cd"/><path d="M2001.567,1461.546c.129,1.494-.26,2.164-1.436,2.181-.582.02-1.155.02-1.733.02h-65.741a10.814,10.814,0,0,1-2.454-.13c-.431-.109-.738-.687-1.1-1.053a5.893,5.893,0,0,1,1.227-.981,2.961,2.961,0,0,1,1.221-.038h70.014Z" transform="translate(-1773.445 -1376.782)" fill="#2d75cd"/><path d="M1965.369,1461.282H1933a7.044,7.044,0,0,1-1.962-.089c-.461-.157-.793-.69-1.189-1.057.366-.386.674-.9,1.118-1.118a3.629,3.629,0,0,1,1.463-.075h66.466c1.859,0,2.676.4,2.485,1.23-.348,1.5-1.652,1.091-2.646,1.091q-16.689.04-33.361.017" transform="translate(-1771.658 -1383.046)" fill="#2d75cd"/><path d="M1936.071,1496.991c-.516-.807-1.008-1.227-1-1.651a4.953,4.953,0,0,1,.588-1.869c2.673-6.2,5.347-12.367,8.04-18.557a5.445,5.445,0,0,1,.954-1.685,1.456,1.456,0,0,1,1.306-.164c.249.072.482.66.465,1.015a4.651,4.651,0,0,1-.479,1.377c-2.786,6.426-5.557,12.825-8.375,19.224a22.806,22.806,0,0,1-1.5,2.311" transform="translate(-1759.025 -1349.006)" fill="#2d75cd"/><path d="M1950.633,1463.639c-.232.567-.384,1.043-.588,1.494-2.67,5.93-5.33,11.851-8.032,17.774-.377.827-.653,2.212-1.949,1.678-1.357-.567-.5-1.712-.123-2.55q3.923-8.8,7.906-17.555a4.619,4.619,0,0,1,.865-1.477,1.585,1.585,0,0,1,1.292-.246c.277.072.438.594.63.882" transform="translate(-1748.731 -1373.839)" fill="#2d75cd"/><path d="M1947.284,1463.777c-.25.67-.428,1.22-.643,1.743q-3.62,8.358-7.254,16.721c-.058.147-.116.3-.184.441-.4.8-.7,1.962-1.873,1.411-1.139-.516-.513-1.525-.164-2.349q3.754-8.69,7.506-17.4a2.91,2.91,0,0,1,.578-1.07c.335-.284.875-.6,1.223-.516s.551.67.81,1.018" transform="translate(-1755.134 -1373.77)" fill="#2d75cd"/><path d="M1942.839,1473.911c-.23.584-.383,1.053-.581,1.5-2.434,5.565-4.86,11.119-7.328,16.656-.366.844-.637,2.273-1.925,1.723-1.5-.639-.445-1.832-.058-2.714,2.389-5.572,4.84-11.129,7.277-16.684a2.916,2.916,0,0,1,.561-1.073,1.749,1.749,0,0,1,1.244-.447c.348.109.564.687.81,1.035" transform="translate(-1765.904 -1349.313)" fill="#2d75cd"/><path d="M1951.477,1453.379c-.2.5-.319.889-.489,1.265q-3.569,8.111-7.164,16.2c-.383.851-.66,2.208-1.942,1.658-1.306-.551-.485-1.689-.127-2.529q3.456-7.9,6.956-15.761a4.29,4.29,0,0,1,.857-1.456,1.6,1.6,0,0,1,1.282-.26c.277.075.441.608.626.882" transform="translate(-1744.274 -1398.639)" fill="#2d75cd"/><path d="M1953.589,1453.467c-.212.523-.359.9-.52,1.285q-3.292,7.963-6.6,15.935a4.833,4.833,0,0,1-.789,1.521,1.425,1.425,0,0,1-1.235.4,1.538,1.538,0,0,1-.618-1.155,3.645,3.645,0,0,1,.451-1.394q3.235-7.865,6.5-15.7a4.968,4.968,0,0,1,1.025-1.634,1.248,1.248,0,0,1,1.121-.089c.3.127.468.574.659.831" transform="translate(-1737.851 -1398.427)" fill="#2d75cd"/><path d="M1923.276,1469.223a39.925,39.925,0,0,1,4.2.058c.513.044.963.649,1.449,1-.441.387-.875,1.111-1.33,1.128q-4.327.19-8.645.044c-.454-.017-.874-.769-1.315-1.182.482-.349.933-.954,1.449-1.009a39.909,39.909,0,0,1,4.194-.044Z" transform="translate(-1801.188 -1358.204)" fill="#2d75cd"/><path d="M1927.279,1461.224a30.577,30.577,0,0,1-3.671-.048c-.431-.045-.789-.687-1.183-1.043.369-.376.729-1.073,1.108-1.094,2.7-.137,5.4-.154,8.091-.126.3,0,.844.6.844.906a1.317,1.317,0,0,1-.8,1.008c-1.453.2-2.919.239-4.386.349v.048" transform="translate(-1789.598 -1383.06)" fill="#2d75cd"/><path d="M1925.855,1463.616a24.742,24.742,0,0,1-3.419-.065c-.4-.055-.875-.687-1-1.145-.055-.239.584-.936.912-.947,2.445-.072,4.888-.072,7.332.027.315.01.926.724.852.954-.134.451-.608,1.073-1.009,1.121a30.362,30.362,0,0,1-3.667.055" transform="translate(-1792.002 -1376.999)" fill="#2d75cd"/><path d="M1947.053,1483.975a27.931,27.931,0,0,1-5.251,12.36,4.02,4.02,0,0,0-.782,2.255,21.182,21.182,0,0,1-6.437,15.2,12.543,12.543,0,0,1-6.624,3.668,5.709,5.709,0,0,0-2.256,1.337c-1.962,1.466-3.774,3.193-5.849,4.55a5.559,5.559,0,0,1-6.293.072,3.613,3.613,0,0,1-1.695-2.806,74.529,74.529,0,0,0-1.115-7.554,10.5,10.5,0,0,1,2.109-9.075,15.1,15.1,0,0,0,3.405-6.655,7.572,7.572,0,0,1,4.365-5.356,6.478,6.478,0,0,0,2.259-2.109,47.369,47.369,0,0,1,6.881-8.22c4.251,2.923,8.952,1.75,11.211-2.588,1.077-2.027,1-2.686-.44-4.437a9.5,9.5,0,0,0-.851-.916c2.444-1.411,3.876-1.193,5.472.872,2.177,2.823,2.481,6.1,1.89,9.4" transform="translate(-1818.487 -1349.451)" fill="#e3edf9"/><path d="M1928.364,1470.125l-2.662,7.5a2.619,2.619,0,0,0-.707-1.029,3.694,3.694,0,0,0-1.921-.219c-1.077-.037-2.144.045-3.223-.037a1.953,1.953,0,0,0-1.593.523l-.626-7.362c.448.4.885,1.182,1.33,1.182,2.888.109,5.776.065,8.666-.027a1.633,1.633,0,0,0,.737-.53" transform="translate(-1801.193 -1357.434)" fill="#e3edf9"/><path d="M2003.18,1459.278l-1.586,7.619h-70.006a3.135,3.135,0,0,0-1.228.045,6.305,6.305,0,0,0-1.254,1l3-8.213a1.444,1.444,0,0,0,.738.55,5.809,5.809,0,0,0,1.966.12h65.707c1,0,2.291.4,2.663-1.118" transform="translate(-1773.445 -1382.15)" fill="#e3edf9"/><path d="M1957.268,1452.8c-.072.048-.14.082-.187.12a5.183,5.183,0,0,0-1.032,1.624c-2.181,5.216-4.331,10.47-6.511,15.723a3.816,3.816,0,0,0-.441,1.374c.031.414.295,1.036.629,1.145l-8.073-.266c.519-.246.738-1.108,1-1.7q3.615-8.1,7.182-16.209a10.432,10.432,0,0,0,.479-1.255c-.185-.294-.332-.817-.63-.892Z" transform="translate(-1743.11 -1398.613)" fill="#e3edf9"/><path d="M1954.318,1462.754a.452.452,0,0,0-.332.147,4.071,4.071,0,0,0-.851,1.484c-2.666,5.849-5.294,11.69-7.92,17.576-.369.817-1.221,1.962.107,2.512l-8.173-.369c.441-.256.666-.971.926-1.445.075-.147.107-.295.178-.441,2.413-5.585,4.857-11.14,7.253-16.721.227-.513.407-1.083.639-1.743-.086-.119-.157-.256-.26-.413Z" transform="translate(-1753.996 -1373.744)" fill="#e3edf9"/><path d="M2002.239,1469.928l-3.483,7.264a1.008,1.008,0,0,0-.41-.239,9.366,9.366,0,0,0-2.218-.109c-11.359-.027-22.754,0-34.154-.027-11.683,0-23.418,0-35.108.027a5.261,5.261,0,0,0-1.853.044l3.8-7.031a1.152,1.152,0,0,0,.52.4,8.624,8.624,0,0,0,2.228.192h68.964c.632-.045,1.374-.072,1.708-.523" transform="translate(-1783.34 -1356.571)" fill="#e3edf9"/><path d="M1950.338,1473.147a8.466,8.466,0,0,0-.7,1.395c-2.663,6.2-5.363,12.357-8.026,18.537a4.834,4.834,0,0,0-.591,1.87.812.812,0,0,0,.256.533l-8.662-2.256c.821,0,1.08-1.1,1.416-1.853q3.651-8.306,7.318-16.639c.188-.448.335-.889.561-1.477Z" transform="translate(-1764.967 -1348.613)" fill="#e3edf9"/><path d="M1934.143,1459.429l-4.221,7.363c-.188-.219-.407-.4-.55-.4-2.447-.082-4.888-.119-7.335-.044a.886.886,0,0,0-.475.294l3.371-7.253c.26.3.516.594.779.632a30.288,30.288,0,0,0,3.66.038v-.038c1.473-.119,2.961-.147,4.4-.365a.664.664,0,0,0,.376-.223" transform="translate(-1791.69 -1381.891)" fill="#e3edf9"/></g></g></svg>