<svg xmlns="http://www.w3.org/2000/svg" width="179.855" height="260.842" viewBox="0 0 179.855 260.842"><g transform="translate(-683.471 -827.323)"><path d="M791.172,853.221c-2.1,4.942-4.071,9.975-6.1,14.954a12.075,12.075,0,0,1-.724,1.55c-10.41-11.617-23.959-15.557-38.663-17.416.133-.511.292-1.132.524-1.769q2.8-7.605,5.55-15.173c.682-1.915,1.175-2.335,3.277-2.407a38.579,38.579,0,0,1,11.07,1.44,66.127,66.127,0,0,1,14.826,6.274,27.582,27.582,0,0,1,9.948,9.355,3.165,3.165,0,0,1,.3,3.192" transform="translate(37.224 3.372)" fill="#2d75cd" opacity="0.36"/><path d="M783.209,863.824c-.423-.109-.983-.109-1.248-.365-7.217-7.276-16.276-11.16-26-13.677-3.115-.8-6.33-1.277-9.517-1.915A10.767,10.767,0,0,1,745,847.54c.332-1.095,1.125-1.058,1.777-1.021a34.091,34.091,0,0,1,5.152.438,73.264,73.264,0,0,1,19.362,6.456,34.569,34.569,0,0,1,10.568,8.078,5.93,5.93,0,0,1,1.349,2.334" transform="translate(36.816 11.479)" fill="#2d75cd" opacity="0.36"/><path d="M743.033,851.667a19.468,19.468,0,0,1-2.087.256c-.734.019-1.6.256-2.055-.839.805-1.184,2.257-.436,3.264-1,.948-.492,1.974-.894,2.944-1.331.607.876.216,1.295-.254,1.641-.617.456-1.25.876-1.878,1.331Z" transform="translate(33.16 12.821)" fill="#2d75cd"/><path d="M740.266,850.217c-.283-.182-.8-.4-.783-.547a1.341,1.341,0,0,1,.571-.948,11.086,11.086,0,0,1,2.42-.767c.315-.072.7.221,1.058.366-.2.328-.3.838-.585.965a20.9,20.9,0,0,1-2.68.93" transform="translate(33.515 12.339)" fill="#2d75cd"/><path d="M721.957,965.517c.738-1.715,2.517-2.936,3.849-2.754a1.223,1.223,0,0,1,.783.566.921.921,0,0,1-.387.82c-1.058.547-2.148,1-3.251,1.44-.209.093-.519-.035-.994-.072" transform="translate(23.028 81.032)" fill="#2d75cd"/><path d="M726.17,970.417c-.748.583-1.487,1.039-2.367.182,1.066-1.55,1.592-1.587,2.367-.182" transform="translate(24.133 85.013)" fill="#2d75cd"/><path d="M740.427,846.543a6.228,6.228,0,0,1,1.459-.566c.2-.018.409.42.62.657a4.638,4.638,0,0,1-1.136.675c-.16.056-.451-.345-.943-.766" transform="translate(34.08 11.162)" fill="#2d75cd"/><path d="M863.22,970.792c-.062-.492-.094-.984-.126-1.477-.233-4.888-.462-9.793-.73-14.681q-.827-17.672-1.733-35.343c-.133-2.3-.269-4.6-.36-6.894a2.619,2.619,0,0,0-1.737-2.463c-1.061-.51-2.11-1-3.155-1.44q-12.944-5.907-25.933-11.762a2.251,2.251,0,0,1-1.6-2.389c.027-2.589-.2-5.2-.165-7.787a89.254,89.254,0,0,0-.884-15.028,5.358,5.358,0,0,1,.328-2.5c1.4-3.612,2.754-7.26,4.5-10.743,1.24-2.461.716-4.522-.465-6.656-.2-.383-.492-.748-.724-1.114a30.3,30.3,0,0,0-7.354-7.532c-5.8-4.522-12.469-7.276-19.564-9.171a31.093,31.093,0,0,0-11.944-1.168,4.156,4.156,0,0,1-1.706-.128c-2.891-.711-5.84-1.4-8.666-2.351a21.06,21.06,0,0,0-6.074-1.186c-2-.11-3.97-.438-5.941-.657-2.786-.328-5.548-.913-8.3-.985a91.135,91.135,0,0,0-11.395.475,73.719,73.719,0,0,0-16.016,3.884c-4.076,1.386-8.243,2.461-12.342,3.83-3.811,1.24-7.613,2.516-11.361,3.994-3.242,1.312-6.4,2.826-9.975,3.318-1.317.182-2.525,1.2-3.707,2.006a1.53,1.53,0,0,0-.328,2.153,1.776,1.776,0,0,0,2.033.857c.224-.074.424-.165.625-.219,3.15-1.167,6.331-2.279,9.481-3.465,3.443-1.314,6.763-2.845,10.246-3.994,7.282-2.407,14.635-4.6,21.953-6.838a62.676,62.676,0,0,1,15.893-2.517,53.952,53.952,0,0,1,8.37.455,52.552,52.552,0,0,1,7.381,1.314c4.036,1.058,8.006,2.334,12.02,3.52,1.143.328,2.292.694,3.436,1.039a4.192,4.192,0,0,1-.064.766c-2.324,6.256-4.659,12.512-6.956,18.786-.46,1.167-1.018,2.351-.46,3.7a1.857,1.857,0,0,1-.033,1.2,3.859,3.859,0,0,1-3.547,2.954c.032,0,.032-.037.064-.054a6.169,6.169,0,0,1-5.868.657c-3.192-1.095-6.465-1.969-9.72-2.9-1.242-.366-1.673-.037-1.939,1.24a1.963,1.963,0,0,0,.7,1.876,8.471,8.471,0,0,0,5.444,2.335,41.615,41.615,0,0,1,8.764,2.188,18.1,18.1,0,0,1,11.58,11.654c.957,2.791.73,5.69.561,8.553a4.224,4.224,0,0,1-2.525,3.539,2.877,2.877,0,0,1-3.611-.2c.1-.93.163-2.006.365-3.027.2-1.039.524-2.1.783-3.138.462-2.115.138-3.08-1.736-4.1a27.66,27.66,0,0,0-3.78-1.514c-2.065-.8-3.866-.11-5.481,1.076-1.768,1.276-2.493,3.283-2.912,5.361-.174.839-.233,1.678-.4,2.68-2-.364-3.906-.638-5.775-1.076a16.173,16.173,0,0,0-9.955.529,50.874,50.874,0,0,1-12.2,3.374c-3.779.475-7.549,1.221-11.393.6-4.527-.766-9.058-1.386-13.586-2.279a19.911,19.911,0,0,1-12.675-7.549c-.593-.766-1.349-1.459-2.033-2.19a1.614,1.614,0,0,0-2.166-.273,1.756,1.756,0,0,0-.556,2.316,5.513,5.513,0,0,0,.879,1.2c.635.73,1.287,1.368,1.875,2.1a20.7,20.7,0,0,0,8.243,6.109,56.123,56.123,0,0,0,15.683,3.574c2.628.273,5.22.657,7.979,1.021-.291.911-.492,1.587-.751,2.225q-19.252,48.419-38.54,96.747a15.113,15.113,0,0,1-1.974,3.336c-1.632,2.171-3.409,4.231-5.083,6.4-1.51,1.9-1.181,2.954,1.015,3.974.27.093.526.2.794.292q26.478,10.751,52.941,21.5c.79.293,1.542.657,2.335,1.021-.238,1.969-.529,3.739-.6,5.545-.163,4.012-.355,8.043.953,11.945a49,49,0,0,0,6.333,12.931,31.94,31.94,0,0,0,2.859,3.483,1.768,1.768,0,0,0,2.525.11c.719-.676.719-1.5,0-2.5a3.848,3.848,0,0,0-.3-.328c-1.905-2.918-3.866-5.855-5.737-8.828a18.176,18.176,0,0,1-1.116-2.826,23.218,23.218,0,0,0,2.356-1.021c.361-.2.588-.657.852-.985-.428-.128-.884-.456-1.28-.365a17.726,17.726,0,0,0-2.493.857c-.2-.62-.388-1.149-.561-1.678,3.318-1.186,3.817-1.477,4.145-2.461-1.843-.785-3.1.566-4.5,1.258-.857-3.611-1.349-3.52,2.262-5.671a21.5,21.5,0,0,1,2.759-1.24c.355-.165.714-.31,1.277-.583-.4-.4-.62-.748-.89-.785-2.289-.256-3.867,1.551-6.264,2.39.364-.785.46-1.459.825-1.659a44.306,44.306,0,0,1,4.422-2.134,6.137,6.137,0,0,1,1.509-.4c.074-1.149-.588-1.349-1.24-1.2a21.617,21.617,0,0,0-3.055.948c-.62.238-1.221.583-2,.93.1-.438.131-.583.165-.692a.992.992,0,0,1,.264-.366,9.944,9.944,0,0,1,8.3-2.08,33.447,33.447,0,0,1,6.633,2.554,3.071,3.071,0,0,1,1.864,3.52,72.755,72.755,0,0,0-.057,18.053,25.816,25.816,0,0,0,1.408,5.618,1.741,1.741,0,0,0,2.493.985c1.117-.566,1.383-1.44.793-2.7a7.591,7.591,0,0,1-.852-2.169c-.762-5.946-1.285-11.892-.4-17.818a25.506,25.506,0,0,1,1.253-5.452c2.754-7.186,7.742-12.657,13.391-17.617,1.673.93,1.738.894,2.235-.529.158-.511.36-1.058.551-1.55,1.974.109,2.27-.237,1.573-1.806a33.653,33.653,0,0,1-2.717-15.117,44.126,44.126,0,0,1,3.182-15.538,18.139,18.139,0,0,1,8.11-8.917c2.294-1.279,4.6-.913,6.852.035.366.147.558.711.858,1.076a3.469,3.469,0,0,1-1.112.785c-.7.128-1.445,0-2.139.074-2.69.217-4.2,1.7-4.007,4.322a97.155,97.155,0,0,0,1.317,10.669c.428,2.425,2.1,3.611,4.56,3.921a8.073,8.073,0,0,0,5.516-1.514c.3.692.524,1.167.724,1.731,1.509,4.506,2.96,8.991,4.528,13.46a25.209,25.209,0,0,1,1.482,7.586c.064,1.878.224,3.739.424,5.617a7.283,7.283,0,0,0,.492,2.062c.918,2.1,2.358-.821,3.406.293.27-.366.662-.659.793-1.058a2.818,2.818,0,0,0-.032-1.277c-.556-3.758-1.048-7.551-1.7-11.289a5.4,5.4,0,0,1,.382-3.318c2.7-6.256,5.321-12.566,7.979-18.875,2.567-6,5.092-12.055,7.618-17.91.957-.237,1.737-.456,2.562-.6.652-.128.986.109.753.894-.227.072-.561.037-.785.128-.46.237-1.253.529-1.253.785,0,.948.857.766,1.477.766.334,0,.692-.037,1.117-.073a11.09,11.09,0,0,1,.3,1.132c-.721.254-1.312.491-1.937.71.556,1.422,1.678.657,2.495,1.149.131.657.269,1.386.428,2.207-1.082-.238-2.04-.73-2.564.948,1.053.128,1.976.256,3.119.419.657,3.374,1.383,6.894,1.939,10.413.921,6,2.562,11.946,2,18.146a20.693,20.693,0,0,1-1.048,5.872c-1.669,4.14-3.446,8.206-5.252,12.272-1.541,3.484-3.022,7-4.824,10.378-2.361,4.485-5.083,8.826-7.546,13.293a146.384,146.384,0,0,1-13.919,21.009c-4.464,5.471-10.049,9.247-17.334,9.776-2.331.165-4.728-.054-7.086-.091-1.381-.037-1.745.219-2.006,1.642-.232,1.095.165,1.969,1.25,2.134a25.294,25.294,0,0,0,6.163.566c4.14-.475,8.307-1,11.882-3.448,2.5-1.678,5.288-2.808,7.453-5.107a87.552,87.552,0,0,0,8.441-11.379c3.54-5.252,6.7-10.743,9.942-16.175,2.235-3.758,4.5-7.514,6.4-11.471,3.114-6.458,5.909-13.1,8.895-19.623a28.973,28.973,0,0,0,2.072-15.592c-.762-6.4-1.739-12.8-3.024-19.132-1.25-6.035-2.986-11.981-4.463-17.98-.2-.857-.921-1.769.264-2.645,2.361.876,4.792,1.733,7.189,2.609q7.775,2.872,15.584,5.745c3.16,1.149,4.368.2,3.875-3.119m-79.79-116.9c1.873-5.052,3.707-10.1,5.55-15.156.682-1.915,1.175-2.335,3.286-2.388a37.826,37.826,0,0,1,11.056,1.421,66.332,66.332,0,0,1,14.841,6.274,27.607,27.607,0,0,1,9.943,9.355,3.179,3.179,0,0,1,.288,3.192c-2.1,4.942-4.068,9.975-6.1,14.954a13.537,13.537,0,0,1-.724,1.55c-10.4-11.617-23.964-15.557-38.663-17.416.133-.494.292-1.132.524-1.787m40.928,39.136a3.076,3.076,0,0,1-1.873,3.337c-2.225-1-4.459-2.025-6.694-2.973a1.63,1.63,0,0,1-1.079-1.641c-.069-2.37-.106-4.7,1.017-6.929a58.523,58.523,0,0,0,2.361-5.818c.392-1.021.822-1.7,2.107-1.7,1.509.035,2.463-.967,3.342-2.3.138,1.331.3,2.7.365,3.994.16,4.667.3,9.355.456,14.024M783.594,858a34.161,34.161,0,0,1,5.156.438,73.347,73.347,0,0,1,19.358,6.456,34.61,34.61,0,0,1,10.578,8.078,5.686,5.686,0,0,1,1.339,2.334c-.428-.09-.983-.09-1.243-.365-7.226-7.276-16.286-11.16-25.993-13.677-3.128-.8-6.341-1.277-9.52-1.915a10.8,10.8,0,0,1-1.445-.328c.32-1.095,1.112-1.058,1.769-1.021m-14.969,31.585a18.524,18.524,0,0,1,1.408-4.268,3.465,3.465,0,0,1,2.992-1.878,8.474,8.474,0,0,1,5.415,1.732c.721.548.494,1.277.329,1.969-.492,1.952-.98,3.886-1.44,5.892-2.335-.4-4.733-.767-7.1-1.223-1.477-.291-1.9-.783-1.6-2.225m1.541,5.872c1.637.273,3.256.492,4.861.822,1.317.291,2.626.711,3.935,1.039,5.708,1.349,10.731-2.552,10.509-8.407a65.214,65.214,0,0,0-1.542-9.3c-.825-4.049-3.547-6.838-6.5-9.392-.657-.564-1.351-1.076-2.2-1.787.852-2.279,1.742-4.613,2.631-6.857,8.107-1.221,27.9,6.966,35.289,14.553-3.16,7.842-6.338,15.757-9.561,23.854a11.492,11.492,0,0,0-1.969-.839,1.244,1.244,0,0,0-1.085.384,1.183,1.183,0,0,0,.173,1.13,13.212,13.212,0,0,0,1.865,1.295c-.1.365-.2.82-.323,1.221-.3-.035-.46,0-.566-.072a11.788,11.788,0,0,0-1.769-1.2,1.6,1.6,0,0,0-1.477.165c-.524.492-.128,1.021.4,1.4.62.455,1.245.984,1.873,1.442.721.492.689,1.02-.04,1.75-.62-.492-1.245-1.058-1.865-1.55a9.747,9.747,0,0,0-1.216-.876c-.657-.4-1.373-.766-1.875.093-.483.766.169,1.148.726,1.514A17.566,17.566,0,0,1,804,909.041c-.1.128-.16.256-.256.384-.333-.163-.692-.256-.984-.436-1.218-.785-2.366-1.624-3.62-2.372-.62-.384-1.371-.328-1.571.438-.065.345.4,1,.793,1.295,1.049.8,2.2,1.5,3.309,2.225-.094.128-.158.237-.259.364-1.08-.62-2.134-1.314-3.219-1.9-1.472-.783-1.578-.71-2.425,1.041-9.032-3.428-18.06-6.857-27.31-10.394.593-1.479,1.116-2.756,1.7-4.232m-12.274-2.661c2.882.528,5.778,1.148,8.633,1.787a10.675,10.675,0,0,1,1.608.51c-.524,1.314-1.017,2.535-1.573,3.867-4.733-1.769-9.259-3.5-14.142-5.38a8.1,8.1,0,0,1,5.474-.783m-19.235,135.663c-16.872-6.764-33.414-13.349-50.093-20.023a7.812,7.812,0,0,1,.63-1.442,16.472,16.472,0,0,1,1.6-2.26c2.594-2.828,3.977-6.275,5.417-9.739q19.4-47.6,38.9-95.16a3.543,3.543,0,0,1,2.858-2.444c3.512-.694,6.99-1.6,10.436-2.591a4.2,4.2,0,0,1,2.69.42q12.009,4.541,23.991,9.136c3.478,1.295,6.963,2.663,10.473,3.977.652.254,1.317.547,2.267.911-16.377,39.719-32.727,79.349-49.172,119.214M800.8,996.743c-2.5.475-4.177-.547-4.563-3.01-.492-3.045-.854-6.109-1.122-9.191-.16-2.006.561-2.663,2.663-2.719.985-.035,1.974,0,3.283,0,.916,4.213,1.837,8.5,2.789,12.749a4.142,4.142,0,0,1-3.05,2.171m12.83,12.656a1.135,1.135,0,0,1-.424-.054c-.917-2.225-1.87-4.432-2.8-6.657a104.66,104.66,0,0,1-5.809-22.011,7.838,7.838,0,0,1-.224-1.715c.123-2.3-1.285-3.446-3.086-4.231-4.335-1.932-8.535-1.677-12.375,1.277a24.3,24.3,0,0,0-9.518,15.427c-.3,1.552-.662,3.083-.954,4.615a41.456,41.456,0,0,0,.686,17.964,3.361,3.361,0,0,1-1.24,4.1,46.548,46.548,0,0,0-14.745,19.075c-.032.128-.16.22-.392.548-7.314-2.609-14.54-5.727-21.862-8.5.2-1.659,47.535-116.789,49.044-119.251,4.923,1.878,9.744,3.719,14.6,5.562q19.116,7.277,38.274,14.534c1.181.42,2.468.657,3.876,1.021q-16.488,39.118-33.054,78.291m42.86-40.376c-6.916-2.279-13.412-5.252-20.21-8.152,4.558-10.8,9.085-21.5,13.65-32.3,1.413.238,2.695.438,3.97.639v.51a9.106,9.106,0,0,0-2.129.165,1.857,1.857,0,0,0-1.181.93c-.133.711.524.911,1.149.967a16.292,16.292,0,0,1,2.1.273c.264.054.395.492.788.948a13,13,0,0,0-2.589.072c-.361.074-.63.583-.954.893.26.275.526.676.849.821.857.328,1.71.51,2.927.839a8.5,8.5,0,0,1-.925.711c-1.113.783-1.144,1.13-.192,1.841,1.479,1.149,1.479,1.149.192,2.645-.492.547-.492,1.149.169,1.4,1.148.419,1.049,1.422,1.117,2.3.333,5.324.655,10.6.953,15.921.1,1.586.256,3.136.318,4.722.078,1.223,0,2.426,0,3.849M851.179,926.6c.032-.128.032-.292.064-.419.822.091,1.6.2,2.431.291-.037.2-.1.4-.133.6-.79-.147-1.582-.31-2.362-.475m8.043,42.894c-.133-.019-.269-.019-.433-.054-.128-1.551-.291-3.118-.393-4.651-.783-12.8-1.539-25.569-2.324-38.37-.2-3.229-.46-6.438-.667-9.685a2.636,2.636,0,0,0-.094-.874c-.194-.384-.489-.766-.721-1.167a7.31,7.31,0,0,0-1.314.911,4.535,4.535,0,0,0-.524,1.149c-1.317,3.118-2.621,6.255-3.938,9.355-1.277,2.991-2.065,3.355-5.121,2.188-7.75-2.919-15.459-5.853-23.21-8.772-4.693-1.824-9.382-3.593-14.075-5.4-.591-.219-1.18-.492-2-.82,2.526-6.4,5.052-12.694,7.642-19.222.694.217,1.317.382,1.873.62,2.954,1.293,6.005,2.442,8.831,3.993,3.31,1.843,6.958,2.882,10.373,4.56,3.409,1.642,6.921,3.118,10.4,4.7,3.478,1.533,6.929,3.209,10.436,4.634a3.1,3.1,0,0,1,2.271,3.318c.428,8.681,1.049,17.361,1.541,26.061q.786,13.021,1.509,26.06c0,.492-.059.985-.059,1.459" fill="#2d75cd"/><path d="M750.08,990.014a1.188,1.188,0,0,1-.775-1.659c.528-1.88-.01-3.667-.366-5.453-.131-.692-.269-1.422.526-1.878,1.714,1.622,2.06,6.456.615,8.991" transform="translate(39.113 91.969)" fill="#2d75cd"/><path d="M751.915,988.81c-1.085-1.459-1.4-4.485-1.044-7.149.742-.291,1.106.165,1.239.767a11.516,11.516,0,0,1-.2,6.382" transform="translate(40.246 92.296)" fill="#2d75cd"/><path d="M753.44,981.981c1,1.386.507,2.845.4,4.231,0,.074-.841.256-.977.093-.6-.639-.232-3.393.574-4.323" transform="translate(41.346 92.542)" fill="#2d75cd"/><path d="M754.361,982.236c.1-.146.305-.638.451-.62a1.5,1.5,0,0,1,.972.511,1.312,1.312,0,0,1,.315.985,5.932,5.932,0,0,1-.625,1.331,6.851,6.851,0,0,1-.829-.986,4.983,4.983,0,0,1-.283-1.221" transform="translate(42.418 92.323)" fill="#2d75cd"/><path d="M757.456,983.326c-.2-.748-.392-1.4-.579-2.078,1.044-.438,1.437.017,1.659.657.214.6.078,1.111-1.08,1.421" transform="translate(43.923 91.999)" fill="#2d75cd"/><path d="M814.008,943.044c0,.492-.059.985-.059,1.459-.133-.019-.269-.019-.433-.054-.128-1.55-.3-3.118-.393-4.669q-1.175-19.178-2.324-38.353c-.2-3.229-.46-6.438-.667-9.685a2.718,2.718,0,0,0-.091-.874c-.2-.383-.492-.766-.724-1.167a7.6,7.6,0,0,0-1.314.911,4.275,4.275,0,0,0-.524,1.149c-1.312,3.118-2.621,6.254-3.938,9.355-1.285,2.991-2.065,3.355-5.116,2.188-7.755-2.919-15.459-5.853-23.21-8.772-4.693-1.824-9.387-3.593-14.08-5.4-.591-.219-1.18-.492-2-.82,2.526-6.4,5.052-12.694,7.642-19.222.7.217,1.317.382,1.873.62,2.954,1.293,6.005,2.442,8.831,3.993,3.31,1.843,6.958,2.882,10.378,4.56,3.4,1.642,6.916,3.118,10.394,4.7,3.478,1.533,6.929,3.209,10.441,4.634a3.1,3.1,0,0,1,2.266,3.318c.428,8.681,1.049,17.361,1.541,26.061q.786,13.021,1.509,26.06" transform="translate(45.273 24.994)" fill="#2d75cd" opacity="0.36"/><path d="M785.921,884.018c-16.382,39.719-32.731,79.349-49.177,119.214-16.867-6.764-33.409-13.367-50.083-20.023a7.848,7.848,0,0,1,.62-1.442,16.083,16.083,0,0,1,1.61-2.26c2.589-2.828,3.972-6.275,5.417-9.739q19.4-47.6,38.895-95.16a3.55,3.55,0,0,1,2.859-2.444c3.51-.694,6.993-1.6,10.436-2.591a4.07,4.07,0,0,1,2.69.42c8.009,3.027,15.984,6.072,23.995,9.136,3.478,1.295,6.958,2.663,10.468,3.977.662.254,1.319.547,2.271.911" transform="translate(1.909 25.224)" fill="#2d75cd" opacity="0.36"/><path d="M825.184,900.16q-16.495,39.118-33.049,78.273a1.635,1.635,0,0,1-.428-.037c-.921-2.225-1.875-4.432-2.8-6.657a103.753,103.753,0,0,1-5.8-22.011,7.6,7.6,0,0,1-.238-1.715c.128-2.3-1.28-3.446-3.082-4.231-4.335-1.932-8.535-1.677-12.378,1.277a24.31,24.31,0,0,0-9.515,15.427c-.3,1.552-.657,3.083-.954,4.615a41.445,41.445,0,0,0,.686,17.964,3.361,3.361,0,0,1-1.24,4.1,46.623,46.623,0,0,0-14.745,19.075c-.032.128-.16.22-.387.548-7.324-2.609-14.548-5.727-21.862-8.5.2-1.659,47.526-116.789,49.035-119.251,4.928,1.86,9.752,3.719,14.6,5.562q19.116,7.277,38.274,14.534c1.191.42,2.463.657,3.876,1.021" transform="translate(21.496 30.948)" fill="#2d75cd" opacity="0.36"/><path d="M772.717,886.742a1.179,1.179,0,0,0,.163,1.13,13.472,13.472,0,0,0,1.87,1.295c-.1.365-.192.82-.328,1.221-.293-.035-.465,0-.556-.072a10.751,10.751,0,0,0-1.774-1.2,1.553,1.553,0,0,0-1.477.165c-.524.475-.133,1.021.4,1.4.615.455,1.24.984,1.864,1.442.726.51.694,1.02-.03,1.75-.625-.51-1.25-1.058-1.875-1.55a11.555,11.555,0,0,0-1.212-.893c-.657-.384-1.383-.748-1.875.11-.492.766.169,1.148.726,1.514a17.594,17.594,0,0,1,3.579,3.208c-.1.128-.16.256-.269.4-.325-.182-.684-.275-.986-.456-1.208-.8-2.356-1.606-3.606-2.39-.625-.383-1.381-.31-1.573.456-.069.345.4,1,.79,1.295,1.049.8,2.2,1.5,3.309,2.206a4.481,4.481,0,0,1-.259.384c-1.08-.62-2.134-1.314-3.219-1.9-1.477-.783-1.573-.71-2.429,1.041-9.028-3.428-18.055-6.857-27.3-10.394.593-1.479,1.116-2.756,1.709-4.233,1.632.256,3.251.492,4.856.822,1.307.291,2.626.729,3.94,1.057,5.708,1.331,10.732-2.57,10.5-8.407a66.392,66.392,0,0,0-1.542-9.336c-.825-4.031-3.547-6.82-6.5-9.374-.663-.564-1.349-1.095-2.206-1.768.857-2.3,1.745-4.632,2.621-6.859,8.116-1.239,27.9,6.948,35.289,14.536-3.15,7.842-6.328,15.757-9.552,23.854a13.252,13.252,0,0,0-1.969-.839,1.225,1.225,0,0,0-1.08.384" transform="translate(31.817 12.781)" fill="#2d75cd" opacity="0.36"/></g></svg>