<svg xmlns="http://www.w3.org/2000/svg" xmlns:xlink="http://www.w3.org/1999/xlink" width="236.398" height="266.407" viewBox="0 0 236.398 266.407"><defs><clipPath id="a"><rect width="26.031" height="4.424" fill="#2d75cd"/></clipPath></defs><g transform="translate(-186.688 -827.842)"><g transform="translate(256.708 987.955)"><rect width="26.031" height="4.424" fill="#2d75cd"/><g clip-path="url(#a)"><path d="M255.339,926.985c-8.629,2.862-17.247,3.823-26.032,1.186a17.177,17.177,0,0,1,8.182-2.749c1.559,3.672,7.349,3.672,10.262-.113,2.435.547,5.027,1.093,7.589,1.676" transform="translate(-229.307 -925.291)" fill="#2d75cd"/></g></g><path d="M353.809,964.436c-6.9.1-13.631-.734-19.817-3.992-4.1-2.165-8.1-4.5-12.038-6.928a2.691,2.691,0,0,0-3.082-.132c-3.738,1.9-7.513,3.728-11.3,5.555a31.326,31.326,0,0,1-3.407,1.355c-4.952,1.732-9.881,3.5-14.875,5.065-1.313.394-1.511,1.318-1.9,2.221q-6.057,14.377-12.079,28.773c-5.512,13.124-11.063,26.247-16.48,39.447-.909,2.183-2.251,3.181-4.51,3.181-4.1,0-8.248.4-12.3-.056-7.4-.848-14.469-2.975-19.94-8.4-2.4-2.354-4.255-5.292-6.3-8a3.391,3.391,0,0,1-.388-3.465c1.544-4.086,3-8.21,4.53-12.314,4-10.62,8.039-21.24,12.016-31.879a4.8,4.8,0,0,0,.133-2.5c-.373-1.789-.966-3.521-1.418-5.29a43.365,43.365,0,0,1-1.222-11.995c.127-4.97-.307-9.923-.651-14.913a151.67,151.67,0,0,1,.278-17.548c.381-7.72,2.18-15.214,3.922-22.709a47.184,47.184,0,0,0,.951-10.129c.107-6.46.361-12.918.95-19.357a35.5,35.5,0,0,1,2.321-8.3,7.167,7.167,0,0,1,2.156-2.86c2.294-1.884,4.727-3.616,7.109-5.386a172.65,172.65,0,0,1,27.749-16.363c5.187-2.522,10.446-4.894,15.68-7.286,1.191-.565,2.448-.941,3.667-1.413,4.306-1.694,8.19-1.111,12.205,1.337,3.785,2.279,8.018,3.861,12.066,5.706,4.293,1.976,8.685,3.71,12.884,5.837,8.422,4.273,16.73,8.755,25.089,13.142,7.2,3.766,14.456,7.4,21.608,11.261,7.375,3.991,14.671,8.172,21.963,12.3a30.531,30.531,0,0,1,3.1,2.391c2.4,1.883,2.711,4.406,2.019,7.1-.56,2.185-1.393,4.313-2.062,6.478-4.707,15.345-12.122,29.392-20.629,42.91-4.518,7.175-9.046,14.348-13.8,21.371-2.5,3.672-6.067,5.951-10.784,5.8-1.14-.038-2.279,0-3.414,0m-19.479-74.789c.716-.207,1.648-.753,2.152-.508.959.508.455,1.525.089,2.315a30.917,30.917,0,0,1-1.459,3.089c-1.337,2.353-2.7,4.707-4.147,6.986a47.477,47.477,0,0,1-4.02,5.8c-5.532,6.325-12.522,10.544-20.335,13.462a53.583,53.583,0,0,0-19.329,12.258,14.579,14.579,0,0,0-4.477,8.717,40.753,40.753,0,0,0-.409,7.833c.311,4.295,2.067,7.965,6.1,10.037a4.309,4.309,0,0,0,2.721.452,22.541,22.541,0,0,0,3.78-1.544c.141-4.462-1.209-8.417-2.834-12.3-.833-1.995-.55-2.824,1.3-3.839a34.029,34.029,0,0,1,9.989-3.861c2.984-.621,4.894.207,6.368,2.824a11.7,11.7,0,0,1,1.186,2.9c.541,2.147.951,4.349,1.461,6.759,2.315-.941,4.6-1.807,6.8-2.824a3.376,3.376,0,0,1,4.078.585,48.325,48.325,0,0,0,12.44,7.7,41.386,41.386,0,0,0,7.914,2.655c4.438,1.111,9,1,13.553.959a6.564,6.564,0,0,0,5.818-2.9c2.4-3.559,4.906-7.042,7.109-10.714,4.109-6.8,8.039-13.707,12.041-20.579,1.929-3.314,4.029-6.572,5.747-10,2.3-4.613,4.416-9.3,6.4-14.065,1.944-4.671,3.723-9.414,5.351-14.2.9-2.637.757-2.808-1.585-4.293-4.35-2.77-8.732-5.481-13.227-8-8.686-4.84-17.371-9.754-26.219-14.292-9.562-4.9-19.324-9.4-28.985-14.1q-12-5.848-23.964-11.768a9.785,9.785,0,0,1-2.039-1.15c-2.839-2.335-5.883-2.353-9.112-1.035-1.13.472-2.308.828-3.409,1.355-6.859,3.258-13.694,6.591-20.556,9.848-9.683,4.6-18.444,10.7-26.969,17.1a7.951,7.951,0,0,0-2.594,3.163,28.18,28.18,0,0,0-1.949,7.042,127.9,127.9,0,0,0,.184,28.526c1.347,12.278,4.165,24.271,7.226,36.228.457,1.807,1.157,3.54,1.742,5.33h.583q4.852-11.666,9.683-23.292a5.482,5.482,0,0,0-.716-.943c-2.075-1.75-2.032-3.634-.955-6.044,2.663-5.987,5.055-12.087,7.556-18.151.841-2.032.9-2.07,3.059-2.014,1.229.038,2.443.189,3.662.207,1.272.038,2.551,0,3.935,0a15.4,15.4,0,0,0,.09-1.656c-.108-1.319-.343-2.6-.376-3.9-.015-.434.442-1.242.644-1.224a2.116,2.116,0,0,1,1.431.716,7.105,7.105,0,0,1,.757,1.769,4.527,4.527,0,0,0,.485-2.542,6.624,6.624,0,0,1-.127-1.809,2.1,2.1,0,0,1,1.04-1.185c.189-.1.923.47,1.05.866a35.926,35.926,0,0,1,.853,3.559c.46-.565.876-.867.894-1.168.053-.79-.212-1.582-.1-2.354.062-.47.532-.94.825-1.411.465.32,1.1.527,1.36.961a8.533,8.533,0,0,1,.588,2.128c.861-.4,1.661-.716,2.428-1.112a41.992,41.992,0,0,0,10.37-7.531c1.832-1.807,2.057-1.75,3.761.038,6.13,6.4,13.732,10.751,21.283,15.44.677-.81,1.3-1.525,1.9-2.241.588-.734,1.3-1.393,2.2-.7.828.659.265,1.393-.207,2.072-.522.715-1.04,1.449-1.722,2.41A2.262,2.262,0,0,0,327,891.229a22.741,22.741,0,0,1,1.681-2.317c.3-.338,1.107-.6,1.337-.452.373.283.49.941.669,1.449a1.246,1.246,0,0,1,0,.527,26.047,26.047,0,0,1,2.451-1.995c.1-.076.833.828,1.191,1.2m-52.7,43.288c-8.566-1.9-14.841-7.155-21.112-12.841-.419.9-.715,1.507-.984,2.128-3.458,8.192-6.951,16.382-10.369,24.629q-7.381,17.766-14.645,35.588-6.9,16.975-13.669,34.023c-1.691,4.257-1.715,4.369,1.457,7.833,7.98,8.7,18.039,11.448,29.5,10.281a4.051,4.051,0,0,0,3.785-2.882c9.177-21.917,18.475-43.777,27.734-65.658.292-.695.55-1.429.8-2.09-6.764-7-8.533-20.993-2.5-31.012M266.3,895.258c-.32.661-.6,1.188-.828,1.733-2.124,5.085-4.158,10.206-6.384,15.233a2.888,2.888,0,0,0,.825,3.877c3.435,2.995,6.726,6.12,10.3,8.926a29.078,29.078,0,0,0,11.533,5.4,2.5,2.5,0,0,0,2.8-.752c4.967-5.348,11.2-8.85,17.752-11.862.593-.265,1.176-.565,2.065-1a78.746,78.746,0,0,1-38.062-21.56M239.427,963.7a11.985,11.985,0,0,0,.757-1.224c2.152-5.159,4.27-10.337,6.453-15.476a3.762,3.762,0,0,0-.018-3.013c-.9-2.466-1.817-4.934-2.466-7.456-2.67-10.413-5.229-20.826-6.642-31.5a6.311,6.311,0,0,0-.442-1.262,23.036,23.036,0,0,0-1.686,5.592,154.037,154.037,0,0,0-2.249,28.713,69.622,69.622,0,0,0,1.293,11.43,47.708,47.708,0,0,0,5,14.2m29.785-70.194c-.138.245-.269.49-.4.734a55.769,55.769,0,0,0,4.231,4.18,82.715,82.715,0,0,0,22.534,13.237,45.007,45.007,0,0,0,12.46,2.993c1.116.075,2.274.245,3.23-.961-11.448-12.219-25.631-18.545-42.054-20.183m25.018,51.309c1.576,4.1,3.12,8.059,3.3,12.692,4.127-1.865,7.988-3.6,11.754-5.292a14.079,14.079,0,0,0-1.267-9.094c-.989-2.185-2.11-2.731-4.411-2.185a30.833,30.833,0,0,0-9.376,3.879M234.1,958.223c-.485,2.882,1.129,10.375,2.683,12.334.409-.941.876-1.789,1.168-2.675a2.773,2.773,0,0,0,.066-1.75c-1.244-2.675-2.6-5.272-3.917-7.909m96.872-63.039c1.939-1.186,2.259-1.751,2.282-3.409-.8,1.168-1.534,2.3-2.282,3.409" transform="translate(18.265)" fill="#2d75cd"/><path d="M299.36,904.938c-.721,1.413-1.332,2.768-2.1,4.03a1.489,1.489,0,0,1-1.328.245,1.439,1.439,0,0,1-.471-1.3,22.145,22.145,0,0,1,1.577-3.577,1.513,1.513,0,0,1,1.309-.509c.376.1.641.678,1.017,1.111" transform="translate(69.91 48.841)" fill="#2d75cd"/><path d="M298.394,909.734c-.34-.7-.9-1.3-.8-1.732a10.772,10.772,0,0,1,1.27-3.107,1.861,1.861,0,0,1,1.5-.547,1.432,1.432,0,0,1,.575,1.224,16.6,16.6,0,0,1-1.257,3.089c-.174.34-.636.565-1.295,1.073" transform="translate(71.3 49.185)" fill="#2d75cd"/><path d="M297.04,905.533c-.979.96-1.717,1.694-2.466,2.428-.325-.414-.913-.828-.941-1.262-.094-1.111,1.1-2.579,1.883-2.392.467.1.823.641,1.525,1.225" transform="translate(68.755 49.151)" fill="#2d75cd"/><path d="M280.044,866.807c-.522-.83-1.078-1.3-1.03-1.715a1.508,1.508,0,0,1,1.714-1.5c.343.038.96.81.884.96a15.878,15.878,0,0,1-1.567,2.261" transform="translate(59.357 22.973)" fill="#2d75cd"/><path d="M302.745,906.735c-.772.734-1.153,1.375-1.671,1.507-.853.207-1.314-.509-1.163-1.224a2.181,2.181,0,0,1,1.083-1.451c.3-.112.932.6,1.751,1.168" transform="translate(72.776 49.964)" fill="#2d75cd"/><path d="M258.671,859.467c.509.661,1.05,1.055,1.106,1.507.053.32-.555.734-.869,1.111-.391-.376-.966-.7-1.116-1.129-.1-.283.437-.772.879-1.488" transform="translate(45.708 20.332)" fill="#2d75cd"/><path d="M304.317,906.733c-.532.49-.885,1.053-1.2,1.035-.335-.018-.762-.565-.89-.96-.061-.207.453-.83.688-.81.4,0,.777.376,1.4.734" transform="translate(74.283 50.248)" fill="#2d75cd"/><path d="M294.083,905.269c-.641.376-1.1.866-1.388.772-.335-.1-.646-.661-.739-1.093-.033-.151.6-.679.856-.623.391.057.7.472,1.272.943" transform="translate(67.679 49.171)" fill="#2d75cd"/><path d="M272.381,899.622c.565-1.318,1.12-2.579-.038-3.859a4.246,4.246,0,0,0-4.424-1.562,5.523,5.523,0,0,0-4.194,3.559c-3.317,8.435-6.787,16.851-10.219,25.23-2.678,6.552-5.351,13.086-8.1,19.771a32.459,32.459,0,0,0-12.536,3.465,5.072,5.072,0,0,0-2.6,2.8q-4.67,12.8-9.537,25.533a3.707,3.707,0,0,0,.555,3.879,21.9,21.9,0,0,0,8.778,6.5,51.239,51.239,0,0,0,16.768,3.879,2.26,2.26,0,0,0,2.594-1.676c.644-1.7,1.441-3.371,2.2-5.027q7.238-16.41,14.484-32.857c.959-2.165.716-2.768-1.431-3.559-1.562-.547-3.158-.961-4.75-1.395-1.835-.432-3.715-.828-5.711-1.28.358-1,.6-1.787.913-2.579q8.628-20.447,17.243-40.822m-2.272-2.749c-.833,1.073-1.671.941-2.872.6a2.207,2.207,0,0,1,2.872-.6M247.08,986.407c-6.948-.6-13.5-1.827-19.4-5.423-.358-.245-.716-.47-1.074-.752-4-2.919-4.152-3.389-2.433-7.947q3.706-9.941,7.415-19.883c.245-.679.522-1.28.927-2.185,10.3,3.56,20.354,2.072,30.853-.715-5.588,12.634-10.9,24.741-16.283,36.905m13.971-39.335c-8.629,2.862-17.247,3.823-26.032,1.186a17.177,17.177,0,0,1,8.182-2.749c1.559,3.672,7.349,3.672,10.262-.113,2.435.547,5.027,1.093,7.589,1.676m-10.62-1.732c-1.232.3-1.995.434-2.791.563a5.111,5.111,0,0,1-.843-.243c6.223-15.253,12.46-30.447,18.721-45.811,1.28.187,2.443.357,3.917.583q-9.589,22.623-19,44.908" transform="translate(21.689 42.577)" fill="#2d75cd"/><path d="M200.085,947.689c-2.749.168-5.174.319-7.6.47-.876.058-1.742.131-2.617.225a2.716,2.716,0,0,1-2.852-1.431,2.849,2.849,0,0,1,.412-3.181c3.013-4.388,5.989-8.813,8.979-13.237.932-1.375,1.817-2.788,2.823-4.106,1.577-2.052,3.278-2.315,5.128-.545,5.234,5.027,10.375,10.166,15.529,15.289a2.907,2.907,0,0,1,.876,3.333,3.017,3.017,0,0,1-2.887,1.883l-10.2.79c-.509.038-1.017.151-1.61.227a27.932,27.932,0,0,0-.55,12.3c2.842,16.153,9.7,30.22,22.656,40.782,6.953,5.688,15.077,8.719,23.8,10.357a66.1,66.1,0,0,0,16.447,1.148c2.165-.131,4.308-.565,6.708-.9-.442-3.013-.853-5.762-1.234-8.492a19.751,19.751,0,0,1-.3-3.125c.051-2.317,1.661-3.485,3.9-2.882a7.316,7.316,0,0,1,1.907.828c5.2,3.069,10.4,6.12,15.567,9.227,2.895,1.751,3.238,3.3,1.313,5.989-4.119,5.78-8.271,11.523-12.4,17.265-.154.207-.306.414-.465.641a2.972,2.972,0,0,1-5.517-1.469c-.391-2.43-.734-4.858-1.1-7.268-.248-1.62-.522-3.258-.818-5.1-1.055.151-1.963.32-2.885.472-7.985,1.28-15.869.47-23.712-1.093a57.1,57.1,0,0,1-27.871-13.764,63.171,63.171,0,0,1-13.158-17.228,83.059,83.059,0,0,1-7.541-19.244,48.064,48.064,0,0,1-.725-18.151" transform="translate(0 62.278)" fill="#2d75cd"/><path d="M262.3,927.808c-5.588,12.634-10.9,24.741-16.288,36.905-6.948-.6-13.5-1.827-19.4-5.423-.358-.245-.716-.49-1.073-.752-3.992-2.919-4.152-3.389-2.435-7.947q3.714-9.941,7.429-19.883c.23-.679.513-1.262.912-2.185,10.3,3.541,20.354,2.072,30.857-.715" transform="translate(22.747 64.271)" fill="#2d75cd" opacity="0.36"/><path d="M259.114,898.169q-9.582,22.623-19.009,44.908c-1.232.283-1.99.434-2.791.563a3.721,3.721,0,0,1-.838-.243c6.228-15.253,12.455-30.447,18.726-45.811,1.275.187,2.433.357,3.912.583" transform="translate(32.01 44.84)" fill="#2d75cd" opacity="0.36"/></g></svg>