<svg xmlns="http://www.w3.org/2000/svg" width="63.884" height="63.864" viewBox="0 0 63.884 63.864"><path d="M324.367-1148.693a17.529,17.529,0,0,0-12.483-5.153,17.529,17.529,0,0,0-12.484,5.153L270.809-1120.1a17.672,17.672,0,0,0,0,24.966,17.527,17.527,0,0,0,12.483,5.153,17.528,17.528,0,0,0,12.484-5.153l28.592-28.592A17.671,17.671,0,0,0,324.367-1148.693ZM291.709-1099.2a11.817,11.817,0,0,1-8.418,3.469,11.816,11.816,0,0,1-8.417-3.469,11.916,11.916,0,0,1,0-16.833l11.427-11.426,16.834,16.833Zm28.592-28.591-13.1,13.1-16.834-16.834,13.1-13.1a11.819,11.819,0,0,1,8.418-3.468,11.819,11.819,0,0,1,8.417,3.468A11.916,11.916,0,0,1,320.3-1127.794Z" transform="translate(-265.645 1153.846)" fill="#2d75cd"/><path d="M313.944-1144.82a8.592,8.592,0,0,0-6.117,2.532,1.917,1.917,0,0,0,0,2.711,1.915,1.915,0,0,0,1.355.562,1.912,1.912,0,0,0,1.355-.562,4.786,4.786,0,0,1,3.408-1.409,4.785,4.785,0,0,1,3.407,1.408,1.918,1.918,0,0,0,2.711,0,1.918,1.918,0,0,0,0-2.712A8.591,8.591,0,0,0,313.944-1144.82Z" transform="translate(-267.372 1153.471)" fill="#2d75cd"/><path d="M281.478-1118.9a1.5,1.5,0,0,0,0,2.122,1.5,1.5,0,0,0,2.122,0,1.5,1.5,0,0,0,0-2.122A1.5,1.5,0,0,0,281.478-1118.9Z" transform="translate(-266.284 1152.415)" fill="#2d75cd"/><path d="M278.541-1111.724a1.5,1.5,0,0,0,0-2.121,1.5,1.5,0,0,0-2.122,0,1.5,1.5,0,0,0,0,2.121A1.5,1.5,0,0,0,278.541-1111.724Z" transform="translate(-266.074 1152.205)" fill="#2d75cd"/><path d="M276.594-1105.472a1.5,1.5,0,0,0,0,2.121,1.5,1.5,0,0,0,2.122,0,1.5,1.5,0,0,0,0-2.121A1.5,1.5,0,0,0,276.594-1105.472Z" transform="translate(-266.081 1151.857)" fill="#2d75cd"/></svg>