<svg xmlns="http://www.w3.org/2000/svg" xmlns:xlink="http://www.w3.org/1999/xlink" width="163.094" height="157.712" viewBox="0 0 163.094 157.712"><defs><linearGradient id="a" y1="0.5" x2="1" y2="0.5" gradientUnits="objectBoundingBox"><stop offset="0" stop-color="#f66e5e"/><stop offset="1" stop-color="#ff3a46"/></linearGradient><linearGradient id="b" x1="0.819" y1="0.705" x2="0.082" y2="0.105" gradientUnits="objectBoundingBox"><stop offset="0" stop-color="#ff3a46"/><stop offset="1" stop-color="#fed0ad"/></linearGradient></defs><g transform="translate(21.855 25.976)"><g transform="translate(0 0)"><path d="M56.77,40.168C52.939,53.363,12.855,63.257,3.4,53.288S5.876,5.379,18.724.509,60.6,26.974,56.77,40.168Z" transform="matrix(-0.035, -0.999, 0.999, -0.035, 1.993, 72.512)" fill="#40a6ff" opacity="0.2"/><path d="M1361.28-296.385c-5.52,18.889-63.282,33.054-76.9,18.782s3.567-68.585,22.08-75.557S1366.8-315.274,1361.28-296.385Z" transform="translate(-1252.207 353.89)" fill="#ff937b" opacity="0.2"/><g transform="translate(23.175 22.654)"><path d="M1049.441-1326.18l-1.347,1.348-1.2-1.2a14.285,14.285,0,0,0-20.2,0h0a14.285,14.285,0,0,0,0,20.2l21.55,21.55,21.55-21.55a14.285,14.285,0,0,0,0-20.2l-.15-.15A14.287,14.287,0,0,0,1049.441-1326.18Z" transform="translate(-1011.727 1337.547)" fill="url(#a)"/><path d="M989.434-1325.715l-1.5,1.5-1.331-1.331a15.872,15.872,0,0,0-22.447,0h0a15.873,15.873,0,0,0,0,22.447l23.944,23.944,23.945-23.944a15.872,15.872,0,0,0,0-22.447l-.167-.167A15.874,15.874,0,0,0,989.434-1325.715Z" transform="translate(-958.098 1330.363)" fill="url(#b)"/><path d="M952.26-1309.522h18.428l4.188-8.055,3.71,16.641,4.068-11.55,4.188,7.6,4.068-11.626,3.829,6.991h17.709" transform="translate(-952.26 1336.077)" fill="none" stroke="#fff" stroke-linecap="round" stroke-linejoin="round" stroke-width="6"/></g></g></g></svg>