<svg xmlns="http://www.w3.org/2000/svg" width="60.792" height="63.722" viewBox="0 0 60.792 63.722"><path d="M537-1200.949a33.358,33.358,0,0,0-18.346-17.045,22.988,22.988,0,0,0,11.193-19.718,23.008,23.008,0,0,0-22.983-22.981,23.007,23.007,0,0,0-22.981,22.981,22.991,22.991,0,0,0,11.193,19.719,33.353,33.353,0,0,0-18.346,17.044,2.8,2.8,0,0,0,1.356,3.716,2.8,2.8,0,0,0,3.716-1.357,27.743,27.743,0,0,1,25.062-16,27.743,27.743,0,0,1,25.063,16,2.8,2.8,0,0,0,2.538,1.618,2.789,2.789,0,0,0,1.178-.261A2.8,2.8,0,0,0,537-1200.949Zm-47.521-36.763a17.406,17.406,0,0,1,17.386-17.387,17.406,17.406,0,0,1,17.388,17.387,17.406,17.406,0,0,1-17.388,17.387A17.406,17.406,0,0,1,489.477-1237.712Z" transform="translate(-476.468 1260.694)" fill="#2d75cd"/><path d="M523.954-1202.562H513.391a1.9,1.9,0,0,0-1.9,1.9,1.9,1.9,0,0,0,1.9,1.9h10.562a1.9,1.9,0,0,0,1.9-1.9A1.9,1.9,0,0,0,523.954-1202.562Z" transform="translate(-479.281 1256.572)" fill="#2d75cd"/></svg>