<svg xmlns="http://www.w3.org/2000/svg" xmlns:xlink="http://www.w3.org/1999/xlink" width="1000" height="1000.002" viewBox="0 0 1000 1000.002"><defs><linearGradient id="a" x1="0.5" x2="0.5" y2="1" gradientUnits="objectBoundingBox"><stop offset="0" stop-color="#fff"/><stop offset="1" stop-color="#fff" stop-opacity="0"/></linearGradient><linearGradient id="c" x1="0.5" x2="0.5" y2="1" gradientUnits="objectBoundingBox"><stop offset="0" stop-color="#5bbde6"/><stop offset="1" stop-color="#5bbde6" stop-opacity="0"/></linearGradient><clipPath id="d"><rect width="1000" height="1000.002" transform="translate(0 0)" fill="#5bbde6"/></clipPath></defs><g transform="translate(2939 1250)"><rect width="1000" height="1000.002" transform="translate(-2939 -1250)" fill="#5bbde6"/><ellipse cx="194.04" cy="194.04" rx="194.04" ry="194.04" transform="translate(-2399.433 -749.898)" opacity="0.4" fill="url(#a)"/><ellipse cx="62.487" cy="62.487" rx="62.487" ry="62.487" transform="translate(-2175.794 -1151.335)" opacity="0.4" fill="url(#a)"/><g transform="translate(-2791.446 -936.037)"><path d="M541.283,396.285H702.2v89.922a159.9,159.9,0,0,1-159.9,159.9H514.2q-48.586,0-77.282-7.252a138.233,138.233,0,0,1-52.049-25.553q-66.24-51.1-66.242-176.015,0-81.384,31.544-135.64c15.557-26.5,50.813-76.336,50.813-76.336H702.2v75.075H528.706q-56.158,0-81.384,24.6-30.281,29.024-30.281,104.1,0,38.488,7.884,69.4t21.768,46.055q11.977,13.884,33.123,20.187,21.127,6.311,52.046,6.306h0a81.381,81.381,0,0,0,81.381-81.382v-18.3h-71.96Z" transform="translate(8.609 -225.316)" fill="#fff"/><path d="M377.756,461.9,198,225.316H318.807l111.345,164.66L547.32,225.316H670.31L481.095,465.051v181.06H377.756Z" transform="translate(-198 -225.316)" fill="#fff"/><path d="M319.716,398.813q-1.09,14.177-1.093,29.289a376.707,376.707,0,0,0,4.167,57.984L452.828,230.159Z" transform="translate(8.521 -217.029)" fill="url(#c)"/></g><g transform="translate(-2939 -1250)" clip-path="url(#d)"><ellipse cx="282.895" cy="282.895" rx="282.895" ry="282.895" transform="translate(-46.053 223.685)" opacity="0.4" fill="url(#a)"/></g></g></svg>