<svg xmlns="http://www.w3.org/2000/svg" width="229.102" height="239.28" viewBox="0 0 229.102 239.28"><g transform="translate(-167.868 -2114.73)"><path d="M223.023,2284.343c-1.6,1.83-2.995,3.488-4.458,5.087a14.075,14.075,0,0,1-7.309,4.672,13.247,13.247,0,0,1-4.545.2,3.529,3.529,0,0,0-3.356,1.083c-1.953,2.064-3.9,4.137-5.856,6.2a14.172,14.172,0,0,1-1.307,1.263,1.983,1.983,0,0,1-2.99-.06q-4.256-3.794-8.48-7.622-7.9-7.122-15.791-14.251a2.644,2.644,0,0,1-.24-4.037q2.259-2.67,4.521-5.336a4.929,4.929,0,0,0,1.119-4.1c-.792-5.6,1.141-10.459,4.648-14.613,5.026-5.952,10.321-11.674,15.508-17.49q10.807-12.12,21.621-24.235a1.5,1.5,0,0,0-.043-2.285c-1.607-1.819-3.24-3.616-4.845-5.437-1.321-1.5-1.309-2.444.128-3.866s2.9-2.79,4.395-4.138a2,2,0,0,0,.712-1.665q-.118-11.067-.19-22.133c-.015-2.107.637-2.732,2.736-2.729q23.237.017,46.47.019c1.961,0,2.48.464,2.517,2.459.053,2.875.029,5.75.055,8.623.039,4.472.074,8.944.163,13.414a2.445,2.445,0,0,0,.568,1.427c1.5,1.737,3.089,3.406,4.617,5.124,1.2,1.354,1.184,2.18-.036,3.488-1.48,1.588-2.959,3.178-4.475,4.733a2.371,2.371,0,0,0-.708,1.787c-.043,12.073-.041,24.146-.219,36.217a55.547,55.547,0,0,1-1.124,8.139c-1.5,9.069-3.046,18.131-4.573,27.194-1.049,6.231-2.158,12.454-3.115,18.7a20.266,20.266,0,0,1-2.666,8.209,15.24,15.24,0,0,1-11.42,6.894,18.892,18.892,0,0,1-10.877-1.356c-4.855-2.334-7.419-6.445-8.334-11.582-.964-5.4-1.686-10.849-2.517-16.274C223.252,2285.571,223.153,2285.08,223.023,2284.343Zm5.738-87.924v-.145c-2.618,0-5.238-.005-7.857.008a1.421,1.421,0,0,0-.893.18c-1.242,1.236-2.5,2.465-3.626,3.8-.989,1.177-.857,2.193.216,3.321.946,1,1.888,2,2.882,2.944a3.089,3.089,0,0,1,1.032,2.456c-.046,2.873-.034,5.748-.005,8.623a7.362,7.362,0,0,0,.289,1.876c.173.623.56.729,1.032.207q1.158-1.281,2.333-2.542c.984-1.054,1.516-1.09,2.591-.156,2.579,2.244,5.173,4.469,7.715,6.751a8.718,8.718,0,0,1,2.793,7.795,11.276,11.276,0,0,1-3.149,6.219c-3.388,3.91-6.714,7.875-10.148,11.744a7.863,7.863,0,0,0-1.869,6.941c1.349,7.825,2.8,15.634,4.112,23.465,1.165,6.955,2.218,13.93,3.277,20.9.578,3.8,2.031,7.066,5.478,9.093a14.779,14.779,0,0,0,10.307,1.48c5.427-.929,8.795-4.386,9.719-9.809.715-4.183,1.39-8.374,2.09-12.56,1.949-11.676,3.921-23.349,5.844-35.031a58.363,58.363,0,0,0,1.141-8.713c.139-12.1.082-24.21.07-36.315a3.242,3.242,0,0,1,1.008-2.478c.909-.9,1.8-1.816,2.653-2.765a2.681,2.681,0,0,0,.19-3.919c-.5-.659-1.15-1.2-1.645-1.86a4.369,4.369,0,0,0-3.863-1.665c-4.951.019-9.9.008-14.853.005-.6,0-1.207-.018-1.809-.04-2.033-.072-4.064-.188-6.1-.2-.686,0-1.373.358-2.062.367C234.694,2196.445,231.727,2196.419,228.761,2196.419Zm-3.246,22.713-.267-.2c-.2.185-.414.356-.6.555q-9.511,10.391-19.013,20.784-1.907,2.084-3.818,4.167c-.479.522-1.022,1.035-1.7.4s-.188-1.215.282-1.733c.236-.261.477-.515.715-.775q7.919-8.662,15.833-17.328a5.857,5.857,0,0,0,1.586-4.093c-.01-1.375.05-2.75-.033-4.12a4.522,4.522,0,0,0-.6-1.395,5.1,5.1,0,0,0-1.124.732q-5.057,5.632-10.073,11.3c-8.035,9.05-16.121,18.058-24.079,27.178-3.346,3.833-5.163,8.254-3.982,13.518a5.126,5.126,0,0,1-1.325,4.87c-1.241,1.328-2.375,2.757-3.551,4.149a2.005,2.005,0,0,0,.2,3.168q9.485,8.509,18.986,17c1.263,1.13,2.268,1.066,3.447-.171,1.566-1.64,3.175-3.243,4.67-4.944a5.491,5.491,0,0,1,5.7-1.767,7.72,7.72,0,0,0,2.644.156c2.8-.426,4.881-2.132,6.7-4.152,2.286-2.539,4.458-5.18,6.739-7.723a2.307,2.307,0,0,0,.64-2.142c-.8-4.591-1.508-9.2-2.326-13.785a31.359,31.359,0,0,0-1.3-5.269c-.532-1.462-1.369-1.5-2.43-.359a19.624,19.624,0,0,1-1.754,1.891,1.318,1.318,0,0,1-1.239.035c-.222-.146-.181-.769-.161-1.175.009-.183.24-.365.383-.534q6.033-7.008,12.063-14.014c2.228-2.589,4.494-5.151,6.662-7.79,2.206-2.687,2.726-5.649,1.039-8.815-.88-1.653-1.865-1.735-3-.4-1.181,1.383-2.4,2.736-3.63,4.078a9.047,9.047,0,0,1-4.289,2.935,3.966,3.966,0,0,1-4.174-1.24,3.451,3.451,0,0,1-.539-3.853,9.824,9.824,0,0,1,1.4-2.492c1.537-1.959,3.169-3.844,4.752-5.765A9.235,9.235,0,0,0,225.515,2219.132Zm16.537-46.609v.147q-9.963,0-19.927,0a1.749,1.749,0,0,0-1.951,1.869q.026,8.864.118,17.724c.014,1.369.489,1.825,1.821,1.961a16.141,16.141,0,0,0,1.622.087q19.065-.021,38.132-.05c2.031,0,2.487-.432,2.475-2.446q-.054-8.24-.128-16.479c-.019-2.151-.678-2.813-2.807-2.817Q251.729,2172.517,242.051,2172.524Zm-19.5,59.03a4.723,4.723,0,0,0,2.955-1.61c1.754-1.848,3.433-3.77,5.144-5.661a.867.867,0,0,0-.132-1.4c-.768-.673-1.545-1.333-2.31-2.007a.958.958,0,0,0-1.6.152c-1.47,1.8-3.031,3.534-4.468,5.364a11.465,11.465,0,0,0-1.566,2.714C220.045,2230.4,220.94,2231.544,222.556,2231.553Z" transform="translate(0 38.497)" fill="#2d75cd"/><path d="M201.215,2187.07c-.236-.23-.772-.518-.768-.8a1.537,1.537,0,0,1,.645-1.179,15.234,15.234,0,0,1,2.452-.787q16.776-5.006,33.551-10.013c.062-.017.12-.046.181-.062.7-.168,1.491-.407,1.756.537.246.879-.488,1.125-1.157,1.325q-17.1,5.1-34.195,10.2C202.92,2186.521,202.163,2186.771,201.215,2187.07Z" transform="translate(23.175 42.211)" fill="#2d75cd"/><path d="M201.255,2179.687c-.212-.189-.688-.416-.729-.7a1.964,1.964,0,0,1,.445-1.122c.1-.151.394-.183.606-.247q9.051-2.765,18.106-5.524c.122-.037.246-.068.37-.1.625-.166,1.191-.1,1.379.611.185.7-.241,1.066-.866,1.257l-4.48,1.371q-6.949,2.122-13.9,4.246C201.942,2179.547,201.69,2179.588,201.255,2179.687Z" transform="translate(23.227 40.677)" fill="#2d75cd"/><path d="M214.456,2185.367c-.221-.24-.683-.531-.808-.926-.2-.634.279-.982.868-1.142q5.219-1.4,10.441-2.8c.986-.265,1.966-.551,2.952-.815.6-.159,1.2-.187,1.438.523.25.748-.212,1.147-.871,1.33q-6.687,1.853-13.378,3.686C214.974,2185.258,214.848,2185.28,214.456,2185.367Z" transform="translate(32.533 46.139)" fill="#2d75cd"/><path d="M235.334,2220.054c-1.658-.017-30.671-.281-32.779-.282-1.3,0-1.894.684-1.728,1.918q.236,1.756.464,3.512c1.153,8.988,4.889,29.914,6.11,38.893a11.78,11.78,0,0,0,16.872,8.891c3.905-1.925,5.7-5.36,6.33-9.47,1.533-9.965,4.8-31.635,6.294-41.6C237.1,2220.577,236.691,2220.066,235.334,2220.054Zm-.791,4.4c-.669,4.547-3.14,20.784-3.821,25.33-.686,4.576-1.307,9.162-2.095,13.721-.628,3.639-2.268,6.684-5.969,8.056-6.421,2.375-12.52-1.455-13.462-8.5-1.227-9.173-4.989-30.291-6.149-39.472-.169-1.335.193-1.8,1.5-1.823,1.655-.033,26.807.212,27.987.224C234.211,2222.015,234.8,2222.729,234.543,2224.457Z" transform="translate(23.425 74.721)" fill="#2d75cd"/><g transform="translate(234.478 2295.343)"><path d="M213.764,2269.21a8.987,8.987,0,0,1-1.123-.074,6.778,6.778,0,0,1-5-4.029,7.352,7.352,0,0,1,.255-5.722,10.306,10.306,0,0,1,.7-1.191c-.029,0,.021-.183.012-.335a1.136,1.136,0,0,0-.173-.392l-.435-.525a4.281,4.281,0,0,1-1.105-3.192,3.868,3.868,0,0,1,1.128-2.536c.394-.42.477-.538.476-.755,0-.134-.111-.264-.363-.505a3.925,3.925,0,0,1-1.34-3.007,4.109,4.109,0,0,1,.962-2.314l.161-.217a3.261,3.261,0,0,0,.608-1.228c-.015-.221-.022-.319-.464-.848a4.524,4.524,0,0,1-1.2-3.119,4.01,4.01,0,0,1,1.218-2.655c.383-.4.539-.594.551-.908.015-.38,0-.44-.457-1.043a4.526,4.526,0,0,1-1.083-3.215,3.743,3.743,0,0,1,1.236-2.572c.493-.479.618-.619.635-.821s.015-.2-.289-.577l-.173-.216a5.486,5.486,0,0,1-1.155-3.431,6.36,6.36,0,0,1,.317-1.792,2.522,2.522,0,0,1,2.986-1.677h0c.423.072,13.224,1.99,13.224,1.99a2.29,2.29,0,0,1,1.96,2.567l-5.509,37.384c-.513,2.793-1.237,4.424-2.432,5.5A6.028,6.028,0,0,1,213.764,2269.21Zm-3.741-13.939s.341.4.477.575a3.634,3.634,0,0,1,.729,1.88,3.7,3.7,0,0,1-.4,1.824c-.152.248-.286.467-.613,1.073a4.763,4.763,0,0,0-.156,3.463,4.231,4.231,0,0,0,2.925,2.448,4.018,4.018,0,0,0,3.144-.723c.722-.653,1.217-1.88,1.6-3.987l5.447-36.972c-1.86-.279-12.642-1.894-12.972-1.951h0a.411.411,0,0,0-.175,0c.007.278-.058.615-.065.92a2.823,2.823,0,0,0,.6,1.778,3.352,3.352,0,0,1,1.013,2.624,3.546,3.546,0,0,1-1.242,2.314c-.445.443-.594.594-.628,1.057a1.965,1.965,0,0,0,.556,1.438,3.761,3.761,0,0,1,.991,2.73,3.872,3.872,0,0,1-1.273,2.618,1.4,1.4,0,0,0-.5.986,1.938,1.938,0,0,0,.573,1.269,3.759,3.759,0,0,1,1.094,2.407,5.067,5.067,0,0,1-1.071,2.875l-.214.293a1.636,1.636,0,0,0-.445.905,1.344,1.344,0,0,0,.45.864,3.37,3.37,0,0,1,1.258,2.476,3.454,3.454,0,0,1-1.128,2.5,1.39,1.39,0,0,0-.486,1.04A1.685,1.685,0,0,0,210.022,2255.27Z" transform="translate(-206.79 -2220.268)" fill="#2d75cd"/></g><path d="M344.574,2217.095q-6.818-9.193-13.643-18.382c-2.3-3.1-4.6-6.2-6.934-9.347.284-.234.519-.44.767-.631,2.757-2.126,5.523-4.237,8.264-6.38a6.97,6.97,0,0,0,1.335-1.358c2.548-3.493,2.743-7.328,1.46-11.3-1.342-4.155-2.8-8.273-4.169-12.418a3.391,3.391,0,0,1-.144-1.573c.9-5.406,1.848-10.805,2.779-16.209q1.787-10.363,3.565-20.731c.274-1.611-.294-2.3-1.913-2.552-2.2-.345-4.414-.665-6.6-1.09a14.367,14.367,0,0,0-7.28.147c-4,1.289-6.643,3.8-7.251,8.134-.014.091-3.6,19.554-4.22,22.905-1.157,0-2.264.021-3.37-.019a.882.882,0,0,1-.573-.4c-.3-.469-.568-.957-.857-1.432l-.017.006-7.919-12.33a43.275,43.275,0,0,0-2.736-3.5,7.23,7.23,0,0,0-9.111-.969c-2.018,1.5-4.23,2.741-6.337,4.127a6.688,6.688,0,0,0-2.254,1.734c-.914,1.6-2.428,2.146-3.861,3.009-3.222,1.941-6.323,4.092-9.409,6.248a14.072,14.072,0,0,0-2.062,2.21c-.164.177-.325.507-.493.511-1.869.052-3.154,1.308-4.593,2.209a19.742,19.742,0,0,0-4.116,2.929,11.8,11.8,0,0,1-3.315,2.562,71.681,71.681,0,0,0-7.171,4.592,5.1,5.1,0,0,0-1.241,6.6q3.332,5.144,6.666,10.286c.048.073.1.154.142.229l.014-.007,2.126,3.321,0,0c.337.516.625.957.955,1.465l-.012.01,1.6,2.5.024-.018c.311.473.577.867.833,1.266q3.673,5.666,7.338,11.333a2.581,2.581,0,0,0,1.859,1.355,1.777,1.777,0,0,1,1.094.676c3.127,4.628,6.2,9.3,9.322,13.925,2.165,3.2,5.177,4.333,8.981,3.531a22.446,22.446,0,0,0,7.152-3.125c.265.34.483.613.691.892q10.24,13.749,20.482,27.5c1.153,1.547,1.925,1.737,3.366.8q15.1-9.883,30.2-19.775C345.609,2219.485,345.741,2218.671,344.574,2217.095Zm-9.989-97.971c-.738,4.311-1.462,8.536-2.213,12.926-.871-.293-1.686-.524-2.454-.856-.176-.076-.315-.524-.272-.766.686-3.859,1.405-7.713,2.15-11.748Zm-53.916,15.948c2.268-1.538,4.554-3.056,6.89-4.494a4.433,4.433,0,0,1,5.454,1.083q7.573,11.457,15.065,22.967a5.511,5.511,0,0,1-.086,6.476c-1.181-1.795-2.333-3.479-3.407-5.212a3.162,3.162,0,0,0-4.112-1.424,26.938,26.938,0,0,0-4.025,2.375c-1.275.913-1.28,2.918-.151,4.511,1.2,1.693,2.42,3.37,3.63,5.057.166.229.317.469.476.708-.909.49-1.434.394-1.953-.4q-9.226-14.034-18.435-28.08A2.635,2.635,0,0,1,280.668,2135.071Zm25.794,28.236c-1.473,1-2.955,1.989-4.525,3.043-1.407-1.965-2.817-3.748-4.011-5.665-.955-1.53-.667-2.457.647-3.123.871-.443,1.734-.9,2.622-1.314a1.518,1.518,0,0,1,2.038.72c1.145,1.691,2.25,3.409,3.428,5.076C307.054,2162.605,306.958,2162.97,306.462,2163.307Zm-38.673-19.153c2.179-1.556,4.424-3.024,6.7-4.436,1.853-1.15,2.853-.852,4.061.989,5.175,7.892,10.369,15.772,15.515,23.682a5.576,5.576,0,0,1-.055,6.51c-1.035-1.637-2.1-3.222-3.058-4.865s-2.481-2.309-4.2-1.52a32.419,32.419,0,0,0-4.01,2.213c-1.369.883-1.516,2.884-.44,4.461,1.116,1.633,2.242,3.26,3.358,4.891.175.255.329.526.51.815a1.212,1.212,0,0,1-1.686-.5c-2.132-3.214-4.3-6.405-6.424-9.625q-5.483-8.309-10.932-16.64c-.123-.187-.25-.371-.365-.561C265.358,2147.249,265.589,2145.726,267.789,2144.154Zm25.32,28.489c-1.758,1.188-3.479,2.354-5.307,3.591-1.378-2.054-2.779-3.984-4-6.022-.674-1.126-.325-1.99.82-2.627a30.866,30.866,0,0,1,2.986-1.431,1.354,1.354,0,0,1,1.747.594C290.585,2168.638,291.782,2170.553,293.108,2172.642Zm-37.126-19.981a38.914,38.914,0,0,1,4.78-3.327c1.544-.92,2.764-.511,3.753.991q8.6,13.084,17.177,26.184a9.285,9.285,0,0,1,.907,2.456c.072.247-.118.568-.252,1.123-1.426-2-2.745-3.688-3.881-5.492a3.37,3.37,0,0,0-4.807-1.023c-1.109.824-2.331,1.472-2.625,2.992a2.774,2.774,0,0,0,.409,2.266c1.357,1.961,2.644,3.972,3.984,6-.724.575-1.3.63-1.811-.142-.777-1.166-1.581-2.312-2.35-3.481q-7.922-12.042-15.832-24.088C254.146,2155.156,254.19,2154.137,255.982,2152.661Zm25.068,28.53c-1.41.925-2.754,1.81-4.186,2.751-1.381-2.113-2.723-4.157-4.047-6.214a1.056,1.056,0,0,1-.145-.635c.145-1.248,1.2-1.7,2.12-2.126a2.1,2.1,0,0,1,1.622.315,5.382,5.382,0,0,1,1.4,1.4C278.9,2178.134,279.929,2179.625,281.05,2181.191Zm-16.333,10.959a4.308,4.308,0,0,1-1.193-.281,2.332,2.332,0,0,1-.65-.807c-5.771-8.771-11.557-17.533-17.276-26.338a9.71,9.71,0,0,1-1.1-3.1,2.034,2.034,0,0,1,1.013-2.125c1.391-.954,2.808-1.876,4.234-2.784a4.464,4.464,0,0,1,1.063-.413,1.43,1.43,0,0,1,1.841.708c5.6,8.578,11.244,17.127,16.857,25.7a19.586,19.586,0,0,1,1.616,2.913,6,6,0,0,1,.19,1.8l-.291.069c-.151-.179-.32-.349-.454-.544q-1.825-2.693-3.642-5.394a3.15,3.15,0,0,0-4.634-.991,5.14,5.14,0,0,0-2.358,3.662,2.09,2.09,0,0,0,.5,1.275c1.331,1.95,2.7,3.872,4.054,5.808.123.176.216.375.322.561Zm4.956-3.387c-1.1.726-2.163,1.424-3.264,2.15a2.241,2.241,0,0,1-.341-.312c-1.318-1.879-2.639-3.755-3.936-5.647-.643-.938-.257-2.062.941-2.866a1.561,1.561,0,0,1,2.5.5q1.851,2.732,3.69,5.47C269.4,2188.258,269.508,2188.481,269.673,2188.763Zm43,48.611c-1.188-1.588-2.351-3.137-3.508-4.691q-8.1-10.866-16.2-21.73a1.906,1.906,0,0,1-.248-2.362,1.732,1.732,0,0,0,.223-1.182,1.882,1.882,0,0,0-.758-1.179,1.759,1.759,0,0,0-1.352.2c-2.562,1.412-5.074,2.917-7.651,4.3a6.625,6.625,0,0,1-2.305.556,5.339,5.339,0,0,1-5.386-2.569q-4.654-6.966-9.32-13.925c-.421-.626-.351-.982.282-1.383,1.619-1.023,3.226-2.069,4.8-3.166a17.058,17.058,0,0,0,1.747-1.583c.163-.148.3-.431.471-.45,1.8-.19,2.938-1.584,4.391-2.4.833-.466,1.583-1.083,2.413-1.556a14.238,14.238,0,0,0,3.847-3.406,3.07,3.07,0,0,1,1-.572,15.168,15.168,0,0,0,1.439-.708c1.876-1.215,3.731-2.461,5.594-3.693a4.006,4.006,0,0,1,.657-.39c.83-.339,1.191-.075,1.1.828a27.2,27.2,0,0,0,.371,7.814,3.678,3.678,0,0,0,.248.822c.26.57.667.992,1.345.763s.584-.794.514-1.365a30.526,30.526,0,0,1-.418-4.176,12.538,12.538,0,0,1,3.695-8.87,45.763,45.763,0,0,1,6.779-5.438c3.144-2.184,5.112-5.181,4.518-9.178a20.188,20.188,0,0,0-1.787-4.582c-.25-.589-.965-1.047-.57-1.8s1.159-.527,1.807-.535c2.23-.031,2.709-.418,3.144-2.595.031-.156.08-.308.11-.465.945-4.976,1.9-9.951,2.825-14.932.483-2.6,1.039-5.194,1.343-7.816.368-3.155,3.026-5.431,6.308-6.015,2.023-.359,3.916.156,5.971.46-.407,2.249-.8,4.434-1.2,6.62-.334,1.819-.679,3.639-1.006,5.459a1.672,1.672,0,0,0,1.157,2.211c.963.406,1.966.716,3.019,1.092-.484,2.827-.962,5.616-1.441,8.406-.734,4.273-1.41,8.557-2.24,12.81a6.6,6.6,0,0,0,.366,3.611c1.412,4.029,2.783,8.071,4.153,12.114a9.041,9.041,0,0,1-.864,7.993,6.38,6.38,0,0,1-1.456,1.62q-3.874,3.053-7.821,6.012a6.678,6.678,0,0,1-1.658.851,1.6,1.6,0,0,0-.618,2.651q3.119,4.185,6.24,8.368,7.229,9.724,14.449,19.453c.151.2.282.416.483.713Z" transform="translate(51.626)" fill="#2d75cd"/><rect width="7.921" height="2.622" transform="matrix(0.831, -0.556, 0.556, 0.831, 357.993, 2129.767)" fill="#2d75cd"/><path d="M257.922,2145.7l-19.537,13.466-2.019,2.1-12.167,7.733-2.278,4.27,2.383,3.563,37.617-25.152Z" transform="translate(38.45 22.026)" fill="#2d75cd"/><path d="M277.135,2134.078l8.542-5.711-4-5.98-8.348,5.582Z" transform="translate(75.021 5.446)" fill="#2d75cd"/></g></svg>