<svg xmlns="http://www.w3.org/2000/svg" width="223.456" height="172.283" viewBox="0 0 223.456 172.283"><g transform="translate(-173.593 -1899.292)"><path d="M358.674,2042.9a3.19,3.19,0,0,0-2.457.469c-.3.206.031,1.472.288,2.189.186.529.989.909,1.04,1.4.155,1.745.736,3.916-.062,5.12-.65.989-3.311,1.544-4.565,1.028a6.317,6.317,0,0,1-3.066-4c-.363-1.446.411-3.229.847-4.819,2.083-7.525,4.5-14.976,6.286-22.576,5-21.367,7.986-42.921,3.908-64.843-3.211-17.295-10.649-32.335-25.462-42.49-22.52-15.431-47.647-18.344-73.5-11.809-27.459,6.94-49.525,32.446-48.477,65.691a12.051,12.051,0,0,1-2.15,7.575c-7.9,11.8-1.834,28.182,11.9,32.136a13.684,13.684,0,0,1,6.885,4.5,59.647,59.647,0,0,0,24.758,17.452c6.945,2.506,14.259,4.026,21.71,6.073a24.741,24.741,0,0,1-4.5,14.115c-5.593,7.926-13.879,11.573-22.752,14.254-12.339,3.734-25.026,3.7-37.739,3.616-1.29-.006-2.588,1.166-3.877,1.789,1.228.588,2.444,1.672,3.678,1.7,7,.137,14,0,21.005,0q62.884,0,125.757-.056c1.652,0,4.171-.274,4.795-1.316,2.331-3.877,4.868-7.962,5.766-12.3C370.027,2051.41,364.983,2044.671,358.674,2042.9Zm-27.514-127.814c3.809,3.468,7.894,6.666,11.366,10.444,8.785,9.565,13.162,21.286,15.3,33.88,2.212,12.987,1.621,26.018-.013,39.024a3.473,3.473,0,0,1-1.347,2.263q-13.29-42.347-26.58-84.707C330.311,1915.683,330.736,1915.391,331.159,1915.084Zm-26.025-10.032c4.129,1.229,8.225,2.545,12.375,3.654,6.728,1.8,10.313,5.725,12.383,12.77,8,27.24,16.929,54.2,25.139,81.389,1.092,3.616.655,8.006-.137,11.822-1.7,8.218-4.078,16.291-6.215,24.41a28.773,28.773,0,0,1-1.254,3.2c-.374.044-.756.088-1.135.124q-20.9-68.138-41.791-136.269C304.711,1905.783,304.923,1905.421,305.135,1905.052ZM275.4,1908.02l-5.843-2.749C273.773,1902.952,275.158,1903.594,275.4,1908.02Zm-9.815-2.251c3.941-.442,11.616,5.781,12.907,9.632,1.608,4.789,3.125,9.6,4.682,14.409-.223.226-.449.444-.666.668-11.747-5.456-23.493-10.911-36.17-16.8C252.917,1909.68,258.853,1906.544,265.587,1905.77Zm-30.351,106.448c-3.99-3.91-7.538-7.368-13.162-9.084-8.331-2.543-14.615-15.575-7.095-25.488a10.021,10.021,0,0,0,2.137-7.425c-1.314-18.075,5.082-33.419,17-46.738,1.92-2.145,3.267-2.044,5.045.268,9.42,12.271,8.236,25.189-3.386,35.321-1.553,1.36-3.125,2.712-4.682,4.059.181.281.361.555.542.829a17.238,17.238,0,0,0,2.738-1.358c14.482-10.643,16.758-24.977,6.471-39.641-.829-1.179-1.528-3.685-.9-4.408,1.57-1.847,3.515-4.178,6.633-2.725,11.921,5.536,23.885,10.974,35.713,16.7,3.767,1.822,3.461,6.062,4.751,9.59-1.645.392-2.893.7-4.14.985a15.2,15.2,0,0,0-3.043,28.768c5.206,2.362,10.276-1.13,10.313-7.172-2.395.438-4.813,1.347-7.177,1.228-9.433-.5-12.917-5.729-8.648-14.184,2.09-4.152,5.731-6.16,10.108-7.058,2.282-.473,3.7.169,4.494,2.681q11.346,35.491,22.945,70.915c.935,2.857.555,4.452-2.313,5.923C282.826,2037.9,254.558,2031.147,235.236,2012.217ZM302.51,2067.7H253.049c-.062-.219-.124-.423-.193-.635,1.247-.469,2.512-.91,3.735-1.409,10.873-4.446,19.64-10.963,22.644-23.126.588-2.351.493-5.456,1.99-6.847,1.391-1.3,4.5-.653,6.808-1.078,5.425-.991,10.818-2.1,16.716-3.273A77.545,77.545,0,0,0,302.51,2067.7Zm21.6.25c-5.892-.193-11.791-.051-17.831-.051-2.475-12.731-1.92-24.933,2.617-36.846a7.761,7.761,0,0,1,1.964-2.875c2.165-1.946,3.716-1.484,4.633,1.3,3.773,11.554,7.469,23.137,11.291,34.678C327.686,2066.866,327.356,2068.063,324.114,2067.952Zm22.5-.057c-2.021.006-4.041,0-6.054,0-10.636.006-10.643.006-13.872-9.944q-24.269-74.783-48.527-149.57c-1.551-4.769-1.3-5.249,3.535-5.03,5.673.254,11.335.834,17.021,1.1,2.712.119,3.809,1.4,4.583,3.921q16.863,55.358,33.9,110.644,6.658,21.717,13.3,43.439C352.1,2067.658,351.933,2067.888,346.616,2067.9Zm14.047-.635a5.049,5.049,0,0,1-7.482-2.263c-.748-2.232-1.378-4.5-2.021-6.766a4.407,4.407,0,0,1,.157-1.309c5.9,1.172,9.913-.891,11.129-7.208C366.842,2054.654,365.812,2063.524,360.663,2067.26Z" transform="translate(28.14)" fill="#2d75cd"/><path d="M242.82,1971.55c-7.458-4.364-14.958-8.679-22.414-13.062-5.551-3.254-7.213-3.167-12.165.96-4.8-2.407-9-7.133-14.339-2.345-1.447-1.365-2.6-2.562-3.853-3.621-2.532-2.14-7.171-2.152-8.517.666-2.245,4.689-3.556,9.827-5.218,14.783-.449,1.323-.493,2.888-1.228,4-2.17,3.286-2.046,6.454.854,9.234,1.415,1.36,2.643,2.4,1.732,4.8-.431,1.13.58,2.825,1,4.247.48,1.6,1.489,3.167,1.509,4.756q.225,14.057.037,28.113c-.044,2.911,1.011,4.072,3.935,4.008,5.1-.129,10.207-.173,15.3.02,3.187.118,4.235-1.267,4.147-4.215-.1-3.517-.018-7.034-.018-10.555.617,0,.891-.083,1.059.018q5.249,2.982,10.475,6.016c5.045,2.919,8.685,2.083,11.627-2.911q9.747-16.526,19.353-33.145C249.172,1978,248.212,1974.711,242.82,1971.55Zm-35.658-9.9c-.155.287-.312.573-.473.862-1.665-.911-3.236-2.146-5.014-2.651a36.575,36.575,0,0,0-6.452-.668C198.415,1955.913,201.995,1956.705,207.162,1961.655Zm-11.278,10.382c5.138-4.259,5.306-5.076,2.606-11.466,2.251,1.2,4.5,2.406,7.144,3.827-1.92,3.38-3.64,6.434-5.4,9.471-1.771,3.055-3.59,6.091-5.386,9.139-.431-.093-.86-.186-1.3-.28.325-.973.356-2.252,1.011-2.874C197.037,1977.5,197.723,1974.992,195.884,1972.037Zm-12.114-15.371c.548-.841,3.1-1.453,3.846-.909,3.517,2.581,6.741,5.567,10,8.486.467.417.555,1.252,1,2.318-.867.949-1.615,2.271-2.736,2.849a3.6,3.6,0,0,1-3.181-.374,84.6,84.6,0,0,1-8.915-8.117C183.034,1960.1,183.1,1957.7,183.769,1956.667Zm-3.262,9.01c1.466-1.6,3.076-1.577,4.689-.2,2.962,2.544,5.992,5.019,8.811,7.706a3.466,3.466,0,0,1,.841,3.061c-.573,1.267-1.907,2.188-2.955,3.293a15.568,15.568,0,0,1-2.544-1.372c-2.855-2.481-5.673-5.013-8.478-7.544C179.193,1969.106,178.93,1967.41,180.508,1965.676Zm-3.147,12.963c-.549-.56-.17-3.006.573-3.616.909-.761,3.129-1.154,3.959-.562a89.829,89.829,0,0,1,9.482,8.019,3.834,3.834,0,0,1,.588,3.448c-.462,1.146-1.847,1.915-2.663,2.687-.843-.217-1.267-.212-1.5-.418C184.268,1985.068,180.664,1982.005,177.361,1978.64Zm1.918,7.232c3.437,3.148,6.235,5.719,9.035,8.279-.25.268-.493.544-.741.812C184.773,1992.387,179.624,1992.225,179.279,1985.871Zm20.695,34.934a29.038,29.038,0,0,0-.2,3.5H184.056V1995.6l.779-.418c.642,1.122,1.721,2.194,1.858,3.373.356,3.255,1.752,5.866,4.757,6.927C198.939,2008.13,201.363,2013.33,199.974,2020.8Zm35.806-26.9c-3.99,6.87-7.967,13.735-12.008,20.574-2.026,3.43-3.4,3.734-6.971,1.672q-11.7-6.743-23.356-13.574c-1.913-1.115-3.928-2.575-2.555-5.02,1.285-2.281,1.21-6.127,5.518-5.7,2.238.219,4.027-.392,5.012-2.937.818-2.088,2.1-2.057,3.585-.024a7.7,7.7,0,0,0,4.222,2.816c2.008.413,3.18-.991,3.28-3.216.024-.474,1.216-1.34,1.721-1.247a6.766,6.766,0,0,1,2.362,1.484c1.265.947,2.524,2.731,3.735,2.687,1.267-.049,2.5-1.8,3.685-2.867.568-.519,1.154-1.734,1.471-1.654.774.207,1.391.993,2.088,1.535,1.3,1,2.606,2.756,3.923,2.762,1.259.005,2.488-1.864,3.809-2.813.96-.7,2.039-1.258,3.074-1.876.294.43.586.861.885,1.29C238.1,1989.824,236.959,1991.882,235.78,1993.9Zm6.708-11.541c-.586,1.017-1.239,2-1.907,3.056-3.136-.842-6.116-1.69-7.263,2.811a1.944,1.944,0,0,1-3.729-.106c-.717-2.213-1.938-3.079-4.114-3.061-2.214.018-3.136,1.159-3.386,3.28-.062.492-1.166,1.159-1.8,1.172a2.181,2.181,0,0,1-1.6-1.265c-.772-2.276-2.307-3.13-4.607-3.043-2.119.081-3.249.991-3.5,3.185-.069.586-1.055,1.553-1.546,1.509a3.4,3.4,0,0,1-2.232-1.329c-2.763-4.171-4.545-4.083-7.52.175-.635.916-2.2,1.172-3.348,1.739-.237-.286-.475-.568-.7-.849q2.366-4.057,4.744-8.124c3.636-6.241,7.245-12.5,10.917-18.722,1.99-3.355,3.218-3.724,6.648-1.765,7.606,4.346,15.17,8.779,22.726,13.219C244.877,1976.949,245.095,1977.816,242.488,1982.361Z" transform="translate(0 43.455)" fill="#2d75cd"/><path d="M228.081,1952.24c-2.037-.387-3.03-1.228-3.309-3.386a24.493,24.493,0,0,0-1.721-4.976c-.281.132-.555.263-.829.395q.914,8.4,1.838,16.8l.973.2c.294-2.419.593-4.843.911-7.48q6.407,1.56,12.844,3.123c.13-.436.261-.867.385-1.3a30.476,30.476,0,0,0-3.236-1.321C233.345,1953.531,230.739,1952.739,228.081,1952.24Z" transform="translate(40.132 36.796)" fill="#2d75cd"/><path d="M186.559,1975.825c-.007.223-.013.455-.02.685H216.9v-.685Z" transform="translate(10.684 63.16)" fill="#2d75cd"/><path d="M190.386,1979.261H210.78c.005-.219.013-.436.013-.656H190.4C190.392,1978.824,190.386,1979.041,190.386,1979.261Z" transform="translate(13.859 65.454)" fill="#2d75cd"/></g></svg>