<svg xmlns="http://www.w3.org/2000/svg" width="301.164" height="123.189" viewBox="0 0 301.164 123.189"><g transform="translate(-868.97 -1889.364)"><g transform="translate(1035.638 1892.853)"><path d="M1047.249,1950.3l-14.591-4.674-1.64-.921-8.965-2.506-2.206-2.214.807-2.648,27.95,8.519" transform="translate(-994.099 -1879.645)" fill="#2d75cd"/><path d="M1015.332,1938.874a5.36,5.36,0,0,1,.2-.516,3.324,3.324,0,0,1,1.3-1.6,2.94,2.94,0,0,1,2.33-.112l2.8.857-.378,1.236-2.79-.853a2.228,2.228,0,0,0-1.658.01,2.359,2.359,0,0,0-.862,1.286,2.237,2.237,0,0,0,.25,1.75,1.426,1.426,0,0,0,1.2.547c.269-.038.369-.06.482-.084a1.093,1.093,0,0,1,.694.144,1.342,1.342,0,0,1,.49.663c.032.092.1.315.1.315.093.282.181.4.333.46a.45.45,0,0,0,.445-.032,1.124,1.124,0,0,1,1.064-.064,1.363,1.363,0,0,1,.586,1.008c.021.089.08.3.2.356s.213.021.394-.038l.14-.043a1.563,1.563,0,0,1,1.178.029,1.436,1.436,0,0,1,.6.921.741.741,0,0,0,.315.483.454.454,0,0,0,.43-.048,1.274,1.274,0,0,1,1.133-.106,1.371,1.371,0,0,1,.724.932c.111.307.205.435.375.505s.244.028.481-.093a1.189,1.189,0,0,1,1.023-.147,1.245,1.245,0,0,1,.685.923,1,1,0,0,0,.481.584c.1.051.231.082.323.134a.229.229,0,0,0,.034-.078h0c.024-.086.49-1.6.958-3.131.064-.207,1.028.034.956.268-.465,1.518-.928,3.028-.956,3.127-.2.678-.694,1.117-1.153,1.043a1.87,1.87,0,0,1-.665-.176,1.958,1.958,0,0,1-.93-1.131l-.038-.116c-.068-.2-.068-.2-.138-.232s-.144,0-.4.138a1.232,1.232,0,0,1-1.11.1,1.633,1.633,0,0,1-.87-1.06c-.112-.312-.131-.33-.261-.391-.109-.05-.206-.014-.415.085a1.288,1.288,0,0,1-1.134.075,1.68,1.68,0,0,1-.814-1.1c-.09-.293-.124-.314-.2-.36a1.031,1.031,0,0,0-.533.055l-.1.033a1.3,1.3,0,0,1-.968.02,1.49,1.49,0,0,1-.75-1.138c-.032-.156-.053-.229-.1-.254-.073-.04-.129-.023-.348.079a1.247,1.247,0,0,1-1.076.056,1.559,1.559,0,0,1-.858-1.065l-.09-.29a.427.427,0,0,0-.1-.148c-.05-.031-.12-.041-.116-.054a3.426,3.426,0,0,1-.537.1,2.208,2.208,0,0,1-1.978-.9A3.612,3.612,0,0,1,1015.332,1938.874Z" transform="translate(-995.386 -1879.883)" fill="#2d75cd"/><path d="M1006.82,1973.672a4.629,4.629,0,0,0-1.1-4.845c-7.639-8.4-8.07-19.182-1.212-28.77a4.632,4.632,0,0,0,.61-4.567c-1.352-4.586-3.169-9.159-3.64-13.855-1.071-10.685,3.892-18.556,13.056-23.758,17.354-9.851,45.038-6.727,59.972,6.492,6.3,5.574,9.426,12.888,11.942,20.577,4.633,14.153,6.119,28.592,3.459,43.591,4.188,1.285,19.118,5.755,26.629,7.939l-.7,1.024c-5.837-1.676-23.2-6.68-27.257-7.921-12.115-3.7-36.333-11.155-36.333-11.155a4.93,4.93,0,0,1,.3-1.26c.213-.429.314-.629.413-.829q2.093-4.2,7.124-3.107c2.293.5,3.367,1.958,3.172,5.273-.154,2.609,1.6,2.385,3.326,2.83.088-1.108.133-2.11.252-3.1.4-3.272,2.368-4.993,5.522-4.855a5.085,5.085,0,0,1,5.214,5.261c.077,1.573-.1,3.167.084,4.721.084.708.778,1.341,1.2,2.01l.636-.321a9.86,9.86,0,0,0,.347-1.325,81.608,81.608,0,0,0-2.146-30.681c-1.693-6.469-3.443-12.965-7.736-18.329a5.258,5.258,0,0,0-2.855-1.7c-3.468-.7-6.971-1.242-10.481-1.683-8.059-1.014-16.134-1.7-24.269-.867-1.993.2-3.991.148-4.052,2.951a1.664,1.664,0,0,1-.639.96c-2.988,2.613-6.621,2.534-10.271,2.468-2.4-.045-3.724-1.405-4.451-3.718-2.484,5.273-2.521,11.885-.045,18.667a71.105,71.105,0,0,1,2.384,43.148c-.693,2.68-.467,5.6-.666,8.4l.741.126c1.57-4.969,5.386-6.486,10.057-6.6,4.915-.121,6.141.872,6.955,5.137l20.231-2.867c0-4.593.031-9.538-.047-14.483-.008-.52-.967-1.693-.967-1.693l.333-1.13s45.364,13.662,63,19.02l.091,1.384c-7.313-2.208-22.29-6.6-26.255-7.818-.9,2.539-1.71,4.976-2.629,7.37-6.237,16.241-18.279,25.2-35.256,27.677-9.175,1.342-18.428,1.548-27.454-.936-12.007-3.3-19.453-13.5-18.658-25.441C1004.951,1979.914,1006.04,1976.793,1006.82,1973.672Zm.991-6.318c1.315-8.261.672-20.577-1.291-25.649C1000.515,1948.748,1000.26,1960.637,1007.811,1967.354Zm9.205-51.858a36.724,36.724,0,0,0,8.505-1.166c.861-.2,1.448-1.574,2.161-2.409l-.625-.67-5.741,2.139q-.174-.386-.349-.772a25.646,25.646,0,0,1,3.979-1.936c8.4-2.459,16.97-2.039,25.524-1.237,5.386.5,10.742,1.328,16.28,2.029a2.864,2.864,0,0,0-.286-.624,8.267,8.267,0,0,0-.7-.631c-7.574-6.389-16.467-9.356-26.226-9.794-7.124-.321-13.92,1-20.033,4.982a10.593,10.593,0,0,0-4.835,6.416C1014.113,1914.046,1014.81,1915.484,1017.017,1915.5Zm50.907,67.228c-4.576-.585-9.135-1.381-13.729-1.71-8.42-.6-16.574,1.086-24.578,3.524a2.946,2.946,0,0,0-1.849,1.81,2.812,2.812,0,0,0,1.232,2.28,15.765,15.765,0,0,0,5,1.9c11.439,1.753,22.139-.994,32.476-5.671a8.634,8.634,0,0,0,1.588-1.219C1068.015,1983.332,1067.969,1983.027,1067.923,1982.724Zm.845,1.992a30.015,30.015,0,0,1-3.664,2.093,63.264,63.264,0,0,1-23.286,5.49c-4.5.175-9.094.065-13.078-2.312-1.7-1.011-2.839-2.96-4.207-4.506-.054-.061.163-.36.34-.726.485.43.869.772,1.055.938a20.869,20.869,0,0,1,3.088-2.213c1.112-.528,2.5-.921,1.933-2.364a4.975,4.975,0,0,0-2.5-2.672,10.486,10.486,0,0,0-4.427-.2c-7.019.673-9.9,6.815-5.981,12.651a18.664,18.664,0,0,0,11.216,8.165c10.362,2.484,20.647,2.171,30.548-2.117a27.789,27.789,0,0,0,13.063-11.765C1071.026,1983.74,1070.385,1983.71,1068.769,1984.716Zm-46.379,21.015c7.6,2.6,15.484,2.426,23.382,1.951,20.506-1.231,34.034-11.958,39.856-31.7.212-.719.35-1.462.548-2.306l-6.371-1.956c-.194.219-.273.27-.293.339-.362,1.2-.7,2.414-1.075,3.616-3.64,11.775-10.57,20.465-22.773,24.157-7.223,2.186-14.623,2.152-22.022,1.419-14.137-1.4-23.352-14.226-19.2-28.64a53.363,53.363,0,0,0,1.116-24.594c-1.112-6-2.84-11.9-4.516-17.784-4.281-15.039,2.416-26.558,17.633-30.076a42.425,42.425,0,0,1,21.271.59c12.075,3.388,21.453,10.026,25.906,22.342,4.784,13.233,6.917,26.779,5.129,40.839-.084.662.283,1.839.751,2.033a61.4,61.4,0,0,0,5.861,1.853c.288-1.708.592-3.086.746-4.482,1.622-14.621-.722-28.664-5.767-42.423-4.321-11.781-12.621-19.193-24.25-23.031a69.309,69.309,0,0,0-13.539-3.026,48.964,48.964,0,0,0-26.785,3.856c-10.055,4.659-15.1,12.529-14.178,23.037a49.339,49.339,0,0,0,2.924,11.37,74.224,74.224,0,0,1,2.732,38.876c-.719,3.7-2.074,7.324-2.368,11.044C1006.29,1993.416,1012.367,2002.3,1022.389,2005.731Z" transform="translate(-999.657 -1892.099)" fill="#2d75cd"/><g transform="translate(113.861 84.324)"><path d="M1090.659,1964.056a2.222,2.222,0,0,0,1.72-.92l-.914-.756c-.3.36-.644.534-.875.471-.4-.126-.626-1-.32-1.978s.995-1.542,1.385-1.449c.251.079.436.473.459.983l1.189-.055a2.11,2.11,0,0,0-1.294-2.062c-1.112-.351-2.38.633-2.876,2.228s-.011,3.118,1.1,3.466A1.547,1.547,0,0,0,1090.659,1964.056Z" transform="translate(-1088.938 -1958.219)" fill="#2d75cd"/><g transform="translate(1.409 1.513)"><g transform="translate(16.924 5.282)"><path d="M1104.233,1966.586a.963.963,0,0,0,.471-.117,1.984,1.984,0,0,0,.752-2.422.874.874,0,0,0-1.231-.381,1.982,1.982,0,0,0-.752,2.42.905.905,0,0,0,.532.462A.832.832,0,0,0,1104.233,1966.586Zm.445-2.324a.186.186,0,0,1,.034.005.214.214,0,0,1,.112.112,1.3,1.3,0,0,1-.453,1.458.2.2,0,0,1-.155.028.215.215,0,0,1-.113-.112,1.3,1.3,0,0,1,.454-1.456A.256.256,0,0,1,1104.678,1964.262Z" transform="translate(-1103.313 -1963.548)" fill="#2d75cd"/></g><path d="M1090.736,1962.41l.209-.682a.215.215,0,0,1-.112-.115,1.13,1.13,0,0,1-.009-.8c.148-.481.467-.737.62-.687l.21-.682c-.587-.186-1.255.327-1.512,1.157a1.809,1.809,0,0,0,.06,1.344A.91.91,0,0,0,1090.736,1962.41Z" transform="translate(-1090.042 -1959.406)" fill="#2d75cd"/><g transform="translate(1.377 0.042)"><rect width="0.715" height="17.75" transform="translate(0 0.682) rotate(-72.73)" fill="#2d75cd"/></g><g transform="translate(0.671 2.314)"><path d="M1107.512,1967.189l.212-.683-16.943-5.286-.212.683Z" transform="translate(-1090.568 -1961.22)" fill="#2d75cd"/></g></g></g></g><g transform="translate(868.97 1889.364)"><path d="M921.164,1926.858a8.969,8.969,0,0,1,1.217,1.112c4.062,6.225,8.047,12.5,10.64,19.517a17.941,17.941,0,0,1,.553,11.042,5.51,5.51,0,0,1-4.682,4.2c-2.3.4-3.919-.8-5.2-2.509a19.975,19.975,0,0,1-3.794-11.97c-.024-1.665-.02-3.334,0-5,.055-4.115.222-8.232.371-12.345A24.081,24.081,0,0,1,921.164,1926.858Z" transform="translate(-854.953 -1879.042)" fill="#2d75cd"/><path d="M919.36,1941.994l3.4-.636.659-.749.041-1.476-.432-.885-.741-.545-1.009.386-.556.227-.844-.431-.494.136-.515.3-1.071-.568-.494.545h-.6l-.679-.431h-.474l-.453.545-.762-.182-.35-.272-.453.318-.432.477-.659-.3-.556-.341h-.432l-.1,1.112.432,2.021,2.492-.341,5.425-.993.362,1.613Z" transform="translate(-857.303 -1876.056)" fill="#2d75cd"/><g transform="translate(42.231 62.981)"><path d="M903.133,1947.284l-.3-1.243,19.41-4.768-.2-.824-1.59-.382-6.189,1.667-1.469.068-10.415,2.422-.287-1.243,10.538-2.439,1.447-.063,6.357-1.73,2.665.637.693,2.821Z" transform="translate(-902.085 -1938.749)" fill="#2d75cd"/></g><path d="M923.995,1939.23a3.826,3.826,0,0,1,.051.386,2.422,2.422,0,0,1-.272,1.435,2.1,2.1,0,0,1-1.389.881l-1.761.4-.232-.88,1.808-.407a1.577,1.577,0,0,0,1.01-.585,1.7,1.7,0,0,0,.106-1.09,1.528,1.528,0,0,0-.728-.99.98.98,0,0,0-.912.08c-.152.117-.205.166-.267.221a.772.772,0,0,1-.472.153.915.915,0,0,1-.518-.237c-.048-.046-.163-.161-.163-.161-.151-.14-.244-.184-.356-.167a.321.321,0,0,0-.261.176.8.8,0,0,1-.629.41.912.912,0,0,1-.69-.416c-.042-.047-.149-.158-.241-.148s-.136.061-.227.161l-.071.077a1.116,1.116,0,0,1-.732.391.961.961,0,0,1-.667-.358.492.492,0,0,0-.351-.187c-.11.011-.167.066-.247.18a.909.909,0,0,1-.658.459.92.92,0,0,1-.749-.32c-.17-.15-.269-.2-.4-.18s-.158.068-.263.224a.861.861,0,0,1-.579.448.834.834,0,0,1-.721-.329.682.682,0,0,0-.487-.193c-.08.005-.168.031-.241.031a.161.161,0,0,0,.005.06h0c.014.07.288,1.474.529,2.7.019.1-.642.328-.662.226-.241-1.237-.523-2.677-.539-2.759a.887.887,0,0,1,.361-1.045,1.206,1.206,0,0,1,1.405.249l.061.057c.108.1.108.1.161.1s.087-.052.2-.226a.881.881,0,0,1,.646-.446,1.1,1.1,0,0,1,.88.348c.172.153.189.158.288.151.083-.008.13-.062.226-.2a.923.923,0,0,1,.668-.441,1.14,1.14,0,0,1,.86.39c.152.149.177.15.236.154a.741.741,0,0,0,.309-.219l.054-.057a.926.926,0,0,1,.585-.351,1,1,0,0,1,.832.44c.071.084.108.123.144.121.057,0,.087-.032.186-.171a.891.891,0,0,1,.64-.408,1.039,1.039,0,0,1,.875.356l.15.145a.288.288,0,0,0,.108.057c.041,0,.088-.016.089-.008a2.5,2.5,0,0,1,.3-.249,1.521,1.521,0,0,1,1.507-.134A2.474,2.474,0,0,1,923.995,1939.23Z" transform="translate(-857.401 -1876.151)" fill="#2d75cd"/><path d="M870.242,1973.844a4.049,4.049,0,0,0,.763-2.458,6.236,6.236,0,0,1,1.6-4.714,2.624,2.624,0,0,0,.719-1.886,4.744,4.744,0,0,1,2.075-4.986,4.362,4.362,0,0,1,5.194-.028,10.885,10.885,0,0,0,1.408.571c.162-3.006.519-5.768.409-8.512-.166-4.181,2.875-6.762,6.733-5.445a3.982,3.982,0,0,1,2.783,3.1c.759,3.4,1.68,7.554,2.5,11.163,4.483-1.067,20.081-4.863,24.5-5.959,1.224-.3,1.1-.557.58-2.909a71.258,71.258,0,0,1-1.958-15.668c.119-21.8,15.223-38.739,33.73-44.483,8.251-2.561,16.679-2.629,25.158-1.782a60.488,60.488,0,0,1,23.115,6.7c12.7,6.882,20,17.758,23.077,31.632,2.611,11.8,2.016,23.638.218,35.491a219.127,219.127,0,0,1-7.5,30.893c-.937,3.076.159,4.882,2.849,4.882.928,0,2.354-.512,2.663-1.194a5.475,5.475,0,0,0-.145-3.365c-.265-.965-2.173-1.71-.83-2.784.574-.458,2.284.07,3.233.593,5.554,3.066,7.215,8.418,4.519,14.141-.189.4-.427.783-.62,1.184-1.507,3.132-3.626,4.526-7.462,4.508-34.094-.157-68.189-.051-102.284-.024a6.739,6.739,0,0,1-2.273-.095c-.635-.241-1.1-.931-1.639-1.422.555-.394,1.1-1.116,1.663-1.129,4.076-.1,8.162.091,12.233-.093,8.389-.377,16.584-1.77,24.118-5.739,5.934-3.126,10.056-7.722,11.132-14.6.069-.439.157-.878.186-1.32.032-.5.008-1.01.008-1.623-2.714-.474-5.406-.814-8.033-1.428-13.322-3.113-23.451-10.659-30.676-22.228-3.028-4.845-1.525-4.364-6.459-3.221-3.45.8-18.056,4.39-21.285,5.152.338,2.442.773,5.215,1,7.459a3.015,3.015,0,0,1-.411,2.006c-1.588,1.985-1.191,4.187-.9,6.378a5.751,5.751,0,0,1-1.4,4.581,4.343,4.343,0,0,0-1.009,2.441c-.074,8.285-.1,14.089-.006,22.372.02,1.792-.569,2.338-2.281,2.317-4.142-.05-8.284.05-12.427.065-2.084.008-2.585-.487-2.588-2.589-.014-8.221-.033-13.959.02-22.18a3.73,3.73,0,0,0-1.488-3.439,45.378,45.378,0,0,1-4.129-3.691C868.511,1978.464,868.467,1976.134,870.242,1973.844Zm91-81.048a10.417,10.417,0,0,0-3.447-.11c-.028.246-.055.492-.083.739l3.91,2.018.612-.305C961.919,1894.32,961.789,1893,961.244,1892.8Zm.777,4.316c-6.4-3.968-7.754-4.049-14.65-.973-1.218.543-2.422,1.121-3.6,1.743-.75.4-1.441.908-2.58,1.639l26,12.081c.06-.514.174-.787.1-1-1.333-4.036-2.663-8.074-4.068-12.085A2.994,2.994,0,0,0,962.021,1897.112Zm58.409,64.711a3.88,3.88,0,0,0,.333-.87c1.362-10.85,1.843-21.687-.645-32.458s-7.614-19.889-16.7-26.506c-.633-.463-1.34-.824-2.012-1.232-.181.116-.361.233-.541.349q9.534,30.4,19.07,60.794Zm-1.977,11.581c.718-3.113,1.821-6.25.773-9.573-6.611-20.957-13.168-41.931-19.83-62.872a4.8,4.8,0,0,0-2.308-2.737c-3.862-1.6-7.842-2.915-11.8-4.283a18.072,18.072,0,0,0-2.764-.437l30.092,98.133.689-.041a11.987,11.987,0,0,0,.82-1.8C1015.608,1984.339,1017.183,1978.906,1018.454,1973.4Zm4.772,35.668a12.053,12.053,0,0,0,3.144-7.19,6.11,6.11,0,0,0-2.265-5.2c-.943,4.524-2.445,5.5-8.259,5.266.621,2.084,1.141,4.054,1.8,5.977C1018.359,2010.009,1021.8,2010.758,1023.226,2009.071Zm-20.6.751c1.974-.056,3.95-.015,5.925-.013,1.848,0,3.7.005,5.544,0,2.22-.009,2.551-.452,1.889-2.638-1.306-4.313-2.637-8.619-3.956-12.928q-15.109-49.368-30.182-98.745a3.288,3.288,0,0,0-3.357-2.684c-3.877-.208-7.747-.513-11.623-.727-4.127-.227-4.233-.035-2.973,3.837q9.85,30.256,19.67,60.521,8.383,25.817,16.733,51.646A2.1,2.1,0,0,0,1002.624,2009.823Zm-18.7-.013c4.254,0,8.438,0,12.621,0,2.63,0,2.89-.329,2.07-2.855q-3.966-12.211-7.973-24.407c-.828-2.521-2.041-2.76-3.822-.756a4.885,4.885,0,0,0-.908,1.44C982.587,1991.823,982.253,2000.638,983.927,2009.81Zm-22.2-11.48c-3.566,5.212-8.749,8.2-14.526,10.335-.6.221-1.182.466-1.773.7l.134.31h35.706a54.173,54.173,0,0,1,1.739-26.257c-.792.107-1.1.131-1.391.19-4.721.925-9.423,1.969-14.171,2.718-1.539.242-2.262.6-2.34,2.22A18.725,18.725,0,0,1,961.729,1998.329Zm-39.594-46.745a17.662,17.662,0,0,0,.667,2.093c.871,2.26,3.093,6.632,3.128,6.662a42.645,42.645,0,0,0,11.056,13.192,47.26,47.26,0,0,0,27.452,10.19c7.5.306,14.6-1.669,21.346-4.934,2.915-1.412,3.1-1.894,2.072-5.02q-3-9.14-5.972-18.292c-3.476-10.691-6.976-21.374-10.387-32.086-.56-1.757-1.617-2.277-3.15-1.743a16.412,16.412,0,0,0-4.961,2.293,8.836,8.836,0,0,0-3.354,8.64c.414,2.573,2.682,3.211,4.675,3.959a6.666,6.666,0,0,0,3.008.282c1.616-.187,3.2-.62,4.8-.949.353,2.057-2.488,5.966-4.548,6.106a2.8,2.8,0,0,1-.561-.083c-5.6-.812-9.893-7.069-8.657-12.609,1.167-5.226,4.462-8.23,9.77-9.032.532-.08,1.359-.626,1.414-1.04.279-2.132-1.923-5.782-3.886-6.7-8.069-3.758-16.158-7.476-24.2-11.284-2.255-1.069-3.368-.4-5.489,1.691-1.356,1.335.245,2.405.944,3.42,3.29,4.779,5.284,9.891,4.025,15.8-1.126,5.276-4.527,9.014-8.629,12.2a8.831,8.831,0,0,1-2.22.905,8.987,8.987,0,0,1,1.4-1.865c3.878-3.071,7.12-6.589,8.208-11.6,1.234-5.676-.9-10.488-4.082-14.979-1.424-2.009-2.028-2.051-3.664-.253-7.684,8.449-12.221,18.214-12.309,29.8A53.167,53.167,0,0,0,922.135,1951.584Zm-48.611,18.028a2.937,2.937,0,0,0,.6,2.5c1.87,1.893,3.927,3.6,5.943,5.345,1.575,1.362,2.432,1.3,3.673-.156,1.123-1.319,1.03-2.307-.412-3.577q-2.86-2.516-5.778-4.962a17.86,17.86,0,0,0-2.032-1.245C874.785,1968.241,873.793,1968.806,873.524,1969.612Zm6.153-7.65a2.423,2.423,0,1,0-3.218,3.624c2.007,1.863,4.01,3.743,6.142,5.456a2.705,2.705,0,0,0,2.378.4c.856-.445,1.405-1.475,2.155-2.336a13.127,13.127,0,0,0-1.4-1.88C883.743,1965.442,881.69,1963.724,879.678,1961.963Zm5.59,2.043c.181-.7.95-.923,1.83-1.124-.719-1.274-1.471-2.607-2.222-3.94.079,1.7-1.39,3.705-.437,5.226C884.468,1964.217,885.239,1964.113,885.267,1964.006Zm6.081-5.52c-.56-2.6-1.2-5.188-1.747-7.791a2.107,2.107,0,0,0-2.536-1.951c-1.553.18-2.192,1.115-2.213,2.65.6,2.719,1.194,5.442,1.81,8.158.324,1.427,1.124,2.279,2.705,1.986A2.259,2.259,0,0,0,891.348,1958.486Zm3.828,13.525c-.661-2.1-1.064-3.83-1.751-5.434a1.8,1.8,0,0,0-2.747-.782,3.187,3.187,0,0,0-1.421,2.286,17.4,17.4,0,0,0,1.223,4.549c.435,1.191,1.428,1.973,2.683,1.377C893.97,1973.625,894.516,1972.694,895.177,1972.011Zm-16.333,36.16c0,.486.089.971.133,1.417h12.158v-2.246c-.009-7.889-.036-13.3,0-21.187a3.277,3.277,0,0,1,.686-2.182c2.4-2.248,1.954-7.138-.752-8.876a8.434,8.434,0,0,1-2.145-2.79,7.34,7.34,0,0,1-.617-1.763l-3.025,3.281c1.088,2.194.811,3.149-2.141,5.859,1.232,3.383.38,5.757-2.483,6.5-1.5.389-1.859,1.094-1.848,2.519C878.868,1996.019,878.835,2000.855,878.844,2008.171Zm-6.672-29.47c1.912,1.943,4.007,3.709,6.074,5.493,1.411,1.218,2.387,1.114,3.567-.246s1.118-2.265-.358-3.553q-3.015-2.63-6.091-5.191a14.586,14.586,0,0,0-1.729-1.036c-.721.675-1.736,1.219-2.029,2.026A2.894,2.894,0,0,0,872.171,1978.7Z" transform="translate(-868.97 -1889.364)" fill="#2d75cd"/><path d="M925.848,1939.776l-43.116,10.189a1.107,1.107,0,0,0,.458,1.794l44.464-10.769Z" transform="translate(-865.264 -1875.485)" fill="#2d75cd"/></g></g></svg>