<svg xmlns="http://www.w3.org/2000/svg" width="277.014" height="115.599" viewBox="0 0 277.014 115.599"><g transform="translate(-875.959 -2128.838)"><g transform="translate(1026.763 2132.111)"><path d="M1058.38,2187.048l13.692-4.385,1.539-.864,8.412-2.352,2.07-2.077-.757-2.485-26.228,7.994" transform="translate(-982.046 -2120.745)" fill="#2d75cd"/><path d="M1086.279,2176.307c-.055-.168-.116-.332-.183-.485a3.122,3.122,0,0,0-1.221-1.5,2.756,2.756,0,0,0-2.187-.107l-2.632.805.354,1.16,2.62-.8a2.082,2.082,0,0,1,1.555.01,2.208,2.208,0,0,1,.809,1.206,2.1,2.1,0,0,1-.234,1.642,1.34,1.34,0,0,1-1.123.514c-.252-.036-.345-.057-.453-.08a1.035,1.035,0,0,0-.65.135,1.267,1.267,0,0,0-.46.624c-.03.086-.092.3-.092.3-.089.264-.171.378-.313.433a.424.424,0,0,1-.419-.031,1.053,1.053,0,0,0-1-.059,1.273,1.273,0,0,0-.551.945c-.019.084-.076.284-.19.334s-.2.019-.369-.037l-.132-.04a1.47,1.47,0,0,0-1.106.028,1.345,1.345,0,0,0-.559.864.693.693,0,0,1-.3.454.433.433,0,0,1-.4-.045,1.189,1.189,0,0,0-1.062-.1,1.284,1.284,0,0,0-.68.875c-.1.289-.193.409-.353.475s-.228.025-.45-.088a1.121,1.121,0,0,0-.96-.137,1.167,1.167,0,0,0-.642.866.939.939,0,0,1-.452.548c-.1.049-.216.077-.3.127a.257.257,0,0,1-.032-.075h0c-.022-.081-.46-1.506-.9-2.937-.059-.195-.964.031-.9.25.436,1.424.871,2.842.9,2.934.186.637.652,1.049,1.082.98a1.753,1.753,0,0,0,.623-.166,1.842,1.842,0,0,0,.873-1.062l.036-.108c.062-.192.062-.192.128-.218s.135,0,.377.13a1.156,1.156,0,0,0,1.041.091,1.526,1.526,0,0,0,.817-.994c.106-.294.124-.311.246-.368.1-.047.192-.014.389.081a1.211,1.211,0,0,0,1.064.069,1.584,1.584,0,0,0,.764-1.029c.085-.275.115-.294.182-.338a.973.973,0,0,1,.5.051l.1.031a1.224,1.224,0,0,0,.909.02,1.4,1.4,0,0,0,.7-1.068c.03-.146.05-.216.092-.238.069-.036.121-.021.327.074a1.167,1.167,0,0,0,1.01.052,1.46,1.46,0,0,0,.805-1l.085-.272a.424.424,0,0,1,.092-.138c.046-.029.114-.037.109-.05a3.227,3.227,0,0,0,.5.094,2.068,2.068,0,0,0,1.855-.849A3.381,3.381,0,0,0,1086.279,2176.307Z" transform="translate(-978.787 -2120.95)" fill="#2d75cd"/><path d="M1113.121,2208.009a4.341,4.341,0,0,1,1.035-4.546c7.169-7.887,7.573-18,1.137-27a4.343,4.343,0,0,1-.572-4.284c1.269-4.3,2.974-8.6,3.415-13,1.006-10.027-3.652-17.413-12.25-22.293-16.285-9.244-42.265-6.313-56.278,6.091-5.909,5.231-8.845,12.094-11.207,19.309a82.807,82.807,0,0,0-3.244,40.905c-3.931,1.207-17.941,5.4-24.989,7.45l.655.961c5.479-1.573,21.771-6.268,25.579-7.433,11.369-3.476,34.094-10.468,34.094-10.468a4.61,4.61,0,0,0-.278-1.183c-.2-.4-.293-.59-.388-.777-1.308-2.628-3.543-3.6-6.684-2.915-2.152.47-3.159,1.836-2.976,4.949.145,2.448-1.5,2.237-3.121,2.655-.084-1.039-.125-1.979-.238-2.91-.372-3.071-2.222-4.685-5.182-4.556a4.772,4.772,0,0,0-4.891,4.936c-.072,1.476.1,2.973-.079,4.431-.08.663-.73,1.258-1.122,1.885l-.6-.3a9.214,9.214,0,0,1-.326-1.243,76.6,76.6,0,0,1,2.014-28.792c1.589-6.068,3.232-12.165,7.259-17.2a4.934,4.934,0,0,1,2.681-1.592c3.253-.654,6.541-1.166,9.834-1.58,7.563-.953,15.141-1.6,22.775-.814,1.87.192,3.744.139,3.8,2.769a1.567,1.567,0,0,0,.6.9c2.806,2.452,6.216,2.378,9.639,2.315,2.254-.042,3.5-1.318,4.177-3.489,2.332,4.949,2.365,11.152.042,17.517a66.711,66.711,0,0,0-2.237,40.489c.648,2.515.438,5.253.624,7.888l-.695.117c-1.474-4.662-5.053-6.085-9.437-6.193-4.612-.115-5.763.818-6.527,4.82l-18.983-2.691c0-4.309-.03-8.95.044-13.589.007-.489.908-1.59.908-1.59l-.313-1.061s-42.57,12.821-59.118,17.849l-.085,1.3c6.861-2.072,20.916-6.191,24.638-7.335.847,2.383,1.6,4.669,2.466,6.915,5.853,15.241,17.153,23.644,33.084,25.973,8.61,1.258,17.294,1.452,25.762-.879,11.268-3.1,18.254-12.668,17.508-23.873C1114.876,2213.868,1113.854,2210.938,1113.121,2208.009Zm-.93-5.927c-1.234-7.753-.631-19.31,1.211-24.069C1119.038,2184.622,1119.277,2195.778,1112.191,2202.082Zm-8.638-48.663a34.508,34.508,0,0,1-7.981-1.095c-.808-.19-1.358-1.476-2.027-2.26.2-.21.39-.419.586-.627l5.387,2.005c.11-.241.218-.481.328-.723a24.2,24.2,0,0,0-3.734-1.817c-7.879-2.308-15.925-1.914-23.951-1.161-5.055.473-10.081,1.245-15.276,1.9a2.662,2.662,0,0,1,.268-.585,7.878,7.878,0,0,1,.658-.593c7.107-5.995,15.452-8.778,24.609-9.19,6.686-.3,13.063.943,18.8,4.674a9.941,9.941,0,0,1,4.537,6.022C1106.279,2152.057,1105.623,2153.407,1103.553,2153.418Zm-47.771,63.085c4.293-.55,8.573-1.3,12.884-1.6,7.9-.566,15.552,1.02,23.063,3.306a2.77,2.77,0,0,1,1.735,1.7,2.638,2.638,0,0,1-1.157,2.14,14.779,14.779,0,0,1-4.689,1.781c-10.735,1.646-20.776-.931-30.475-5.322a8.113,8.113,0,0,1-1.489-1.145C1055.7,2217.075,1055.74,2216.79,1055.783,2216.5Zm-.794,1.87a28.655,28.655,0,0,0,3.439,1.964,59.4,59.4,0,0,0,21.852,5.152c4.224.164,8.533.06,12.273-2.169,1.592-.95,2.663-2.779,3.948-4.229.05-.057-.153-.338-.32-.681l-.989.88a19.578,19.578,0,0,0-2.9-2.077c-1.044-.495-2.348-.864-1.814-2.217a4.672,4.672,0,0,1,2.347-2.507,9.846,9.846,0,0,1,4.154-.188c6.586.632,9.29,6.4,5.612,11.871a17.518,17.518,0,0,1-10.525,7.663c-9.724,2.33-19.376,2.036-28.666-1.988a26.072,26.072,0,0,1-12.258-11.041C1052.871,2217.458,1053.474,2217.429,1054.988,2218.374Zm43.522,19.719c-7.135,2.443-14.529,2.276-21.941,1.832-19.243-1.155-31.938-11.222-37.4-29.747-.2-.676-.329-1.372-.515-2.163l5.979-1.837c.182.206.257.255.275.318.34,1.13.661,2.265,1.009,3.393,3.416,11.051,9.919,19.205,21.371,22.669,6.778,2.051,13.722,2.02,20.665,1.332,13.265-1.316,21.913-13.349,18.013-26.875a50.067,50.067,0,0,1-1.047-23.08c1.044-5.632,2.666-11.168,4.237-16.687,4.019-14.112-2.266-24.922-16.546-28.224a39.813,39.813,0,0,0-19.961.556c-11.33,3.178-20.13,9.407-24.308,20.965-4.489,12.417-6.491,25.13-4.813,38.323.079.621-.267,1.727-.7,1.909-1.724.717-3.565,1.155-5.5,1.738-.271-1.6-.555-2.9-.7-4.206-1.523-13.72.677-26.9,5.412-39.809,4.055-11.056,11.841-18.012,22.756-21.613a65.059,65.059,0,0,1,12.7-2.839,45.948,45.948,0,0,1,25.135,3.618c9.435,4.372,14.174,11.758,13.3,21.619a46.25,46.25,0,0,1-2.744,10.669,69.653,69.653,0,0,0-2.563,36.479c.674,3.471,1.946,6.874,2.222,10.364C1113.619,2226.539,1107.916,2234.873,1098.511,2238.093Z" transform="translate(-993.633 -2131.463)" fill="#2d75cd"/><g transform="translate(0 79.128)"><g transform="translate(15.268)"><path d="M1011.632,2200.4a2.089,2.089,0,0,1-1.614-.863l.859-.711c.281.338.6.5.82.443.378-.119.587-.938.3-1.857s-.934-1.446-1.3-1.359c-.236.074-.409.444-.43.923l-1.116-.051a1.982,1.982,0,0,1,1.216-1.936c1.042-.329,2.232.595,2.7,2.092s.01,2.925-1.037,3.252A1.438,1.438,0,0,1,1011.632,2200.4Z" transform="translate(-1009.152 -2194.926)" fill="#2d75cd"/></g><g transform="translate(0 1.421)"><g transform="translate(0 4.956)"><path d="M998.2,2202.891a.893.893,0,0,1-.443-.111,1.86,1.86,0,0,1-.706-2.272.821.821,0,0,1,1.155-.358,1.864,1.864,0,0,1,.707,2.272.853.853,0,0,1-.5.433A.735.735,0,0,1,998.2,2202.891Zm-.419-2.181a.157.157,0,0,0-.031.005.207.207,0,0,0-.107.106,1.06,1.06,0,0,0-.008.752,1.047,1.047,0,0,0,.434.615.185.185,0,0,0,.145.027.207.207,0,0,0,.107-.106,1.221,1.221,0,0,0-.425-1.366A.235.235,0,0,0,997.786,2200.71Z" transform="translate(-996.907 -2200.04)" fill="#2d75cd"/></g><g transform="translate(16.53)"><path d="M1011.026,2198.884l-.2-.641a.206.206,0,0,0,.106-.107,1.064,1.064,0,0,0,.009-.751c-.14-.45-.439-.69-.582-.644l-.2-.641c.551-.175,1.177.307,1.419,1.085a1.7,1.7,0,0,1-.056,1.262A.859.859,0,0,1,1011.026,2198.884Z" transform="translate(-1010.164 -2196.065)" fill="#2d75cd"/></g><g transform="translate(0.645 0.039)"><rect width="16.656" height="0.671" transform="translate(0 4.945) rotate(-17.27)" fill="#2d75cd"/></g><g transform="translate(1.313 2.171)"><path d="M998.159,2203.407l-.2-.64,15.9-4.96.2.64Z" transform="translate(-997.96 -2197.806)" fill="#2d75cd"/></g></g></g></g><g transform="translate(875.959 2128.838)"><path d="M948.913,2164.825a8.312,8.312,0,0,0-1.141,1.044c-3.813,5.842-7.551,11.734-9.985,18.315a16.839,16.839,0,0,0-.52,10.361,5.17,5.17,0,0,0,4.394,3.945c2.158.379,3.677-.753,4.878-2.354a18.724,18.724,0,0,0,3.56-11.232c.023-1.563.019-3.128,0-4.693-.051-3.861-.21-7.724-.348-11.584A22.633,22.633,0,0,0,948.913,2164.825Z" transform="translate(-860.968 -2119.955)" fill="#2d75cd"/><path d="M950.381,2179.26l-3.188-.6-.618-.7-.039-1.385.406-.831.7-.511.947.362.522.213.792-.405.464.128.483.277,1-.533.464.511h.56l.638-.4h.444l.425.511.715-.17.329-.256.425.3.406.447.618-.277.522-.32h.406l.1,1.044-.406,1.9-2.338-.32-5.09-.932-.34,1.514Z" transform="translate(-858.537 -2117.385)" fill="#2d75cd"/><g transform="translate(90.086 59.1)"><path d="M967.588,2184.247l.286-1.167-18.214-4.474.191-.773,1.492-.358,5.807,1.565,1.379.063,9.773,2.272.269-1.167-9.888-2.289-1.358-.058-5.966-1.624-2.5.6-.65,2.647Z" transform="translate(-948.21 -2176.238)" fill="#2d75cd"/></g><path d="M946.216,2176.66c-.023.122-.037.245-.047.363a2.264,2.264,0,0,0,.256,1.345,1.96,1.96,0,0,0,1.3.828l1.652.373.217-.825-1.7-.381a1.49,1.49,0,0,1-.949-.549,1.6,1.6,0,0,1-.1-1.024,1.431,1.431,0,0,1,.683-.929.92.92,0,0,1,.855.075c.142.111.193.156.251.207a.716.716,0,0,0,.443.143.847.847,0,0,0,.485-.222c.046-.042.155-.151.155-.151.14-.131.228-.172.333-.156a.3.3,0,0,1,.246.165.753.753,0,0,0,.591.384.858.858,0,0,0,.647-.39c.039-.045.14-.148.226-.138s.127.057.213.151l.067.071a1.036,1.036,0,0,0,.686.368.9.9,0,0,0,.626-.337.466.466,0,0,1,.329-.176c.1.01.157.063.233.168a.85.85,0,0,0,.616.431.865.865,0,0,0,.7-.3c.158-.141.252-.183.37-.169s.148.065.247.212a.8.8,0,0,0,.542.419.782.782,0,0,0,.677-.309.64.64,0,0,1,.456-.179c.076,0,.158.029.227.029a.152.152,0,0,1-.005.056h0c-.014.066-.272,1.383-.5,2.539-.019.092.6.308.621.212.226-1.162.49-2.512.506-2.59a.829.829,0,0,0-.339-.979,1.207,1.207,0,0,0-.436-.116,1.239,1.239,0,0,0-.883.349l-.057.054c-.1.1-.1.1-.151.09s-.081-.048-.187-.212a.83.83,0,0,0-.607-.419,1.028,1.028,0,0,0-.827.328c-.161.144-.176.147-.271.14-.077-.007-.122-.059-.211-.185a.87.87,0,0,0-.628-.415,1.066,1.066,0,0,0-.806.367c-.142.14-.167.141-.222.144a.7.7,0,0,1-.289-.206l-.05-.053a.863.863,0,0,0-.55-.328.936.936,0,0,0-.78.411c-.066.08-.1.115-.135.114-.054,0-.081-.029-.176-.159a.832.832,0,0,0-.6-.384.984.984,0,0,0-.822.334l-.141.137a.269.269,0,0,1-.1.053c-.037,0-.081-.016-.082-.006a2.322,2.322,0,0,0-.278-.234,1.421,1.421,0,0,0-1.414-.125A2.318,2.318,0,0,0,946.216,2176.66Z" transform="translate(-858.63 -2117.467)" fill="#2d75cd"/><path d="M1024.844,2208.112a3.793,3.793,0,0,1-.716-2.306,5.842,5.842,0,0,0-1.5-4.423,2.464,2.464,0,0,1-.675-1.77,4.452,4.452,0,0,0-1.948-4.68,4.093,4.093,0,0,0-4.874-.026,10.225,10.225,0,0,1-1.32.536c-.152-2.82-.488-5.413-.385-7.988.156-3.924-2.7-6.344-6.317-5.11a3.739,3.739,0,0,0-2.612,2.911c-.712,3.193-1.575,7.089-2.348,10.476-4.207-1-18.844-4.565-22.989-5.594-1.148-.286-1.027-.522-.545-2.729a66.826,66.826,0,0,0,1.837-14.7c-.11-20.457-14.284-36.352-31.651-41.742-7.743-2.4-15.65-2.466-23.608-1.672a56.737,56.737,0,0,0-21.69,6.285c-11.916,6.458-18.772,16.663-21.655,29.684-2.451,11.068-1.893,22.181-.2,33.3a205.3,205.3,0,0,0,7.037,28.989c.878,2.886-.15,4.581-2.674,4.581a3.181,3.181,0,0,1-2.5-1.121,5.132,5.132,0,0,1,.136-3.157c.249-.906,2.04-1.606.779-2.613-.537-.429-2.143.066-3.034.557-5.212,2.877-6.77,7.9-4.24,13.27.178.378.4.733.582,1.11,1.415,2.939,3.4,4.247,7,4.23,31.993-.147,63.987-.049,95.981-.024a6.28,6.28,0,0,0,2.133-.088c.6-.225,1.031-.873,1.537-1.334-.519-.369-1.031-1.046-1.56-1.06-3.824-.094-7.659.086-11.48-.086-7.871-.354-15.562-1.662-22.63-5.385-5.57-2.934-9.437-7.247-10.447-13.7-.065-.413-.147-.824-.175-1.24-.03-.471-.007-.948-.007-1.523,2.547-.446,5.074-.763,7.538-1.341,12.5-2.921,22.007-10,28.787-20.857,2.84-4.547,1.431-4.1,6.061-3.023,3.237.749,16.943,4.119,19.973,4.834-.317,2.293-.724,4.894-.939,7a2.834,2.834,0,0,0,.385,1.883c1.49,1.861,1.117,3.929.844,5.984a5.4,5.4,0,0,0,1.318,4.3,4.076,4.076,0,0,1,.948,2.291c.07,7.773.091,13.22.005,20.992-.019,1.682.535,2.193,2.142,2.174,3.885-.046,7.773.046,11.66.061,1.955.008,2.425-.458,2.429-2.429.012-7.714.031-13.1-.02-20.813a3.5,3.5,0,0,1,1.4-3.228,42.336,42.336,0,0,0,3.875-3.464C1026.467,2212.448,1026.508,2210.262,1024.844,2208.112Zm-85.4-76.055a9.792,9.792,0,0,1,3.236-.1c.026.231.051.461.077.692l-3.668,1.894-.575-.287C938.815,2133.489,938.936,2132.247,939.447,2132.057Zm-.728,4.051c6.007-3.723,7.275-3.8,13.747-.914,1.143.51,2.273,1.052,3.379,1.636.7.373,1.352.853,2.421,1.537l-24.4,11.338c-.055-.483-.162-.74-.1-.937,1.251-3.788,2.5-7.577,3.818-11.341A2.8,2.8,0,0,1,938.719,2136.108Zm-54.811,60.723a3.609,3.609,0,0,1-.312-.815c-1.279-10.182-1.729-20.351.6-30.458s7.146-18.664,15.667-24.875c.595-.432,1.258-.771,1.889-1.154l.508.327L884.369,2196.9Zm1.855,10.867c-.675-2.921-1.709-5.864-.726-8.982,6.2-19.665,12.356-39.348,18.609-59a4.5,4.5,0,0,1,2.166-2.567c3.623-1.5,7.359-2.736,11.07-4.02a16.837,16.837,0,0,1,2.593-.409c-9.5,30.969-18.869,61.528-28.239,92.086l-.646-.039a11.139,11.139,0,0,1-.769-1.689C888.433,2217.961,886.955,2212.863,885.763,2207.7Zm-4.479,33.472a11.318,11.318,0,0,1-2.95-6.748,5.736,5.736,0,0,1,2.126-4.882c.885,4.246,2.294,5.161,7.749,4.941-.582,1.956-1.07,3.805-1.687,5.61C885.852,2242.049,882.621,2242.751,881.284,2241.17Zm19.332.7c-1.852-.052-3.707-.013-5.56-.012-1.734,0-3.467.006-5.2,0-2.083-.009-2.394-.425-1.773-2.475,1.226-4.048,2.475-8.088,3.713-12.132q14.177-46.327,28.322-92.662a3.083,3.083,0,0,1,3.149-2.519c3.637-.2,7.27-.481,10.907-.682,3.871-.213,3.971-.032,2.789,3.6q-9.245,28.391-18.458,56.793-7.866,24.227-15.7,48.465A1.972,1.972,0,0,1,900.617,2241.875Zm17.546-.012c-3.992,0-7.917,0-11.843,0-2.468,0-2.712-.308-1.943-2.68q3.722-11.457,7.482-22.9c.776-2.365,1.914-2.589,3.587-.709a4.635,4.635,0,0,1,.852,1.35C919.42,2224.984,919.735,2233.256,918.162,2241.862Zm20.831-10.773c3.347,4.89,8.209,7.7,13.631,9.7.559.206,1.108.436,1.663.655-.042.1-.083.194-.126.291H920.655a50.822,50.822,0,0,0-1.632-24.64c.743.1,1.027.124,1.305.178,4.43.868,8.843,1.848,13.3,2.55,1.444.228,2.123.559,2.2,2.083A17.57,17.57,0,0,0,938.993,2231.089Zm37.155-43.865a16.472,16.472,0,0,1-.627,1.964c-.818,2.121-2.9,6.223-2.935,6.251a39.991,39.991,0,0,1-10.375,12.379,44.343,44.343,0,0,1-25.761,9.562,41.772,41.772,0,0,1-20.032-4.63c-2.734-1.324-2.906-1.776-1.944-4.709q2.815-8.58,5.6-17.167c3.262-10.032,6.546-20.056,9.747-30.108.526-1.65,1.517-2.137,2.958-1.636a15.463,15.463,0,0,1,4.654,2.152,8.291,8.291,0,0,1,3.147,8.109c-.389,2.414-2.516,3.013-4.386,3.714a6.243,6.243,0,0,1-2.824.265c-1.516-.176-3-.581-4.5-.889-.332,1.929,2.334,5.6,4.267,5.73a2.536,2.536,0,0,0,.526-.079c5.253-.762,9.284-6.633,8.123-11.833-1.095-4.9-4.186-7.722-9.167-8.475-.5-.075-1.277-.587-1.328-.975-.262-2,1.805-5.426,3.647-6.283,7.571-3.527,15.162-7.015,22.713-10.589,2.117-1,3.161-.372,5.151,1.587,1.273,1.253-.229,2.257-.885,3.209-3.087,4.485-4.959,9.283-3.777,14.824,1.056,4.95,4.249,8.459,8.1,11.45a8.272,8.272,0,0,0,2.083.851,8.429,8.429,0,0,0-1.309-1.751c-3.64-2.88-6.682-6.183-7.7-10.882-1.157-5.328.845-9.843,3.832-14.056,1.337-1.885,1.9-1.925,3.438-.237,7.211,7.928,11.468,17.09,11.552,27.96A49.959,49.959,0,0,1,976.148,2187.224Zm45.615,16.917a2.748,2.748,0,0,1-.566,2.343c-1.753,1.777-3.684,3.38-5.577,5.016-1.478,1.278-2.282,1.221-3.446-.146-1.053-1.238-.966-2.166.387-3.358q2.684-2.36,5.424-4.656a16.821,16.821,0,0,1,1.905-1.168C1020.58,2202.856,1021.511,2203.386,1021.763,2204.141Zm-5.773-7.178a2.274,2.274,0,1,1,3.018,3.4c-1.884,1.749-3.763,3.512-5.764,5.119a2.542,2.542,0,0,1-2.232.378c-.8-.417-1.319-1.384-2.021-2.192a12.091,12.091,0,0,1,1.314-1.764C1012.175,2200.229,1014.1,2198.616,1015.99,2196.963Zm-5.246,1.917c-.171-.656-.893-.866-1.718-1.054.675-1.2,1.38-2.446,2.085-3.7-.074,1.6,1.3,3.478.411,4.9C1011.494,2199.079,1010.771,2198.982,1010.745,2198.881Zm-5.707-5.181c.525-2.442,1.121-4.868,1.64-7.31a1.976,1.976,0,0,1,2.38-1.83,2.181,2.181,0,0,1,2.076,2.486c-.565,2.553-1.12,5.106-1.7,7.656-.3,1.339-1.054,2.138-2.537,1.863A2.12,2.12,0,0,1,1005.038,2193.7Zm-3.593,12.692c.621-1.974,1-3.594,1.645-5.1a1.691,1.691,0,0,1,2.577-.734,3,3,0,0,1,1.334,2.146,16.466,16.466,0,0,1-1.148,4.269c-.408,1.119-1.34,1.852-2.519,1.293C1002.578,2207.908,1002.065,2207.034,1001.444,2206.392Zm15.328,33.933a13.29,13.29,0,0,1-.125,1.329h-11.409c0-.807,0-1.456,0-2.106.007-7.4.032-12.478-.005-19.882a3.076,3.076,0,0,0-.643-2.049c-2.253-2.109-1.833-6.7.706-8.329a7.9,7.9,0,0,0,2.012-2.618,6.871,6.871,0,0,0,.58-1.654l2.839,3.08c-1.02,2.057-.762,2.954,2.01,5.5-1.156,3.174-.358,5.4,2.329,6.1,1.409.364,1.744,1.027,1.734,2.363C1016.748,2228.921,1016.781,2233.458,1016.772,2240.325Zm6.26-27.654c-1.793,1.823-3.759,3.48-5.7,5.155-1.324,1.142-2.24,1.045-3.348-.23s-1.05-2.127.335-3.335q2.83-2.469,5.715-4.87a13.787,13.787,0,0,1,1.624-.972c.676.634,1.628,1.145,1.9,1.9A2.713,2.713,0,0,1,1023.032,2212.671Z" transform="translate(-875.959 -2128.838)" fill="#2d75cd"/><path d="M951.063,2177.224l40.46,9.561a1.039,1.039,0,0,1-.43,1.683l-41.725-10.1Z" transform="translate(-857.838 -2116.894)" fill="#2d75cd"/></g></g></svg>